<svg width="154" height="92" viewBox="0 0 154 92" fill="none" xmlns="http://www.w3.org/2000/svg">
<path d="M103.5 35.2188L103.21 35.6259L103.5 35.2188ZM0.181937 3.83296C-0.03113 4.00862 -0.0614475 4.32375 0.114201 4.53681L2.97676 8.00896C3.15241 8.22203 3.46755 8.25235 3.68061 8.07669C3.89368 7.90103 3.924 7.58591 3.74835 7.37284L1.20385 4.28648L4.29021 1.742C4.50328 1.56634 4.53361 1.25121 4.35795 1.03814C4.18228 0.825073 3.86716 0.79475 3.65408 0.970406L0.181937 3.83296ZM153.5 91.7188C153.917 91.4433 153.917 91.4431 153.917 91.4428C153.917 91.4425 153.916 91.442 153.916 91.4413C153.915 91.4401 153.914 91.4382 153.912 91.4358C153.909 91.4309 153.904 91.4236 153.898 91.4139C153.885 91.3947 153.866 91.3661 153.841 91.3283C153.791 91.2527 153.716 91.1405 153.617 90.9936C153.42 90.6998 153.128 90.2671 152.749 89.7106C151.989 88.5975 150.878 86.9891 149.469 85.0059C146.652 81.0396 142.647 75.573 137.889 69.5709C128.384 57.5773 115.848 43.405 103.79 34.8116L103.21 35.6259C115.146 44.1329 127.61 58.2107 137.106 70.192C141.849 76.1773 145.845 81.6293 148.654 85.5849C150.058 87.5625 151.166 89.1658 151.923 90.2742C152.301 90.8284 152.591 91.2589 152.787 91.5506C152.885 91.6964 152.959 91.8076 153.008 91.8821C153.033 91.9194 153.052 91.9476 153.064 91.9663C153.07 91.9757 153.075 91.9827 153.078 91.9874C153.08 91.9897 153.081 91.9914 153.082 91.9926C153.082 91.9931 153.082 91.9935 153.082 91.9938C153.083 91.9941 153.083 91.9942 153.5 91.7188ZM103.79 34.8116C86.5986 22.559 60.7628 14.7924 39.2792 10.0878C28.5274 7.73337 18.847 6.14197 11.8543 5.13913C8.35776 4.63768 5.53267 4.28331 3.58103 4.05423C2.6052 3.93969 1.8477 3.85647 1.33377 3.80185C1.0768 3.77454 0.880729 3.75437 0.748694 3.74102C0.682692 3.73435 0.632679 3.72937 0.599079 3.72606C0.582286 3.7244 0.569589 3.72316 0.561036 3.72233C0.556767 3.72191 0.55353 3.72159 0.551341 3.72139C0.550232 3.72127 0.549383 3.7212 0.548829 3.72114C0.548228 3.72108 0.547889 3.72105 0.500001 4.21875C0.452114 4.71646 0.452299 4.71647 0.452746 4.71651C0.45324 4.71656 0.453949 4.71663 0.45495 4.71673C0.456954 4.71692 0.45999 4.71722 0.46406 4.71761C0.472211 4.71841 0.484509 4.71961 0.500901 4.72122C0.533699 4.72446 0.582881 4.72935 0.648082 4.73595C0.778454 4.74913 0.972846 4.76912 1.22808 4.79625C1.73855 4.8505 2.49242 4.93332 3.46446 5.04741C5.40854 5.27561 8.22511 5.62889 11.7124 6.12901C18.6873 7.1293 28.3429 8.71666 39.0652 11.0647C60.5298 15.7651 86.194 23.4986 103.21 35.6259L103.79 34.8116Z" fill="black"/>
</svg>
