<svg width="64" height="264" viewBox="0 0 64 264" fill="none" xmlns="http://www.w3.org/2000/svg">
<path d="M55.3504 263.087C55.7091 263.507 56.3403 263.557 56.7602 263.198L63.6038 257.353C64.0238 256.994 64.0734 256.363 63.7147 255.943C63.3561 255.523 62.7248 255.473 62.3049 255.832L56.2217 261.028L51.026 254.945C50.6674 254.525 50.0361 254.475 49.6162 254.834C49.1962 255.192 49.1466 255.823 49.5053 256.243L55.3504 263.087ZM0.55751 1.7713C18.2279 13.5049 30.5526 35.5434 39.0524 62.2216C47.5428 88.8706 52.1649 119.983 54.5479 149.653C56.9304 179.315 57.072 207.496 56.6175 228.263C56.3903 238.646 56.0141 247.173 55.6948 253.104C55.5352 256.069 55.3898 258.384 55.2844 259.958C55.2317 260.745 55.189 261.346 55.1595 261.75C55.1447 261.952 55.1333 262.105 55.1256 262.207C55.1217 262.258 55.1187 262.296 55.1168 262.322C55.1158 262.334 55.115 262.344 55.1146 262.35C55.1143 262.353 55.1141 262.355 55.114 262.357C55.1139 262.358 55.1139 262.359 56.1108 262.438C57.1077 262.516 57.1078 262.515 57.1079 262.513C57.108 262.512 57.1083 262.509 57.1085 262.506C57.109 262.499 57.1098 262.489 57.1108 262.476C57.1129 262.449 57.1159 262.41 57.1198 262.358C57.1277 262.254 57.1393 262.1 57.1542 261.896C57.184 261.488 57.227 260.882 57.2799 260.092C57.3859 258.51 57.5318 256.186 57.6919 253.211C58.0122 247.263 58.3892 238.714 58.617 228.307C59.0725 207.496 58.9311 179.244 56.5415 149.493C54.1525 119.749 49.5136 88.4679 40.958 61.6145C32.4118 34.7904 19.9055 12.2181 1.66387 0.105173L0.55751 1.7713Z" fill="black" fill-opacity="0.6"/>
</svg>
