<svg width="133" height="29" viewBox="0 0 133 29" fill="none" xmlns="http://www.w3.org/2000/svg">
<path d="M77.4994 21.7187L77.4085 21.2271L77.4994 21.7187ZM0.664748 24.0131C0.459528 24.1978 0.442958 24.514 0.627738 24.7192L3.63879 28.0634C3.82357 28.2686 4.13972 28.2852 4.34493 28.1004C4.55015 27.9156 4.56672 27.5995 4.38195 27.3943L1.70545 24.4217L4.67805 21.7452C4.88326 21.5604 4.89983 21.2442 4.71506 21.039C4.53028 20.8338 4.21413 20.8172 4.00893 21.002L0.664748 24.0131ZM131.879 0.907894C131.642 0.467507 131.642 0.467544 131.642 0.467645C131.642 0.467761 131.642 0.467924 131.641 0.468157C131.64 0.468622 131.639 0.469335 131.637 0.470296C131.634 0.472217 131.628 0.475125 131.621 0.479006C131.606 0.486769 131.585 0.498425 131.556 0.513865C131.498 0.544747 131.411 0.590768 131.297 0.651063C131.069 0.771654 130.731 0.949336 130.292 1.17719C129.414 1.63289 128.132 2.28923 126.519 3.09082C123.292 4.6941 118.741 6.87791 113.446 9.19939C102.846 13.8459 89.2933 19.0298 77.4085 21.2271L77.5903 22.2104C89.5909 19.9917 103.228 14.7702 113.847 10.1153C119.161 7.78601 123.726 5.59511 126.964 3.98636C128.583 3.18193 129.87 2.52292 130.752 2.06478C131.194 1.83571 131.534 1.65685 131.764 1.53512C131.88 1.47426 131.967 1.42768 132.026 1.39625C132.056 1.38054 132.078 1.36861 132.093 1.36058C132.1 1.35656 132.106 1.35352 132.11 1.35147C132.112 1.35044 132.113 1.34966 132.114 1.34913C132.115 1.34886 132.115 1.34865 132.115 1.34852C132.116 1.34837 132.116 1.34828 131.879 0.907894ZM77.4085 21.2271C63.3903 23.8188 44.3043 24.4858 28.6993 24.5021C20.9017 24.5103 13.9821 24.356 9.01207 24.1998C6.52715 24.1216 4.52982 24.043 3.15402 23.9839C2.46612 23.9543 1.93365 23.9297 1.5733 23.9124C1.39313 23.9038 1.25599 23.897 1.16399 23.8924C1.11799 23.8901 1.08327 23.8883 1.0601 23.8871C1.04852 23.8865 1.03982 23.8861 1.03403 23.8858C1.03115 23.8856 1.02899 23.8855 1.02755 23.8854C1.02685 23.8854 1.02633 23.8854 1.02597 23.8853C1.02563 23.8853 1.02549 23.8853 0.999311 24.3846C0.973136 24.884 0.973355 24.884 0.973761 24.884C0.974137 24.884 0.974731 24.884 0.975483 24.8841C0.977001 24.8842 0.979254 24.8843 0.982227 24.8844C0.988189 24.8847 0.997077 24.8852 1.00884 24.8858C1.03239 24.887 1.06747 24.8888 1.11385 24.8911C1.2066 24.8958 1.34449 24.9026 1.52545 24.9113C1.88736 24.9286 2.4215 24.9533 3.1111 24.983C4.49032 25.0422 6.49151 25.121 8.98064 25.1993C13.9587 25.3558 20.8894 25.5103 28.7003 25.5021C44.3122 25.4858 63.4762 24.8199 77.5903 22.2104L77.4085 21.2271Z" fill="black" fill-opacity="0.6"/>
</svg>
