<svg width="277" height="85" viewBox="0 0 277 85" fill="none" xmlns="http://www.w3.org/2000/svg">
<path d="M128.5 71.4999L128.342 71.9744L128.5 71.4999ZM0.929437 1.00564C0.656067 1.04464 0.466051 1.29786 0.505047 1.57124L1.14055 6.02614C1.17955 6.29952 1.43275 6.48951 1.70615 6.45053C1.97952 6.41153 2.16951 6.1583 2.13051 5.88492L1.56564 1.92501L5.52555 1.36013C5.79892 1.32113 5.98893 1.06791 5.94994 0.794534C5.91094 0.52116 5.65771 0.331156 5.38434 0.370154L0.929437 1.00564ZM276 81.5003C275.94 81.0038 275.94 81.0038 275.939 81.0039C275.939 81.004 275.938 81.0041 275.937 81.0043C275.934 81.0046 275.93 81.005 275.925 81.0056C275.915 81.0068 275.899 81.0087 275.879 81.0111C275.838 81.0159 275.776 81.0232 275.693 81.0326C275.529 81.0515 275.284 81.0792 274.961 81.1146C274.316 81.1853 273.361 81.2864 272.124 81.4079C269.649 81.651 266.043 81.9756 261.525 82.3018C252.488 82.954 239.801 83.6118 225.203 83.6341C195.997 83.6787 159.186 81.1786 128.658 71.0255L128.342 71.9744C159.024 82.1786 195.963 84.6787 225.205 84.6341C239.831 84.6118 252.542 83.9527 261.597 83.2992C266.124 82.9724 269.739 82.6469 272.221 82.4031C273.463 82.2812 274.422 82.1797 275.07 82.1086C275.395 82.0731 275.642 82.0451 275.808 82.0261C275.891 82.0165 275.953 82.0092 275.995 82.0043C276.017 82.0018 276.032 81.9999 276.043 81.9986C276.048 81.998 276.053 81.9975 276.055 81.9972C276.057 81.997 276.058 81.9969 276.058 81.9968C276.059 81.9967 276.06 81.9967 276 81.5003ZM128.658 71.0255C97.9916 60.8265 66.1551 43.3502 41.9724 28.4121C29.884 20.9449 19.7142 14.1158 12.5669 9.15377C8.99336 6.67282 6.17566 4.65879 4.2518 3.26535C3.28989 2.56864 2.55145 2.02709 2.05376 1.65991C1.80489 1.47631 1.61625 1.33632 1.48992 1.24232C1.42675 1.19531 1.37917 1.15981 1.34744 1.1361C1.3316 1.12426 1.31971 1.11535 1.3118 1.10944C1.30784 1.10648 1.30491 1.10427 1.30295 1.10281C1.30197 1.10208 1.30128 1.10155 1.30079 1.10119C1.30032 1.10084 1.30012 1.10069 1.00004 1.50063C0.699968 1.90057 0.700249 1.90079 0.700817 1.90121C0.701331 1.9016 0.702128 1.9022 0.703185 1.90298C0.705242 1.90453 0.708332 1.90684 0.712427 1.9099C0.720587 1.91601 0.732738 1.92511 0.74886 1.93716C0.781102 1.96126 0.829224 1.99716 0.892913 2.04456C1.02032 2.13937 1.2101 2.28019 1.46008 2.46461C1.96004 2.83346 2.70083 3.37674 3.66521 4.07523C5.59396 5.47222 8.41713 7.49013 11.9966 9.9752C19.1554 14.9452 29.3404 21.7845 41.4469 29.2629C65.6539 44.216 97.5673 61.7393 128.342 71.9744L128.658 71.0255Z" fill="black"/>
</svg>
