<svg width="212" height="171" viewBox="0 0 212 171" fill="none" xmlns="http://www.w3.org/2000/svg">
<path d="M208.425 170.513C208.968 170.613 209.489 170.254 209.589 169.71L211.213 160.858C211.313 160.315 210.953 159.794 210.41 159.694C209.867 159.594 209.346 159.954 209.246 160.497L207.802 168.366L199.933 166.922C199.39 166.822 198.869 167.182 198.769 167.725C198.67 168.268 199.029 168.789 199.572 168.889L208.425 170.513ZM1.09611 2.2782C22.2092 0.239642 45.6729 9.56942 69.0946 24.9123C92.4905 40.2382 115.7 61.4679 136.261 82.9899C156.817 104.507 174.7 126.286 187.445 142.69C193.817 150.89 198.903 157.745 202.396 162.549C204.142 164.95 205.489 166.839 206.4 168.127C206.855 168.771 207.201 169.264 207.433 169.596C207.549 169.762 207.637 169.888 207.695 169.972C207.724 170.014 207.746 170.046 207.76 170.067C207.768 170.077 207.773 170.085 207.777 170.09C207.779 170.093 207.78 170.095 207.781 170.096C207.782 170.097 207.782 170.098 208.605 169.53C209.428 168.962 209.428 168.961 209.427 168.96C209.426 168.958 209.424 168.956 209.422 168.953C209.418 168.948 209.413 168.94 209.405 168.929C209.39 168.907 209.368 168.875 209.338 168.832C209.279 168.746 209.19 168.619 209.073 168.451C208.839 168.116 208.49 167.619 208.033 166.972C207.117 165.678 205.765 163.782 204.013 161.373C200.51 156.554 195.411 149.682 189.024 141.462C176.253 125.025 158.325 103.189 137.707 81.6083C117.095 60.0328 93.766 38.6828 70.1906 23.2393C46.6409 7.81259 22.6996 -1.817 0.903893 0.287457L1.09611 2.2782Z" fill="black" fill-opacity="0.6"/>
</svg>
