<svg width="400" height="58" viewBox="0 0 400 58" fill="none" xmlns="http://www.w3.org/2000/svg">
<path d="M399.655 16.8796C399.791 16.6389 399.705 16.3341 399.465 16.1988L395.542 13.9938C395.301 13.8585 394.996 13.944 394.861 14.1847C394.726 14.4254 394.811 14.7302 395.052 14.8655L398.539 16.8255L396.579 20.3124C396.443 20.5531 396.529 20.858 396.77 20.9933C397.01 21.1286 397.315 21.0431 397.451 20.8024L399.655 16.8796ZM0.746097 0.795144C10.7132 30.1919 40.7742 45.8065 79.9837 52.7755C119.218 59.7491 167.79 58.1023 215.088 52.8192C262.393 47.5353 308.459 38.6095 342.695 31.0056C359.814 27.2035 373.978 23.7316 383.862 21.21C388.804 19.9491 392.676 18.9259 395.313 18.2177C396.632 17.8637 397.642 17.5884 398.322 17.4015C398.663 17.3081 398.92 17.2368 399.093 17.1888C399.18 17.1648 399.245 17.1467 399.289 17.1345C399.31 17.1284 399.327 17.1238 399.338 17.1207C399.343 17.1192 399.348 17.118 399.35 17.1173C399.353 17.1165 399.355 17.1161 399.22 16.6346C399.085 16.1532 399.083 16.1536 399.081 16.1543C399.078 16.1551 399.074 16.1562 399.069 16.1577C399.058 16.1607 399.042 16.1653 399.02 16.1713C398.977 16.1833 398.912 16.2014 398.826 16.2252C398.654 16.273 398.397 16.3441 398.058 16.4372C397.379 16.6236 396.371 16.8984 395.054 17.252C392.421 17.9591 388.552 18.9813 383.615 20.241C373.739 22.7604 359.586 26.2299 342.478 30.0294C308.262 37.6288 262.234 46.5468 214.977 51.8254C167.712 57.1049 119.252 58.7394 80.1587 51.791C41.0401 44.8381 11.4761 29.3276 1.69314 0.474044L0.746097 0.795144Z" fill="black" fill-opacity="0.6"/>
</svg>
