<svg width="1299" height="32" viewBox="0 0 1299 32" fill="none" xmlns="http://www.w3.org/2000/svg">
<path d="M1222.31 2C1222.31 0.895431 1223.2 0 1224.31 0H1276.18C1277.3 0 1278.21 0.926261 1278.18 2.05009C1278.15 3.13481 1277.26 4 1276.18 4H1224.31C1223.2 4 1222.31 3.10457 1222.31 2Z" fill="#F59C04"/>
<path d="M1222.31 30C1222.31 28.8954 1223.2 28 1224.31 28H1276.18C1277.3 28 1278.21 28.9263 1278.18 30.0501C1278.15 31.1348 1277.26 32 1276.18 32H1224.31C1223.2 32 1222.31 31.1046 1222.31 30Z" fill="#F59C04"/>
<path d="M1222.31 9C1222.31 7.89543 1223.2 7 1224.31 7H1287.35C1288.48 7 1289.39 7.93249 1289.35 9.0601C1289.32 10.1408 1288.43 11 1287.35 11H1224.31C1223.2 11 1222.31 10.1046 1222.31 9Z" fill="#F59C04"/>
<path d="M1222.31 23C1222.31 21.8954 1223.2 21 1224.31 21H1287.35C1288.48 21 1289.39 21.9325 1289.35 23.0601C1289.32 24.1408 1288.43 25 1287.35 25H1224.31C1223.2 25 1222.31 24.1046 1222.31 23Z" fill="#F59C04"/>
<path d="M1222.31 16C1222.31 14.8954 1223.2 14 1224.31 14H1296.93C1298.06 14 1298.97 14.9379 1298.93 16.0687C1298.89 17.1459 1298.01 18 1296.93 18H1224.31C1223.2 18 1222.31 17.1046 1222.31 16Z" fill="#F59C04"/>
<path d="M0 2C0 0.895431 0.89543 0 2 0H1230.1C1231.62 0 1232.59 1.6344 1231.85 2.96738C1231.5 3.6045 1230.83 4 1230.1 4H2.00002C0.895455 4 0 3.10457 0 2Z" fill="#F59C04"/>
<path d="M0 30C0 28.8954 0.89543 28 2 28H1230.1C1231.62 28 1232.59 29.6344 1231.85 30.9674C1231.5 31.6045 1230.83 32 1230.1 32H2.00002C0.895455 32 0 31.1046 0 30Z" fill="#F59C04"/>
<path d="M0 9C0 7.89543 0.895431 7 2 7H1226.91C1228.43 7 1229.4 8.63252 1228.66 9.96546C1228.31 10.6036 1227.64 11 1226.91 11H1.99997C0.895398 11 0 10.1046 0 9Z" fill="#F59C04"/>
<path d="M0 23C0 21.8954 0.89543 21 2 21H1230.1C1231.62 21 1232.59 22.6344 1231.85 23.9674C1231.5 24.6045 1230.83 25 1230.1 25H2.00002C0.895455 25 0 24.1046 0 23Z" fill="#F59C04"/>
<path d="M0 16C0 14.8954 0.895431 14 2 14H1247.65C1249.18 14 1250.14 15.6447 1249.4 16.9779C1249.04 17.6091 1248.38 18 1247.65 18H2.00001C0.895444 18 0 17.1046 0 16Z" fill="#F59C04"/>
</svg>
