<svg width="610" height="432" viewBox="0 0 610 432" fill="none" xmlns="http://www.w3.org/2000/svg">
<mask id="mask0_39_3679" style="mask-type:alpha" maskUnits="userSpaceOnUse" x="0" y="0" width="610" height="432">
<rect y="0.71875" width="610" height="431" fill="#D9D9D9"/>
</mask>
<g mask="url(#mask0_39_3679)">
<path d="M457.025 21.7188H170.939C163.194 21.7911 155.796 24.9357 150.37 30.4613C144.943 35.9869 141.933 43.4412 142.001 51.1855V640.155C141.965 643.991 142.685 647.796 144.12 651.354C145.554 654.912 147.676 658.153 150.363 660.891C153.05 663.628 156.25 665.81 159.781 667.311C163.311 668.813 167.102 669.604 170.939 669.64H457.025C460.864 669.608 464.66 668.821 468.194 667.322C471.729 665.823 474.933 663.642 477.624 660.903C480.315 658.165 482.44 654.923 483.877 651.363C485.314 647.802 486.035 643.994 485.999 640.155V51.1855C486.032 47.3478 485.31 43.5412 483.872 39.983C482.433 36.4249 480.308 33.185 477.618 30.4485C474.927 27.712 471.723 25.5325 468.19 24.0346C464.657 22.5367 460.863 21.7498 457.025 21.7188ZM467.979 621.898C467.979 637.416 456.368 649.94 442.054 649.94H186.037C171.687 649.94 160.076 637.416 160.076 621.898V73.5137C160.076 41.9292 171.687 40.3956 186.037 40.3956H237.321C240.297 40.3956 242.798 43.7731 242.798 47.9722V49.7979C242.798 59.6384 248.275 59.6749 254.811 59.6749H373.372C380.035 59.6749 385.366 59.6749 385.366 49.7979V47.9722C385.366 43.7731 387.758 40.3956 390.844 40.3956H441.981C456.295 40.3956 467.906 44.5947 467.906 73.5137L467.979 621.898Z" fill="#263238"/>
<path d="M330.157 47.3694H297.824C297.296 47.3694 296.79 47.1597 296.417 46.7865C296.044 46.4133 295.834 45.9071 295.834 45.3794C295.832 45.1165 295.881 44.8558 295.98 44.6122C296.079 44.3687 296.225 44.1471 296.41 43.9604C296.595 43.7737 296.816 43.6254 297.058 43.5243C297.301 43.4232 297.561 43.3711 297.824 43.3711H330.157C330.421 43.3711 330.682 43.423 330.926 43.524C331.169 43.6249 331.391 43.7728 331.577 43.9593C331.764 44.1458 331.912 44.3672 332.013 44.6108C332.113 44.8545 332.165 45.1156 332.165 45.3794C332.165 45.6422 332.113 45.9025 332.012 46.1451C331.911 46.3878 331.763 46.608 331.576 46.793C331.389 46.978 331.168 47.1242 330.924 47.2232C330.681 47.3221 330.42 47.3718 330.157 47.3694Z" fill="white"/>
<path d="M467.907 73.5121V621.896C467.907 637.414 456.295 649.939 441.982 649.939H186.038C171.688 649.939 160.076 637.414 160.076 621.896V73.5121C160.076 41.9276 171.688 40.394 186.038 40.394H237.321C240.297 40.394 242.798 43.7715 242.798 47.9706V49.7963C242.798 59.5821 248.093 59.5821 254.72 59.5821H373.281C379.945 59.5821 385.276 59.5821 385.276 49.7051V47.8794C385.276 43.6803 387.686 40.3027 390.753 40.3027H441.982C456.295 40.394 467.907 44.5931 467.907 73.5121Z" fill="white"/>
<path d="M467.907 73.5121V114.353H160.076V73.5121C160.076 41.9276 171.688 40.394 186.038 40.394H237.321C240.315 40.394 242.798 43.7715 242.798 47.9706V49.7963C242.798 59.5821 248.111 59.5821 254.702 59.5821H373.263C379.926 59.5821 385.276 59.5821 385.276 49.7051V47.8794C385.276 43.6803 387.686 40.3027 390.753 40.3027H441.982C456.295 40.394 467.907 44.5931 467.907 73.5121Z" fill="#FFC727"/>
<path d="M191.24 94.4537L182.148 85.9277L191.24 77.4199L192.646 78.917L185.161 85.9277L192.646 92.9566L191.24 94.4537Z" fill="white"/>
<path d="M445.852 82.4234C445.852 82.7844 445.745 83.1374 445.544 83.4376C445.343 83.7379 445.058 83.9719 444.725 84.1101C444.391 84.2482 444.024 84.2844 443.67 84.214C443.316 84.1435 442.99 83.9696 442.735 83.7143C442.48 83.459 442.306 83.1337 442.235 82.7795C442.165 82.4254 442.201 82.0583 442.339 81.7247C442.477 81.3911 442.711 81.1059 443.012 80.9053C443.312 80.7047 443.665 80.5977 444.026 80.5977C444.51 80.5977 444.974 80.79 445.317 81.1324C445.659 81.4748 445.852 81.9391 445.852 82.4234Z" fill="white"/>
<path d="M445.852 88.7944C445.852 89.1555 445.745 89.5085 445.544 89.8088C445.343 90.109 445.058 90.343 444.725 90.4812C444.391 90.6194 444.024 90.6555 443.67 90.5851C443.316 90.5146 442.99 90.3407 442.735 90.0854C442.48 89.8301 442.306 89.5048 442.235 89.1506C442.165 88.7965 442.201 88.4294 442.339 88.0958C442.477 87.7622 442.711 87.4771 443.012 87.2764C443.312 87.0758 443.665 86.9688 444.026 86.9688C444.51 86.9688 444.974 87.1611 445.317 87.5035C445.659 87.8459 445.852 88.3102 445.852 88.7944Z" fill="white"/>
<path d="M445.852 95.148C445.852 95.509 445.745 95.862 445.544 96.1623C445.343 96.4625 445.058 96.6965 444.725 96.8347C444.391 96.9729 444.024 97.009 443.67 96.9386C443.316 96.8681 442.99 96.6942 442.735 96.4389C442.48 96.1836 442.306 95.8583 442.235 95.5041C442.165 95.15 442.201 94.7829 442.339 94.4493C442.477 94.1157 442.711 93.8306 443.012 93.6299C443.312 93.4293 443.665 93.3223 444.026 93.3223C444.51 93.3223 444.974 93.5146 445.317 93.857C445.659 94.1994 445.852 94.6638 445.852 95.148Z" fill="white"/>
<path d="M228.466 52.7183L227.955 53.1929L227.681 53.4851C227.057 52.8541 226.313 52.3533 225.494 52.0115C224.674 51.6696 223.795 51.4937 222.907 51.4937C222.019 51.4937 221.14 51.6696 220.321 52.0115C219.501 52.3533 218.758 52.8541 218.133 53.4851L217.859 53.2112L217.366 52.7183L217.987 52.1706C218.43 51.8059 218.914 51.4935 219.429 51.2394C220.039 50.9479 220.683 50.7332 221.346 50.6005L222.314 50.4727H223.154H223.811C224.85 50.6029 225.854 50.9314 226.769 51.4403C227.164 51.6809 227.543 51.9493 227.9 52.2436L228.43 52.7183H228.466Z" fill="white"/>
<path d="M219.703 55.0364L218.918 54.2696C219.442 53.7457 220.064 53.3302 220.748 53.0466C221.433 52.7631 222.166 52.6172 222.907 52.6172C223.648 52.6172 224.382 52.7631 225.066 53.0466C225.75 53.3302 226.372 53.7457 226.896 54.2696L226.111 55.0546C225.692 54.6312 225.193 54.2952 224.643 54.0658C224.093 53.8364 223.503 53.7183 222.907 53.7183C222.311 53.7183 221.721 53.8364 221.171 54.0658C220.621 54.2952 220.122 54.6312 219.703 55.0546V55.0364Z" fill="white"/>
<path d="M225.326 55.8232L224.541 56.6082C224.331 56.3887 224.079 56.2141 223.8 56.0948C223.521 55.9756 223.22 55.9142 222.916 55.9144C222.61 55.9149 222.307 55.9765 222.025 56.0956C221.743 56.2147 221.487 56.389 221.273 56.6082L220.488 55.8232C220.804 55.5024 221.181 55.2478 221.596 55.0739C222.011 54.9001 222.457 54.8105 222.907 54.8105C223.358 54.8105 223.803 54.9001 224.219 55.0739C224.634 55.2478 225.01 55.5024 225.326 55.8232Z" fill="white"/>
<path d="M223.61 57.3014C223.614 57.4437 223.575 57.5839 223.498 57.7037C223.421 57.8236 223.31 57.9176 223.179 57.9738C223.049 58.0299 222.904 58.0455 222.764 58.0186C222.624 57.9918 222.496 57.9236 222.395 57.8229C222.294 57.7222 222.226 57.5937 222.199 57.4539C222.172 57.3141 222.188 57.1695 222.244 57.0387C222.3 56.9078 222.394 56.7968 222.514 56.72C222.634 56.6432 222.774 56.604 222.917 56.6077C223.101 56.6077 223.277 56.6807 223.407 56.8108C223.537 56.941 223.61 57.1174 223.61 57.3014Z" fill="white"/>
<path d="M180.158 54.2154C180.155 53.8102 180.271 53.4131 180.494 53.0744C180.716 52.7358 181.035 52.4708 181.408 52.3133C181.781 52.1557 182.193 52.1126 182.591 52.1894C182.989 52.2663 183.355 52.4595 183.642 52.7448C183.93 53.03 184.127 53.3943 184.207 53.7914C184.287 54.1886 184.248 54.6007 184.094 54.9754C183.94 55.35 183.678 55.6705 183.341 55.896C183.004 56.1215 182.608 56.2419 182.203 56.2419C181.664 56.2419 181.147 56.029 180.764 55.6495C180.381 55.2699 180.163 54.7545 180.158 54.2154Z" fill="white"/>
<path d="M186.585 54.2153C186.581 53.8093 186.699 53.4115 186.922 53.0725C187.145 52.7334 187.464 52.4685 187.839 52.3115C188.213 52.1545 188.626 52.1124 189.024 52.1908C189.423 52.2691 189.789 52.4642 190.076 52.7513C190.363 53.0383 190.558 53.4043 190.636 53.8027C190.714 54.201 190.672 54.6136 190.515 54.988C190.358 55.3624 190.093 55.6815 189.754 55.9048C189.415 56.1281 189.018 56.2454 188.612 56.2418C188.076 56.2371 187.563 56.022 187.184 55.643C186.805 55.264 186.59 54.7513 186.585 54.2153Z" fill="white"/>
<path d="M193.011 54.2153C193.007 53.8093 193.125 53.4115 193.348 53.0725C193.571 52.7334 193.89 52.4685 194.265 52.3115C194.639 52.1545 195.052 52.1124 195.45 52.1908C195.848 52.2691 196.214 52.4642 196.501 52.7513C196.788 53.0383 196.984 53.4043 197.062 53.8027C197.14 54.201 197.098 54.6136 196.941 54.988C196.784 55.3624 196.519 55.6815 196.18 55.9048C195.841 56.1281 195.443 56.2454 195.037 56.2418C194.501 56.2371 193.989 56.022 193.61 55.643C193.231 55.264 193.016 54.7513 193.011 54.2153Z" fill="white"/>
<path d="M199.438 54.2153C199.434 53.8093 199.551 53.4115 199.775 53.0725C199.998 52.7334 200.317 52.4685 200.691 52.3115C201.066 52.1545 201.478 52.1124 201.877 52.1908C202.275 52.2691 202.641 52.4642 202.928 52.7513C203.215 53.0383 203.41 53.4043 203.489 53.8027C203.567 54.201 203.525 54.6136 203.368 54.988C203.211 55.3624 202.946 55.6815 202.607 55.9048C202.268 56.1281 201.87 56.2454 201.464 56.2418C200.928 56.2371 200.415 56.022 200.036 55.643C199.657 55.264 199.442 54.7513 199.438 54.2153Z" fill="white"/>
<path d="M205.864 54.2153C205.861 53.8093 205.978 53.4115 206.201 53.0725C206.425 52.7334 206.744 52.4685 207.118 52.3115C207.493 52.1545 207.905 52.1124 208.303 52.1908C208.702 52.2691 209.068 52.4642 209.355 52.7513C209.642 53.0383 209.837 53.4043 209.915 53.8027C209.994 54.201 209.952 54.6136 209.795 54.988C209.638 55.3624 209.373 55.6815 209.034 55.9048C208.695 56.1281 208.297 56.2454 207.891 56.2418C207.355 56.2371 206.842 56.022 206.463 55.643C206.084 55.264 205.869 54.7513 205.864 54.2153Z" fill="white"/>
<path d="M444.847 58.6889H428.179V50.9297H444.847V58.6889ZM429.019 57.7578H443.861V51.8425H429.019V57.7578Z" fill="white"/>
<path d="M440.284 52.2793H429.585V57.3547H440.284V52.2793Z" fill="white"/>
<path d="M446.308 52.7559H444.829V56.8637H446.308V52.7559Z" fill="white"/>
<path d="M286.122 88.7949C286.165 86.6204 287.059 84.5495 288.612 83.027C290.166 81.5045 292.254 80.6519 294.429 80.6523C296.325 80.6552 298.165 81.2986 299.65 82.478C299.902 82.695 300.061 83.0004 300.095 83.3313C300.128 83.6621 300.032 83.993 299.828 84.2556C299.625 84.5182 299.327 84.6924 298.999 84.7421C298.67 84.7918 298.335 84.7133 298.062 84.5228C297.027 83.6956 295.735 83.2565 294.411 83.2813C292.889 83.2911 291.427 83.8784 290.321 84.9245C289.794 85.4351 289.375 86.0466 289.088 86.7224C288.802 87.3983 288.654 88.1248 288.654 88.8588C288.654 89.5929 288.802 90.3194 289.088 90.9953C289.375 91.6711 289.794 92.2826 290.321 92.7932C291.429 93.8342 292.891 94.4151 294.411 94.4181C295.736 94.4445 297.028 94.0052 298.062 93.1766C298.344 92.9843 298.687 92.9039 299.024 92.9511C299.362 92.9984 299.67 93.17 299.888 93.4322C300.097 93.7048 300.192 94.0485 300.151 94.3897C300.11 94.731 299.937 95.0426 299.669 95.2579C298.184 96.4374 296.344 97.0807 294.447 97.0836C293.356 97.0884 292.274 96.8776 291.264 96.4632C290.254 96.0488 289.336 95.439 288.563 94.6688C287.789 93.8987 287.175 92.9833 286.756 91.9753C286.338 90.9673 286.122 89.8865 286.122 88.7949Z" fill="white"/>
<path d="M304.27 95.6778V82.332C304.27 81.9979 304.402 81.6775 304.639 81.4412C304.875 81.205 305.195 81.0723 305.529 81.0723C305.863 81.0723 306.184 81.205 306.42 81.4412C306.656 81.6775 306.789 81.9979 306.789 82.332V87.8091H312.649V82.332C312.647 82.1683 312.677 82.0057 312.739 81.854C312.8 81.7023 312.892 81.5644 313.008 81.4487C313.123 81.3329 313.261 81.2415 313.413 81.18C313.565 81.1185 313.727 81.0881 313.891 81.0905C314.056 81.0881 314.221 81.1183 314.374 81.1794C314.528 81.2405 314.668 81.3313 314.787 81.4466C314.906 81.5618 315.001 81.6994 315.066 81.8513C315.132 82.0032 315.167 82.1666 315.169 82.332V95.6778C315.169 95.8448 315.136 96.0101 315.071 96.1642C315.007 96.3182 314.912 96.4579 314.794 96.5751C314.675 96.6923 314.534 96.7847 314.379 96.847C314.224 96.9092 314.058 96.94 313.891 96.9376C313.726 96.9376 313.563 96.9049 313.412 96.8413C313.26 96.7778 313.122 96.6847 313.007 96.5675C312.891 96.4503 312.8 96.3113 312.739 96.1585C312.677 96.0058 312.647 95.8424 312.649 95.6778V90.2007H306.789V95.6778C306.789 96.0119 306.656 96.3323 306.42 96.5686C306.184 96.8048 305.863 96.9376 305.529 96.9376C305.195 96.9376 304.875 96.8048 304.639 96.5686C304.402 96.3323 304.27 96.0119 304.27 95.6778Z" fill="white"/>
<path d="M326.944 93.1947H321.467L320.335 96.0975C320.24 96.3347 320.076 96.538 319.865 96.6812C319.653 96.8244 319.404 96.9009 319.148 96.9009C319.009 96.9199 318.868 96.9199 318.729 96.9009C318.416 96.7818 318.162 96.545 318.023 96.2412C317.883 95.9374 317.867 95.5909 317.98 95.276L322.982 81.9301C323.079 81.692 323.246 81.4891 323.462 81.3488C323.677 81.2085 323.93 81.1374 324.187 81.1451C324.442 81.1385 324.692 81.2103 324.904 81.3507C325.117 81.4912 325.281 81.6934 325.374 81.9301L330.431 95.2395C330.544 95.5544 330.529 95.9009 330.389 96.2047C330.249 96.5085 329.995 96.7453 329.683 96.8643C329.543 96.8848 329.402 96.8848 329.263 96.8643C329.011 96.8673 328.765 96.7914 328.559 96.6473C328.352 96.5033 328.196 96.2983 328.113 96.061L326.944 93.1947ZM326.013 90.7118L324.187 85.8371L322.362 90.7118H326.013Z" fill="white"/>
<path d="M340.911 83.5912H337.26V95.6773C337.26 96.0065 337.129 96.3223 336.896 96.5551C336.663 96.788 336.347 96.9188 336.018 96.9188C335.689 96.9188 335.373 96.788 335.14 96.5551C334.908 96.3223 334.777 96.0065 334.777 95.6773V83.5912H331.125C330.961 83.5912 330.798 83.5585 330.646 83.495C330.494 83.4314 330.357 83.3384 330.241 83.2211C330.125 83.1039 330.034 82.9649 329.973 82.8122C329.912 82.6594 329.882 82.496 329.884 82.3315C329.881 82.1677 329.912 82.0052 329.973 81.8535C330.035 81.7017 330.126 81.5639 330.242 81.4481C330.358 81.3323 330.496 81.241 330.647 81.1795C330.799 81.118 330.962 81.0875 331.125 81.09H340.783C340.946 81.09 341.108 81.1221 341.258 81.1845C341.409 81.2469 341.546 81.3383 341.661 81.4536C341.776 81.5689 341.868 81.7057 341.93 81.8564C341.993 82.007 342.025 82.1684 342.025 82.3315C342.023 82.6406 341.909 82.9386 341.704 83.1703C341.5 83.4019 341.218 83.5514 340.911 83.5912Z" fill="white"/>
</g>
</svg>
