<svg width="77" height="32" viewBox="0 0 77 32" fill="none" xmlns="http://www.w3.org/2000/svg">
<path d="M76.6934 30C76.6934 31.1046 75.7979 32 74.6934 32L22.8216 32C21.6974 32 20.7941 31.0737 20.8222 29.9499C20.8494 28.8652 21.7365 28 22.8216 28L74.6934 28C75.7979 28 76.6934 28.8954 76.6934 30Z" fill="#F59C04"/>
<path d="M76.6934 2C76.6934 3.10457 75.7979 4 74.6934 4L22.8216 4C21.6974 4 20.7941 3.07374 20.8222 1.94991C20.8494 0.865196 21.7365 4.80448e-06 22.8216 4.70962e-06L74.6934 1.74846e-07C75.7979 7.82811e-08 76.6934 0.895431 76.6934 2Z" fill="#F59C04"/>
<path d="M76.6934 23C76.6934 24.1046 75.7979 25 74.6934 25L11.6474 25C10.5193 25 9.61439 24.0675 9.64829 22.9399C9.68078 21.8592 10.5662 21 11.6474 21L74.6934 21C75.7979 21 76.6934 21.8954 76.6934 23Z" fill="#F59C04"/>
<path d="M76.6934 9C76.6934 10.1046 75.7979 11 74.6934 11L11.6474 11C10.5193 11 9.61439 10.0675 9.64829 8.9399C9.68078 7.85922 10.5662 7.00001 11.6474 7.00001L74.6934 7C75.7979 7 76.6934 7.89543 76.6934 9Z" fill="#F59C04"/>
<path d="M76.6934 16C76.6934 17.1046 75.7979 18 74.6934 18L2.06953 18C0.938034 18 0.0318526 17.0622 0.070709 15.9313C0.107727 14.8541 0.991691 14 2.06953 14L74.6934 14C75.7979 14 76.6934 14.8954 76.6934 16Z" fill="#F59C04"/>
</svg>
