<svg width="303" height="335" viewBox="0 0 303 335" fill="none" xmlns="http://www.w3.org/2000/svg">
<path d="M280.148 87.8675V149.853H130.766V94.9706H143.724V110.705H147.061V101.8H163.539V115.908H165.72V82.7979H180.045V91.8854H187.387V103.196H189.61V96.0785H202.631V117.304H206.438V100.054H218.345V86.949H226.443V79.4883H235.811V112.585H238.96V98.7711H254.393V118.545H256.525V102.403H272.168V87.8675H280.148Z" fill="#EBEBEB"/>
<path d="M134.552 99.9549H132.357V96.9468H134.552V99.9549ZM138.353 96.9468H136.158V99.9549H138.353V96.9468ZM142.153 96.9468H139.958V99.9549H142.153V96.9468ZM134.552 101.477H132.357V104.485H134.552V101.477ZM138.353 101.477H136.158V104.485H138.353V101.477ZM142.153 101.477H139.958V104.485H142.153V101.477ZM134.552 106.006H132.357V109.014H134.552V106.006ZM138.353 106.006H136.158V109.014H138.353V106.006ZM142.153 106.006H139.958V109.014H142.153V106.006ZM134.552 110.529H132.357V113.537H134.552V110.529ZM138.353 110.529H136.158V113.537H138.353V110.529ZM142.153 110.529H139.958V113.537H142.153V110.529ZM210.463 102.199H208.269V104.709H210.463V102.199ZM214.264 102.199H212.069V104.709H214.236L214.264 102.199ZM218.064 102.199H215.87V104.709H218.064V102.199ZM210.463 105.978H208.269V108.488H210.463V105.978ZM214.264 105.978H212.069V108.488H214.236L214.264 105.978ZM218.064 105.978H215.87V108.488H218.064V105.978ZM210.463 109.758H208.269V112.268H210.463V109.758ZM214.264 109.758H212.069V112.268H214.236L214.264 109.758ZM218.064 109.758H215.87V112.268H218.064V109.758ZM210.463 113.53H208.269V116.026H210.463V113.53ZM214.264 113.53H212.069V116.026H214.236L214.264 113.53ZM218.064 113.53H215.87V116.026H218.064V113.53ZM210.463 117.429H208.269V119.939H210.463V117.429ZM214.264 117.429H212.069V119.939H214.236L214.264 117.429ZM218.064 117.429H215.87V119.939H218.064V117.429ZM210.463 121.299H208.269V123.81H210.463V121.299ZM214.264 121.299H212.069V123.81H214.236L214.264 121.299ZM218.064 121.299H215.87V123.81H218.064V121.299ZM210.463 125.142H208.269V127.652H210.463V125.142ZM214.264 125.142H212.069V127.652H214.236L214.264 125.142ZM218.064 125.142H215.87V127.652H218.064V125.142ZM210.463 129.012H208.269V131.523H210.463V129.012ZM214.264 129.012H212.069V131.523H214.236L214.264 129.012ZM218.064 129.012H215.87V131.523H218.064V129.012ZM161.555 103.727H148.934V105.607H161.555V103.727ZM161.555 107.381H148.934V109.26H161.555V107.381ZM161.555 111.027H148.934V112.913H161.555V111.027ZM161.555 114.68H148.934V116.566H161.555V114.68ZM161.555 118.333H148.934V120.233H161.555V118.333ZM161.555 121.986H148.934V123.866H161.555V121.986ZM161.555 125.633H148.934V127.519H161.555V125.633ZM161.555 129.286H148.934V131.172H161.555V129.286ZM252.43 100.537H240.825V102.423H252.43V100.537ZM252.43 104.19H240.825V106.076H252.43V104.19ZM252.43 107.843H240.825V109.716H252.43V107.843ZM252.43 111.497H240.825V113.376H252.43V111.497ZM252.43 115.143H240.825V117.029H252.43V115.143ZM252.43 118.796H240.825V120.675H252.43V118.796ZM252.43 122.449H240.825V124.328H252.43V122.449ZM252.43 126.102H240.825V127.947H252.43V126.102ZM252.43 129.566H240.825V131.453H252.43V129.566ZM252.43 133.072H240.825V134.959H252.43V133.072ZM252.43 136.543H240.825V138.422H252.43V136.543ZM252.43 140.014H240.825V141.893H252.43V140.014ZM252.43 143.52H240.825V145.399H252.43V143.52ZM271.194 105.018H258.937V106.904H271.194V105.018ZM271.194 108.671H258.937V110.557H271.194V108.671ZM271.194 112.324H258.937V114.203H271.194V112.324ZM271.194 115.977H258.937V117.856H271.194V115.977ZM271.194 119.623H258.937V121.51H271.194V119.623ZM271.194 123.277H258.937V125.156H271.194V123.277ZM271.194 126.93H258.937V128.809H271.194V126.93ZM271.194 130.583H258.937V132.462H271.194V130.583ZM271.194 133.851H258.937V135.66H271.194V133.851ZM271.194 137.118H258.937V138.997H271.194V137.118ZM271.194 140.386H258.937V142.265H271.194V140.386ZM197.316 97.7953H193.417V99.6184H197.316V97.7953ZM197.316 101.301H193.417V103.124H197.316V101.301ZM197.316 104.807H193.417V106.623H197.316V104.807ZM197.316 108.313H193.417V110.129H197.316V108.313ZM197.316 111.819H193.417V113.635H197.316V111.819ZM197.316 115.325H193.417V117.141H197.316V115.325ZM197.316 118.831H193.417V120.647H197.316V118.831ZM197.316 122.337H193.417V124.153H197.316V122.337ZM202.624 97.7953H198.725V99.6184H202.624V97.7953ZM202.624 101.301H198.725V103.124H202.624V101.301ZM202.624 104.807H198.725V106.623H202.624V104.807ZM202.624 108.313H198.725V110.129H202.624V108.313ZM202.624 111.819H198.725V113.635H202.624V111.819ZM202.624 115.325H198.725V117.141H202.624V115.325ZM202.624 118.831H198.725V120.647H202.624V118.831ZM202.624 122.337H198.725V124.153H202.624V122.337ZM171.954 84.704H167.894V87.5719H171.954V84.704ZM178.012 84.704H173.952V87.5719H178.012V84.704ZM171.954 88.9112H167.894V91.779H171.954V88.9112ZM178.012 88.9112H173.952V91.779H178.012V88.9112ZM171.954 93.1183H167.894V95.9792H171.954V93.1183ZM178.012 93.1183H173.952V95.9792H178.012V93.1183ZM171.954 97.3255H167.894V100.193H171.954V97.3255ZM178.012 97.3255H173.952V100.193H178.012V97.3255ZM171.954 101.533H167.894V104.401H171.954V101.533ZM178.012 101.533H173.952V104.401H178.012V101.533ZM171.954 105.74H167.894V108.608H171.954V105.74ZM178.012 105.74H173.952V108.608H178.012V105.74ZM171.954 109.947H167.894V112.815H171.954V109.947ZM178.012 109.947H173.952V112.815H178.012V109.947ZM171.954 114.154H167.894V117.015H171.954V114.154ZM178.012 114.154H173.952V117.015H178.012V114.154ZM185.515 93.1183H181.455V95.9792H185.487L185.515 93.1183ZM185.515 97.3255H181.455V100.193H185.487L185.515 97.3255ZM185.515 101.533H181.455V104.401H185.487L185.515 101.533ZM185.515 105.74H181.455V108.608H185.487L185.515 105.74ZM185.515 109.947H181.455V112.815H185.487L185.515 109.947ZM185.515 114.154H181.455V117.015H185.487L185.515 114.154ZM171.954 118.312H167.894V121.18H171.954V118.312ZM178.012 118.312H173.952V121.18H178.012V118.312ZM185.515 118.312H181.455V121.18H185.487L185.515 118.312ZM171.954 122.47H167.894V125.338H171.954V122.47ZM178.012 122.47H173.952V125.338H178.012V122.47ZM185.515 122.47H181.455V125.338H185.487L185.515 122.47ZM171.954 126.628H167.894V129.496H171.954V126.628ZM178.012 126.628H173.952V129.496H178.012V126.628ZM185.515 126.628H181.455V129.496H185.487L185.515 126.628ZM171.954 130.793H167.894V133.654H171.954V130.793ZM178.012 130.793H173.952V133.654H178.012V130.793ZM185.515 130.793H181.455V133.654H185.487L185.515 130.793ZM171.954 134.959H167.894V137.826H171.954V134.959ZM178.012 134.959H173.952V137.826H178.012V134.959ZM185.515 134.959H181.455V137.826H185.487L185.515 134.959ZM222.194 88.7779H220V91.2882H222.194V88.7779ZM225.995 88.7779H223.8V91.2882H225.995V88.7779ZM222.194 92.5574H220V95.0676H222.194V92.5574ZM225.995 92.5574H223.8V95.0676H225.995V92.5574ZM222.194 96.3298H220V98.8471H222.194V96.3298ZM225.995 96.3298H223.8V98.8471H225.995V96.3298ZM222.194 100.109H220V102.619H222.194V100.109ZM225.995 100.109H223.8V102.619H225.995V100.109ZM222.194 103.98H220V106.49H222.194V103.98ZM225.995 103.98H223.8V106.49H225.995V103.98ZM222.194 107.85H220V110.361H222.194V107.85ZM225.995 107.85H223.8V110.361H225.995V107.85ZM222.194 111.721H220V114.231H222.194V111.721ZM225.995 111.721H223.8V114.231H225.995V111.721ZM222.194 115.592H220V118.13H222.194V115.592ZM225.995 115.592H223.8V118.13H225.995V115.592ZM222.194 119.532H220V122.043H222.194V119.532ZM225.995 119.532H223.8V122.043H225.995V119.532ZM222.194 123.445H220V125.955H222.194V123.445ZM225.995 123.445H223.8V125.955H225.995V123.445ZM222.194 127.358H220V129.868H222.194V127.358ZM225.995 127.358H223.8V129.868H225.995V127.358ZM222.194 131.27H220V133.781H222.194V131.27ZM225.995 131.27H223.8V133.781H225.995V131.27ZM275.737 89.1986H273.543V92.1857H275.737V89.1986ZM279.538 89.1986H277.343V92.1857H279.538V89.1986ZM275.737 93.6512H273.543V96.6103H275.737V93.6512ZM279.538 93.6512H277.343V96.6103H279.538V93.6512ZM275.737 98.1038H273.543V101.056H275.737V98.1038ZM279.538 98.1038H277.343V101.056H279.538V98.1038ZM275.737 102.549H273.543V105.508H275.737V102.549ZM279.538 102.549H277.343V105.508H279.538V102.549ZM275.737 107.114H273.543V110.066H275.737V107.114ZM279.538 107.114H277.343V110.066H279.538V107.114ZM275.737 111.672H273.543V114.624H275.737V111.672ZM279.538 111.672H277.343V114.624H279.538V111.672ZM275.737 116.23H273.543V119.189H275.737V116.23ZM279.538 116.23H277.343V119.189H279.538V116.23ZM275.737 120.787H273.543V123.739H275.737V120.787ZM279.538 120.787H277.343V123.739H279.538V120.787ZM275.737 125.401H273.543V128.353H275.737V125.401ZM279.538 125.401H277.343V128.353H279.538V125.401ZM275.737 130.008H273.543V132.967H275.737V130.008ZM279.538 130.008H277.343V132.967H279.538V130.008ZM275.737 134.615H273.543V137.574H275.737V134.615ZM279.538 134.615H277.343V137.574H279.538V134.615ZM275.737 139.222H273.543V142.181H275.737V139.222ZM279.538 139.222H277.343V142.181H279.538V139.222ZM230.321 88.792H228.126V91.3022H230.321V88.792ZM234.122 88.792H231.927V91.3022H234.122V88.792ZM230.321 84.9214H228.126V87.4316H230.321V84.9214ZM234.122 84.9214H231.927V87.4316H234.122V84.9214ZM230.321 81.0508H228.126V83.561H230.321V81.0508ZM234.122 81.0508H231.927V83.561H234.122V81.0508ZM230.321 92.5714H228.126V95.0817H230.321V92.5714ZM234.122 92.5714H231.927V95.0817H234.122V92.5714ZM230.321 96.3438H228.126V98.8611H230.321V96.3438ZM234.122 96.3438H231.927V98.8611H234.122V96.3438ZM230.321 100.123H228.126V102.633H230.321V100.123ZM234.122 100.123H231.927V102.633H234.122V100.123ZM230.321 103.994H228.126V106.504H230.321V103.994ZM234.122 103.994H231.927V106.504H234.122V103.994ZM230.321 107.864H228.126V110.375H230.321V107.864ZM234.122 107.864H231.927V110.375H234.122V107.864ZM230.321 111.735H228.126V114.245H230.321V111.735ZM234.122 111.735H231.927V114.245H234.122V111.735ZM230.321 115.606H228.126V118.13H230.321V115.606ZM234.122 115.606H231.927V118.13H234.122V115.606ZM230.321 119.532H228.126V122.043H230.321V119.532ZM234.122 119.532H231.927V122.043H234.122V119.532ZM230.321 123.445H228.126V125.955H230.321V123.445ZM234.122 123.445H231.927V125.955H234.122V123.445ZM230.321 127.358H228.126V129.868H230.321V127.358ZM234.122 127.358H231.927V129.868H234.122V127.358ZM230.321 131.27H228.126V133.781H230.321V131.27ZM234.122 131.27H231.927V133.781H234.122V131.27Z" fill="white"/>
<path d="M130.765 149.852H22.5713V94.9696H35.5293V110.704H38.867V101.799H55.3451V115.907H57.5258V82.7969H71.8441V91.8843H79.1926V103.195H81.4154V96.0775H94.4366V117.303H98.237V100.053H110.15V86.9479H118.242L127.61 86.99V112.584H130.765V149.852Z" fill="#EBEBEB"/>
<path d="M26.351 99.956H24.1562V96.9479H26.351V99.956ZM30.1515 96.9479H27.9567V99.956H30.1515V96.9479ZM33.9519 96.9479H31.7572V99.956H33.9519V96.9479ZM26.351 101.478H24.1562V104.486H26.351V101.478ZM30.1515 101.478H27.9567V104.486H30.1515V101.478ZM33.9519 101.478H31.7572V104.486H33.9519V101.478ZM26.351 106.007H24.1562V109.015H26.351V106.007ZM30.1515 106.007H27.9567V109.015H30.1515V106.007ZM33.9519 106.007H31.7572V109.015H33.9519V106.007ZM26.351 110.53H24.1562V113.538H26.351V110.53ZM30.1515 110.53H27.9567V113.538H30.1515V110.53ZM33.9519 110.53H31.7572V113.538H33.9519V110.53ZM102.262 102.2H100.067V104.71H102.262V102.2ZM106.063 102.2H103.868V104.71H106.063V102.2ZM109.863 102.2H107.654V104.71H109.849L109.863 102.2ZM102.262 105.979H100.067V108.49H102.262V105.979ZM106.063 105.979H103.868V108.49H106.063V105.979ZM109.863 105.979H107.654V108.49H109.849L109.863 105.979ZM102.262 109.759H100.067V112.269H102.262V109.759ZM106.063 109.759H103.868V112.269H106.063V109.759ZM109.863 109.759H107.654V112.269H109.849L109.863 109.759ZM102.262 113.531H100.067V116.027H102.262V113.531ZM106.063 113.531H103.868V116.027H106.063V113.531ZM109.863 113.531H107.654V116.027H109.849L109.863 113.531ZM102.262 117.43H100.067V119.94H102.262V117.43ZM106.063 117.43H103.868V119.94H106.063V117.43ZM109.863 117.43H107.654V119.94H109.849L109.863 117.43ZM102.262 121.3H100.067V123.811H102.262V121.3ZM106.063 121.3H103.868V123.811H106.063V121.3ZM109.863 121.3H107.654V123.811H109.849L109.863 121.3ZM102.262 125.143H100.067V127.653H102.262V125.143ZM106.063 125.143H103.868V127.653H106.063V125.143ZM109.863 125.143H107.654V127.653H109.849L109.863 125.143ZM102.262 129.013H100.067V131.524H102.262V129.013ZM106.063 129.013H103.868V131.524H106.063V129.013ZM109.863 129.013H107.654V131.524H109.849L109.863 129.013ZM53.3609 103.728H40.7395V105.608H53.3609V103.728ZM53.3609 107.382H40.7395V109.261H53.3609V107.382ZM53.3609 111.028H40.7395V112.914H53.3609V111.028ZM53.3609 114.681H40.7395V116.567H53.3609V114.681ZM53.3609 118.334H40.7395V120.235H53.3609V118.334ZM53.3609 121.988H40.7395V123.867H53.3609V121.988ZM53.3609 125.634H40.7395V127.52H53.3609V125.634ZM53.3609 129.287H40.7395V131.173H53.3609V129.287ZM89.1218 97.7823H85.2162V99.6054H89.1148L89.1218 97.7823ZM89.1218 101.288H85.2162V103.111H89.1148L89.1218 101.288ZM89.1218 104.794H85.2162V106.61H89.1148L89.1218 104.794ZM89.1218 108.3H85.2162V110.116H89.1148L89.1218 108.3ZM89.1218 111.806H85.2162V113.622H89.1148L89.1218 111.806ZM89.1218 115.312H85.2162V117.128H89.1148L89.1218 115.312ZM89.1218 118.818H85.2162V120.634H89.1148L89.1218 118.818ZM89.1218 122.324H85.2162V124.14H89.1148L89.1218 122.324ZM94.4228 97.7964H90.5242V99.6195H94.4228V97.7964ZM94.4228 101.302H90.5242V103.125H94.4228V101.302ZM94.4228 104.808H90.5242V106.624H94.4228V104.808ZM94.4228 108.314H90.5242V110.13H94.4228V108.314ZM94.4228 111.82H90.5242V113.636H94.4228V111.82ZM94.4228 115.326H90.5242V117.142H94.4228V115.326ZM94.4228 118.832H90.5242V120.648H94.4228V118.832ZM94.4228 122.338H90.5242V124.154H94.4228V122.338ZM63.7596 84.7051H59.6997V87.573H63.7596V84.7051ZM69.8109 84.7051H65.751V87.573H69.7899L69.8109 84.7051ZM63.7596 88.9122H59.6997V91.7801H63.7596V88.9122ZM69.8109 88.9122H65.751V91.7801H69.7899L69.8109 88.9122ZM63.7596 93.1194H59.6997V95.9803H63.7596V93.1194ZM69.8109 93.1194H65.751V95.9803H69.7899L69.8109 93.1194ZM63.7596 97.3266H59.6997V100.194H63.7596V97.3266ZM69.8109 97.3266H65.751V100.194H69.7899L69.8109 97.3266ZM63.7596 101.534H59.6997V104.402H63.7596V101.534ZM69.8109 101.534H65.751V104.402H69.7899L69.8109 101.534ZM63.7596 105.741H59.6997V108.609H63.7596V105.741ZM69.8109 105.741H65.751V108.609H69.7899L69.8109 105.741ZM63.7596 109.948H59.6997V112.816H63.7596V109.948ZM69.8109 109.948H65.751V112.816H69.7899L69.8109 109.948ZM63.7596 114.155H59.6997V117.016H63.7596V114.155ZM69.8109 114.155H65.751V117.016H69.7899L69.8109 114.155ZM77.3137 93.1194H73.2538V95.9803H77.3137V93.1194ZM77.3137 97.3266H73.2538V100.194H77.3137V97.3266ZM77.3137 101.534H73.2538V104.402H77.3137V101.534ZM77.3137 105.741H73.2538V108.609H77.3137V105.741ZM77.3137 109.948H73.2538V112.816H77.3137V109.948ZM77.3137 114.155H73.2538V117.016H77.3137V114.155ZM63.7596 118.313H59.6997V121.181H63.7596V118.313ZM69.8109 118.313H65.751V121.181H69.7899L69.8109 118.313ZM77.3137 118.313H73.2538V121.181H77.3137V118.313ZM63.7596 122.471H59.6997V125.339H63.7596V122.471ZM69.8109 122.471H65.751V125.339H69.7899L69.8109 122.471ZM77.3137 122.471H73.2538V125.339H77.3137V122.471ZM63.7596 126.629H59.6997V129.497H63.7596V126.629ZM69.8109 126.629H65.751V129.497H69.7899L69.8109 126.629ZM77.3137 126.629H73.2538V129.497H77.3137V126.629ZM63.7596 130.794H59.6997V133.655H63.7596V130.794ZM69.8109 130.794H65.751V133.655H69.7899L69.8109 130.794ZM77.3137 130.794H73.2538V133.655H77.3137V130.794ZM63.7596 134.96H59.6997V137.827H63.7596V134.96ZM69.8109 134.96H65.751V137.827H69.7899L69.8109 134.96ZM77.3137 134.96H73.2538V137.827H77.3137V134.96ZM113.965 88.793H111.777V91.3033H113.965V88.793ZM117.766 88.793H115.578V91.3033H117.766V88.793ZM113.965 92.5725H111.777V95.0827H113.965V92.5725ZM117.766 92.5725H115.578V95.0827H117.766V92.5725ZM113.965 96.3449H111.777V98.8622H113.965V96.3449ZM117.766 96.3449H115.578V98.8622H117.766V96.3449ZM113.965 100.124H111.777V102.635H113.965V100.124ZM117.766 100.124H115.578V102.635H117.766V100.124ZM113.965 103.995H111.777V106.505H113.965V103.995ZM117.766 103.995H115.578V106.505H117.766V103.995ZM113.965 107.865H111.777V110.376H113.965V107.865ZM117.766 107.865H115.578V110.376H117.766V107.865ZM113.965 111.736H111.777V114.246H113.965V111.736ZM117.766 111.736H115.578V114.246H117.766V111.736ZM113.965 115.607H111.777V118.131H113.965V115.607ZM117.766 115.607H115.578V118.131H117.766V115.607ZM113.965 119.533H111.777V122.044H113.965V119.533ZM117.766 119.533H115.578V122.044H117.766V119.533ZM113.965 123.432H111.777V125.942H113.965V123.432ZM117.766 123.432H115.578V125.942H117.766V123.432ZM113.965 127.345H111.777V129.855H113.965V127.345ZM117.766 127.345H115.578V129.855H117.766V127.345ZM113.965 131.257H111.777V133.768H113.965V131.257ZM117.766 131.257H115.578V133.768H117.766V131.257ZM122.092 88.793H119.904V91.3033H122.092V88.793ZM125.892 88.793H123.705V91.3033H125.892V88.793ZM122.092 92.5725H119.904V95.0827H122.092V92.5725ZM125.892 92.5725H123.705V95.0827H125.892V92.5725ZM122.092 96.3449H119.904V98.8622H122.092V96.3449ZM125.892 96.3449H123.705V98.8622H125.892V96.3449ZM122.092 100.124H119.904V102.635H122.092V100.124ZM125.892 100.124H123.705V102.635H125.892V100.124ZM122.092 103.995H119.904V106.505H122.092V103.995ZM125.892 103.995H123.705V106.505H125.892V103.995ZM122.092 107.865H119.904V110.376H122.092V107.865ZM125.892 107.865H123.705V110.376H125.892V107.865ZM122.092 111.736H119.904V114.246H122.092V111.736ZM125.892 111.736H123.705V114.246H125.892V111.736ZM122.092 115.607H119.904V118.131H122.092V115.607ZM125.892 115.607H123.705V118.131H125.892V115.607ZM122.12 119.533H119.932V122.044H122.12V119.533ZM125.92 119.533H123.733V122.044H125.92V119.533ZM122.12 123.446H119.932V125.956H122.12V123.446ZM125.92 123.446H123.733V125.956H125.92V123.446ZM122.12 127.359H119.932V129.869H122.12V127.359ZM125.92 127.359H123.733V129.869H125.92V127.359ZM122.12 131.271H119.932V133.782H122.12V131.271ZM125.92 131.271H123.733V133.782H125.92V131.271Z" fill="white"/>
<path d="M281.48 151.184H20.7764V65.9824H281.48V151.184ZM23.4409 148.527H278.822V68.6399H23.4339L23.4409 148.527Z" fill="#DBDBDB"/>
<path d="M152.46 68.6406H149.803V148.521H152.46V68.6406Z" fill="#DBDBDB"/>
<path d="M74.1438 222.545L72.4679 232.607L61.1016 293.982H59.2715L67.5385 232.607L68.7586 222.545H74.1438Z" fill="#DBDBDB"/>
<path d="M68.7591 222.545H74.1443L72.4685 232.607H67.5391L68.7591 222.545Z" fill="#C7C7C7"/>
<path d="M109.842 293.982H108.005L96.6387 232.607L94.9629 222.545H100.355L101.575 232.607L109.842 293.982Z" fill="#DBDBDB"/>
<path d="M100.355 222.545L101.575 232.607H96.6387L94.9629 222.545H100.355Z" fill="#C7C7C7"/>
<path d="M143.927 293.982H142.097L130.731 232.607L129.055 222.545H134.447L135.667 232.607L143.927 293.982Z" fill="#DBDBDB"/>
<path d="M135.667 232.607H130.731L129.055 222.545H134.447L135.667 232.607Z" fill="#C7C7C7"/>
<path d="M141.024 227.271H57.7432V220.519L88.9182 218.5L99.394 158.057H137.847L141.024 227.271Z" fill="#DBDBDB"/>
<path d="M141.024 227.271H136.487L133.528 158.057H137.848L141.024 227.271Z" fill="#C7C7C7"/>
<path d="M92.1582 0.330078H91.457V36.6799H92.1582V0.330078Z" fill="#C7C7C7"/>
<path d="M94.2825 33.8828H89.332V39.2399H94.2825V33.8828Z" fill="#DBDBDB"/>
<path d="M101.939 56.3482H81.71C82.1167 48.6351 85.7909 36.2871 91.8422 36.2871C97.8935 36.2871 101.533 48.6351 101.939 56.3482Z" fill="#DBDBDB"/>
<path d="M131.705 0.330078H131.004V36.6799H131.705V0.330078Z" fill="#C7C7C7"/>
<path d="M133.829 33.8828H128.879V39.2399H133.829V33.8828Z" fill="#DBDBDB"/>
<path d="M141.487 56.3482H121.223C121.629 48.6351 125.311 36.2871 131.355 36.2871C137.399 36.2871 141.08 48.6351 141.487 56.3482Z" fill="#DBDBDB"/>
<path d="M171.252 0.330078H170.551V36.6799H171.252V0.330078Z" fill="#C7C7C7"/>
<path d="M173.377 33.8828H168.427V39.2399H173.377V33.8828Z" fill="#DBDBDB"/>
<path d="M181.034 56.3482H160.77C161.183 48.6351 164.857 36.2871 170.902 36.2871C176.946 36.2871 180.627 48.6351 181.034 56.3482Z" fill="#DBDBDB"/>
<path d="M210.8 0.330078H210.099V36.6799H210.8V0.330078Z" fill="#C7C7C7"/>
<path d="M212.924 33.8828H207.974V39.2399H212.924V33.8828Z" fill="#DBDBDB"/>
<path d="M220.581 56.3482H200.316C200.73 48.6351 204.404 36.2871 210.449 36.2871C216.493 36.2871 220.174 48.6351 220.581 56.3482Z" fill="#DBDBDB"/>
<path d="M154.991 334.231C204.947 334.231 245.445 328.405 245.445 321.217C245.445 314.03 204.947 308.203 154.991 308.203C105.035 308.203 64.5371 314.03 64.5371 321.217C64.5371 328.405 105.035 334.231 154.991 334.231Z" fill="#EBEBEB"/>
<path d="M41.1036 321.61C62.8095 321.61 80.4055 318.242 80.4055 314.086C80.4055 309.931 62.8095 306.562 41.1036 306.562C19.3978 306.562 1.80176 309.931 1.80176 314.086C1.80176 318.242 19.3978 321.61 41.1036 321.61Z" fill="#EBEBEB"/>
<path d="M0 293.982L37.7803 293.814L75.5606 293.751L151.128 293.639L226.696 293.751L264.476 293.814L302.256 293.982L264.476 294.158L226.696 294.221L151.128 294.333L75.5606 294.221L37.7803 294.158L0 293.982Z" fill="#263238"/>
<path d="M255.319 187.324H193.445V300.995H255.319V187.324Z" fill="#455A64"/>
<path d="M255.319 187.324H193.445V194.736H255.319V187.324Z" fill="#263238"/>
<path d="M281.88 181.35H20.3701V187.331H281.88V181.35Z" fill="#455A64"/>
<path d="M33.5669 187.324L33.3706 194.736L30.7622 300.995H26.0361V187.324H33.5669Z" fill="#455A64"/>
<path d="M26.0361 187.324H33.5669L33.3706 194.736H26.0361V187.324Z" fill="#263238"/>
<path d="M276.285 187.324H255.319V300.995H276.285V187.324Z" fill="#37474F"/>
<path d="M276.285 187.324H255.319V194.736H276.285V187.324Z" fill="#263238"/>
<path d="M269.608 181.239H240.803L235.769 160.336H264.574L269.608 181.239Z" fill="#A6A6A6"/>
<path d="M230.657 181.239H259.455L264.49 160.336H235.685L230.657 181.239Z" fill="#EBEBEB"/>
<path d="M261.033 163.141L260.332 166.065L260.29 166.24L259.589 169.276L259.547 169.458L258.846 172.488L258.804 172.67L258.102 175.706L258.06 175.888L257.359 178.861H234.22L234.921 175.888L234.963 175.706L235.664 172.67L235.713 172.488L236.414 169.458L236.457 169.276L237.158 166.24L237.207 166.065L237.908 163.141H261.033ZM241.091 163.141L240.39 166.065L240.348 166.24L239.647 169.276L239.605 169.458L238.904 172.488L238.862 172.67L238.16 175.706L238.118 175.888L237.417 178.861H237.606L238.308 175.888L238.35 175.706L239.051 172.67L239.093 172.488L239.794 169.458L239.836 169.276L240.537 166.24L240.58 166.065L241.281 163.141H241.091ZM244.387 163.141L243.686 166.065L243.644 166.24L242.943 169.276L242.901 169.458L242.199 172.488L242.157 172.67L241.456 175.706L241.414 175.888L240.713 178.861H240.902L241.603 175.888L241.652 175.706L242.354 172.67L242.396 172.488L243.097 169.458L243.146 169.276L243.847 166.24L243.889 166.065L244.59 163.141H244.387ZM247.69 163.141L246.988 166.065L246.946 166.24L246.245 169.276L246.203 169.458L245.502 172.488L245.46 172.67L244.759 175.706L244.717 175.888L244.015 178.861H244.198L244.899 175.888L244.941 175.706L245.642 172.67L245.684 172.488L246.385 169.458L246.428 169.276L247.129 166.24L247.171 166.065L247.872 163.141H247.69ZM250.985 163.141L250.284 166.065L250.242 166.24L249.541 169.276L249.499 169.458L248.798 172.488L248.755 172.67L248.054 175.706L248.012 175.888L247.311 178.861H247.5L248.202 175.888L248.244 175.706L248.945 172.67L248.994 172.488L249.695 169.458L249.737 169.276L250.438 166.24L250.48 166.065L251.182 163.141H250.985ZM254.288 163.141L253.587 166.065L253.545 166.24L252.843 169.276L252.794 169.458L252.093 172.488L252.051 172.67L251.35 175.706L251.308 175.888L250.607 178.861H250.698L251.399 175.888L251.441 175.706L252.142 172.67L252.184 172.488L252.885 169.458L252.928 169.276L253.629 166.24L253.671 166.065L254.372 163.141H254.288ZM257.583 163.141L256.882 166.065L256.84 166.24L256.139 169.276L256.097 169.458L255.396 172.488L255.354 172.67L254.653 175.706L254.61 175.888L253.909 178.861H254.092L254.793 175.888L254.835 175.706L255.536 172.67L255.578 172.488L256.279 169.458L256.321 169.276L257.023 166.24L257.065 166.065L257.766 163.141H257.583ZM237.186 166.065L237.137 166.24H260.276L260.318 166.065H237.186ZM236.414 169.276L236.372 169.458H259.512L259.554 169.276H236.414ZM235.643 172.488L235.594 172.67H258.733L258.776 172.488H235.643ZM234.865 175.706L234.823 175.888H257.962L258.004 175.706H234.865Z" fill="white"/>
<path d="M236.589 161.767C236.483 161.762 236.379 161.735 236.284 161.688C236.188 161.641 236.104 161.574 236.035 161.493C235.901 161.311 235.817 161.096 235.791 160.871C235.765 160.646 235.798 160.418 235.888 160.21C236.084 159.558 236.589 159.284 236.933 159.354C237.276 159.425 237.529 159.698 237.473 160.329C237.469 160.376 237.447 160.42 237.412 160.452C237.377 160.483 237.331 160.499 237.283 160.497C237.236 160.492 237.192 160.469 237.161 160.432C237.129 160.396 237.113 160.349 237.115 160.301C237.115 159.971 237.045 159.747 236.863 159.712C236.68 159.677 236.365 159.866 236.232 160.315C236.166 160.466 236.139 160.631 236.152 160.795C236.165 160.959 236.219 161.117 236.309 161.255C236.343 161.302 236.388 161.341 236.441 161.367C236.493 161.392 236.552 161.405 236.61 161.402C236.635 161.395 236.662 161.393 236.688 161.397C236.713 161.401 236.738 161.41 236.76 161.425C236.782 161.439 236.8 161.458 236.814 161.48C236.828 161.502 236.837 161.527 236.841 161.552C236.845 161.578 236.843 161.605 236.835 161.63C236.827 161.655 236.815 161.678 236.797 161.697C236.78 161.717 236.759 161.733 236.735 161.743C236.711 161.754 236.686 161.76 236.659 161.76L236.589 161.767Z" fill="#A6A6A6"/>
<path d="M238.777 161.766C238.67 161.761 238.566 161.734 238.471 161.687C238.376 161.64 238.291 161.574 238.223 161.492C238.089 161.308 238.005 161.093 237.979 160.867C237.953 160.64 237.987 160.412 238.075 160.202C238.279 159.55 238.777 159.277 239.12 159.347C239.464 159.417 239.716 159.69 239.667 160.321C239.662 160.369 239.639 160.413 239.602 160.444C239.566 160.475 239.519 160.492 239.471 160.49C239.447 160.488 239.424 160.481 239.403 160.47C239.382 160.459 239.363 160.444 239.348 160.426C239.333 160.408 239.322 160.386 239.315 160.364C239.309 160.341 239.307 160.317 239.31 160.293C239.31 159.964 239.239 159.739 239.057 159.704C238.875 159.669 238.559 159.859 238.426 160.307C238.359 160.457 238.331 160.622 238.343 160.786C238.355 160.95 238.408 161.108 238.496 161.247C238.532 161.295 238.578 161.333 238.632 161.359C238.686 161.385 238.745 161.397 238.805 161.394C238.83 161.387 238.856 161.385 238.882 161.389C238.908 161.393 238.933 161.402 238.954 161.417C238.976 161.431 238.995 161.45 239.009 161.472C239.023 161.494 239.032 161.519 239.035 161.545C239.039 161.57 239.037 161.597 239.029 161.622C239.022 161.647 239.009 161.67 238.992 161.69C238.975 161.709 238.953 161.725 238.93 161.736C238.906 161.746 238.88 161.752 238.854 161.752L238.777 161.766Z" fill="#A6A6A6"/>
<path d="M241.027 161.767C240.92 161.762 240.815 161.735 240.719 161.688C240.622 161.641 240.536 161.575 240.466 161.493C240.335 161.309 240.253 161.095 240.229 160.87C240.204 160.645 240.238 160.418 240.326 160.21C240.523 159.558 241.027 159.284 241.371 159.354C241.715 159.425 241.967 159.698 241.911 160.329C241.916 160.356 241.915 160.383 241.909 160.409C241.902 160.435 241.89 160.459 241.873 160.48C241.856 160.501 241.834 160.518 241.81 160.529C241.786 160.541 241.759 160.547 241.732 160.547C241.705 160.547 241.679 160.541 241.654 160.529C241.63 160.518 241.608 160.501 241.591 160.48C241.574 160.459 241.562 160.435 241.555 160.409C241.549 160.383 241.548 160.356 241.553 160.329C241.553 160 241.483 159.775 241.301 159.74C241.119 159.705 240.803 159.894 240.67 160.343C240.603 160.493 240.574 160.658 240.587 160.822C240.599 160.986 240.652 161.144 240.74 161.283C240.776 161.33 240.823 161.368 240.876 161.394C240.93 161.42 240.989 161.432 241.048 161.43C241.074 161.423 241.1 161.421 241.126 161.425C241.152 161.429 241.176 161.438 241.198 161.453C241.22 161.467 241.239 161.486 241.253 161.508C241.266 161.53 241.276 161.555 241.279 161.58C241.283 161.606 241.281 161.633 241.273 161.658C241.266 161.683 241.253 161.706 241.236 161.725C241.218 161.745 241.197 161.761 241.173 161.772C241.149 161.782 241.124 161.788 241.098 161.788L241.027 161.767Z" fill="#A6A6A6"/>
<path d="M243.244 161.767C243.137 161.762 243.033 161.735 242.938 161.688C242.843 161.641 242.758 161.574 242.69 161.493C242.557 161.31 242.474 161.095 242.448 160.871C242.422 160.646 242.455 160.418 242.542 160.21C242.739 159.558 243.244 159.284 243.587 159.354C243.931 159.425 244.183 159.698 244.134 160.329C244.129 160.377 244.106 160.421 244.069 160.452C244.033 160.483 243.986 160.499 243.938 160.497C243.914 160.496 243.891 160.489 243.87 160.478C243.849 160.467 243.83 160.452 243.815 160.434C243.8 160.415 243.789 160.394 243.782 160.371C243.775 160.349 243.774 160.325 243.776 160.301C243.776 159.971 243.706 159.747 243.524 159.712C243.342 159.677 243.026 159.866 242.886 160.315C242.822 160.466 242.796 160.631 242.809 160.794C242.822 160.958 242.875 161.116 242.963 161.255C242.999 161.303 243.045 161.341 243.099 161.367C243.153 161.392 243.212 161.404 243.272 161.402C243.315 161.402 243.358 161.418 243.391 161.447C243.424 161.476 243.445 161.516 243.451 161.559C243.457 161.603 243.447 161.647 243.423 161.684C243.399 161.721 243.363 161.747 243.321 161.76L243.244 161.767Z" fill="#A6A6A6"/>
<path d="M245.46 161.767C245.354 161.762 245.25 161.735 245.154 161.688C245.059 161.641 244.974 161.574 244.906 161.493C244.773 161.31 244.691 161.095 244.666 160.87C244.641 160.645 244.676 160.418 244.766 160.21C244.962 159.558 245.467 159.284 245.81 159.354C246.154 159.425 246.406 159.698 246.35 160.329C246.356 160.356 246.355 160.383 246.348 160.409C246.342 160.435 246.33 160.459 246.313 160.48C246.295 160.501 246.274 160.518 246.25 160.529C246.225 160.541 246.199 160.547 246.172 160.547C246.145 160.547 246.118 160.541 246.094 160.529C246.069 160.518 246.048 160.501 246.031 160.48C246.014 160.459 246.001 160.435 245.995 160.409C245.988 160.383 245.988 160.356 245.993 160.329C245.993 160 245.923 159.775 245.74 159.74C245.558 159.705 245.242 159.894 245.109 160.343C245.042 160.493 245.014 160.658 245.026 160.822C245.038 160.986 245.091 161.144 245.179 161.283C245.215 161.33 245.262 161.368 245.316 161.394C245.369 161.42 245.428 161.432 245.488 161.43C245.513 161.423 245.539 161.421 245.565 161.425C245.591 161.429 245.616 161.438 245.638 161.453C245.659 161.467 245.678 161.486 245.692 161.508C245.706 161.53 245.715 161.555 245.719 161.58C245.722 161.606 245.72 161.633 245.713 161.658C245.705 161.683 245.692 161.706 245.675 161.725C245.658 161.745 245.637 161.761 245.613 161.772C245.589 161.782 245.563 161.788 245.537 161.788L245.46 161.767Z" fill="#A6A6A6"/>
<path d="M247.682 161.767C247.576 161.762 247.472 161.735 247.377 161.688C247.281 161.641 247.197 161.574 247.128 161.493C246.994 161.311 246.909 161.096 246.883 160.871C246.858 160.646 246.891 160.418 246.981 160.21C247.177 159.558 247.682 159.284 248.026 159.354C248.369 159.425 248.622 159.698 248.573 160.329C248.567 160.377 248.544 160.421 248.508 160.452C248.471 160.483 248.424 160.499 248.376 160.497C248.329 160.492 248.285 160.469 248.253 160.432C248.222 160.396 248.206 160.349 248.208 160.301C248.208 159.971 248.145 159.747 247.963 159.712C247.78 159.677 247.465 159.866 247.324 160.315C247.259 160.466 247.231 160.631 247.245 160.795C247.258 160.959 247.312 161.117 247.402 161.255C247.436 161.302 247.481 161.341 247.534 161.367C247.586 161.392 247.645 161.405 247.703 161.402C247.728 161.395 247.755 161.393 247.78 161.397C247.806 161.401 247.831 161.41 247.853 161.425C247.875 161.439 247.893 161.458 247.907 161.48C247.921 161.502 247.93 161.527 247.934 161.552C247.937 161.578 247.935 161.605 247.928 161.63C247.92 161.655 247.907 161.678 247.89 161.697C247.873 161.717 247.852 161.733 247.828 161.743C247.804 161.754 247.778 161.76 247.752 161.76L247.682 161.767Z" fill="#A6A6A6"/>
<path d="M249.898 161.767C249.792 161.762 249.688 161.735 249.593 161.688C249.497 161.641 249.413 161.574 249.344 161.493C249.212 161.31 249.129 161.095 249.104 160.87C249.08 160.645 249.114 160.418 249.204 160.21C249.4 159.558 249.905 159.284 250.249 159.354C250.593 159.425 250.845 159.698 250.789 160.329C250.794 160.356 250.793 160.383 250.787 160.409C250.78 160.435 250.768 160.459 250.751 160.48C250.734 160.501 250.712 160.518 250.688 160.529C250.664 160.541 250.637 160.547 250.61 160.547C250.583 160.547 250.556 160.541 250.532 160.529C250.508 160.518 250.486 160.501 250.469 160.48C250.452 160.459 250.44 160.435 250.433 160.409C250.427 160.383 250.426 160.356 250.431 160.329C250.431 160 250.361 159.775 250.179 159.74C249.997 159.705 249.681 159.894 249.548 160.343C249.481 160.493 249.452 160.658 249.465 160.822C249.477 160.986 249.53 161.144 249.618 161.283C249.653 161.331 249.7 161.369 249.754 161.395C249.808 161.42 249.867 161.433 249.926 161.43C249.952 161.423 249.978 161.421 250.004 161.425C250.03 161.429 250.054 161.438 250.076 161.453C250.098 161.467 250.117 161.486 250.13 161.508C250.144 161.53 250.154 161.555 250.157 161.58C250.161 161.606 250.159 161.633 250.151 161.658C250.144 161.683 250.131 161.706 250.114 161.725C250.096 161.745 250.075 161.761 250.051 161.772C250.027 161.782 250.002 161.788 249.975 161.788L249.898 161.767Z" fill="#A6A6A6"/>
<path d="M252.1 161.766C251.994 161.761 251.89 161.734 251.794 161.687C251.699 161.64 251.615 161.574 251.546 161.492C251.41 161.309 251.325 161.093 251.299 160.867C251.274 160.64 251.308 160.411 251.399 160.202C251.595 159.55 252.1 159.277 252.444 159.347C252.787 159.417 253.04 159.69 252.984 160.321C252.98 160.368 252.958 160.412 252.923 160.444C252.888 160.475 252.841 160.492 252.794 160.49C252.746 160.484 252.703 160.461 252.671 160.425C252.64 160.388 252.624 160.341 252.626 160.293C252.626 159.964 252.556 159.739 252.373 159.704C252.191 159.669 251.876 159.859 251.742 160.307C251.677 160.458 251.649 160.623 251.663 160.787C251.676 160.951 251.73 161.109 251.82 161.247C251.853 161.295 251.899 161.333 251.952 161.359C252.004 161.385 252.062 161.397 252.121 161.394C252.146 161.387 252.173 161.385 252.198 161.389C252.224 161.393 252.249 161.402 252.271 161.417C252.293 161.431 252.311 161.45 252.325 161.472C252.339 161.494 252.348 161.519 252.352 161.545C252.355 161.57 252.353 161.597 252.346 161.622C252.338 161.647 252.325 161.67 252.308 161.69C252.291 161.709 252.27 161.725 252.246 161.736C252.222 161.746 252.196 161.752 252.17 161.752L252.1 161.766Z" fill="#A6A6A6"/>
<path d="M254.336 161.767C254.23 161.762 254.126 161.735 254.031 161.688C253.935 161.641 253.851 161.574 253.782 161.493C253.65 161.31 253.567 161.095 253.541 160.871C253.515 160.646 253.548 160.418 253.635 160.21C253.838 159.558 254.336 159.284 254.68 159.354C255.023 159.425 255.276 159.698 255.227 160.329C255.222 160.377 255.198 160.421 255.162 160.452C255.125 160.483 255.078 160.499 255.03 160.497C254.983 160.492 254.94 160.469 254.91 160.432C254.88 160.395 254.865 160.348 254.869 160.301C254.869 159.971 254.799 159.747 254.617 159.712C254.434 159.677 254.119 159.866 253.986 160.315C253.919 160.465 253.89 160.63 253.903 160.794C253.915 160.958 253.967 161.116 254.056 161.255C254.091 161.303 254.138 161.341 254.192 161.367C254.246 161.392 254.305 161.404 254.364 161.402C254.389 161.395 254.416 161.393 254.442 161.397C254.467 161.401 254.492 161.41 254.514 161.425C254.536 161.439 254.554 161.458 254.568 161.48C254.582 161.502 254.591 161.527 254.595 161.552C254.599 161.578 254.597 161.605 254.589 161.63C254.582 161.655 254.569 161.678 254.552 161.697C254.534 161.717 254.513 161.733 254.489 161.743C254.465 161.754 254.44 161.76 254.413 161.76L254.336 161.767Z" fill="#A6A6A6"/>
<path d="M256.56 161.767C256.452 161.762 256.347 161.735 256.251 161.688C256.154 161.641 256.069 161.575 255.999 161.493C255.867 161.309 255.785 161.095 255.761 160.87C255.736 160.645 255.77 160.418 255.858 160.21C256.055 159.558 256.56 159.284 256.903 159.354C257.247 159.425 257.499 159.698 257.443 160.329C257.448 160.356 257.448 160.383 257.441 160.409C257.435 160.435 257.422 160.459 257.405 160.48C257.388 160.501 257.367 160.518 257.342 160.529C257.318 160.541 257.291 160.547 257.264 160.547C257.237 160.547 257.211 160.541 257.186 160.529C257.162 160.518 257.14 160.501 257.123 160.48C257.106 160.459 257.094 160.435 257.087 160.409C257.081 160.383 257.08 160.356 257.086 160.329C257.086 160 257.015 159.775 256.833 159.74C256.651 159.705 256.335 159.894 256.202 160.343C256.135 160.493 256.107 160.658 256.119 160.822C256.131 160.986 256.184 161.144 256.272 161.283C256.308 161.33 256.355 161.368 256.408 161.394C256.462 161.42 256.521 161.432 256.581 161.43C256.606 161.423 256.632 161.421 256.658 161.425C256.684 161.429 256.708 161.438 256.73 161.453C256.752 161.467 256.771 161.486 256.785 161.508C256.799 161.53 256.808 161.555 256.811 161.58C256.815 161.606 256.813 161.633 256.805 161.658C256.798 161.683 256.785 161.706 256.768 161.725C256.751 161.745 256.729 161.761 256.706 161.772C256.682 161.782 256.656 161.788 256.63 161.788L256.56 161.767Z" fill="#A6A6A6"/>
<path d="M258.775 161.767C258.669 161.762 258.565 161.735 258.469 161.688C258.374 161.641 258.289 161.574 258.221 161.493C258.088 161.31 258.005 161.095 257.979 160.871C257.954 160.646 257.986 160.418 258.074 160.21C258.27 159.558 258.775 159.284 259.118 159.354C259.462 159.425 259.714 159.698 259.665 160.329C259.66 160.377 259.637 160.421 259.6 160.452C259.564 160.483 259.517 160.499 259.469 160.497C259.445 160.496 259.422 160.489 259.401 160.478C259.38 160.467 259.361 160.452 259.346 160.434C259.331 160.415 259.32 160.394 259.313 160.371C259.307 160.349 259.305 160.325 259.308 160.301C259.308 159.971 259.238 159.747 259.055 159.712C258.873 159.677 258.557 159.866 258.417 160.315C258.353 160.466 258.327 160.631 258.34 160.794C258.354 160.958 258.407 161.116 258.494 161.255C258.53 161.303 258.576 161.341 258.63 161.367C258.684 161.392 258.743 161.404 258.803 161.402C258.85 161.396 258.898 161.409 258.936 161.438C258.974 161.466 258.999 161.509 259.006 161.556C259.01 161.603 258.997 161.65 258.968 161.688C258.94 161.725 258.898 161.751 258.852 161.76L258.775 161.767Z" fill="#A6A6A6"/>
<path d="M260.991 161.767C260.885 161.762 260.781 161.735 260.686 161.688C260.59 161.641 260.506 161.574 260.437 161.493C260.304 161.31 260.222 161.095 260.197 160.87C260.173 160.645 260.207 160.418 260.297 160.21C260.493 159.558 260.998 159.284 261.342 159.354C261.685 159.425 261.938 159.698 261.882 160.329C261.887 160.356 261.886 160.383 261.88 160.409C261.873 160.435 261.861 160.459 261.844 160.48C261.827 160.501 261.805 160.518 261.781 160.529C261.756 160.541 261.73 160.547 261.703 160.547C261.676 160.547 261.649 160.541 261.625 160.529C261.601 160.518 261.579 160.501 261.562 160.48C261.545 160.459 261.533 160.435 261.526 160.409C261.519 160.383 261.519 160.356 261.524 160.329C261.524 160 261.454 159.775 261.272 159.74C261.089 159.705 260.774 159.894 260.641 160.343C260.574 160.493 260.545 160.658 260.557 160.822C260.57 160.986 260.622 161.144 260.711 161.283C260.747 161.33 260.793 161.368 260.847 161.394C260.901 161.42 260.96 161.432 261.019 161.43C261.044 161.423 261.071 161.421 261.096 161.425C261.122 161.429 261.147 161.438 261.169 161.453C261.191 161.467 261.209 161.486 261.223 161.508C261.237 161.53 261.246 161.555 261.25 161.58C261.253 161.606 261.251 161.633 261.244 161.658C261.236 161.683 261.224 161.706 261.206 161.725C261.189 161.745 261.168 161.761 261.144 161.772C261.12 161.782 261.094 161.788 261.068 161.788L260.991 161.767Z" fill="#A6A6A6"/>
<path d="M263.213 161.767C263.107 161.762 263.003 161.735 262.908 161.688C262.812 161.641 262.728 161.574 262.659 161.493C262.525 161.311 262.441 161.096 262.415 160.871C262.389 160.646 262.422 160.418 262.512 160.21C262.708 159.558 263.213 159.284 263.557 159.354C263.9 159.425 264.153 159.698 264.104 160.329C264.099 160.377 264.075 160.421 264.039 160.452C264.002 160.483 263.955 160.499 263.908 160.497C263.86 160.492 263.816 160.469 263.785 160.432C263.753 160.396 263.737 160.349 263.739 160.301C263.739 159.971 263.676 159.747 263.494 159.712C263.311 159.677 262.996 159.866 262.856 160.315C262.79 160.466 262.763 160.631 262.776 160.795C262.789 160.959 262.843 161.117 262.933 161.255C262.967 161.302 263.012 161.341 263.065 161.367C263.118 161.392 263.176 161.405 263.234 161.402C263.282 161.396 263.33 161.409 263.368 161.438C263.406 161.466 263.431 161.509 263.438 161.556C263.442 161.58 263.441 161.604 263.435 161.627C263.429 161.65 263.419 161.672 263.404 161.691C263.39 161.71 263.372 161.726 263.351 161.738C263.33 161.75 263.307 161.757 263.283 161.76L263.213 161.767Z" fill="#A6A6A6"/>
<path d="M89.9847 179.695H53.9434V181.315H89.9847V179.695Z" fill="#37474F"/>
<path d="M72.0832 179.695H53.9434V181.315H72.0832V179.695Z" fill="#263238"/>
<path d="M70.1336 181.316H35.0108L30.418 157.461H65.5407L70.1336 181.316Z" fill="#37474F"/>
<path d="M52.4142 169.389C52.4441 169.661 52.4157 169.936 52.3309 170.197C52.2462 170.457 52.107 170.696 51.9226 170.899C51.7382 171.101 51.5128 171.262 51.2615 171.37C51.0101 171.479 50.7386 171.532 50.4649 171.528C49.8826 171.517 49.3243 171.294 48.8955 170.9C48.4666 170.506 48.1968 169.968 48.1369 169.389C48.1123 169.12 48.1446 168.848 48.2318 168.592C48.3189 168.336 48.459 168.101 48.6428 167.903C48.8266 167.704 49.0502 167.547 49.2988 167.441C49.5475 167.334 49.8158 167.281 50.0862 167.285C50.6635 167.293 51.2182 167.511 51.6466 167.899C52.075 168.286 52.3478 168.815 52.4142 169.389Z" fill="white"/>
<path d="M201.151 322.878C199.538 323.397 153.701 322.808 151.976 321.672C151.275 321.259 151.009 314.569 150.875 306.484C150.875 306.4 150.875 306.316 150.875 306.232C150.875 304.563 150.826 302.845 150.819 301.106C150.819 300.868 150.819 300.63 150.819 300.405L153.028 276.6L183.691 276.908L180.669 300.461L180.634 301.394L180.445 306.302V306.807C180.445 306.807 197.883 314.885 199.657 316.329C201.431 317.774 202.757 322.381 201.151 322.878Z" fill="#AD6359"/>
<path d="M201.151 322.879C199.538 323.398 153.701 322.809 151.976 321.673C151.275 321.26 151.009 314.57 150.875 306.486C150.875 306.401 150.875 306.317 150.875 306.233C150.875 304.564 150.826 302.846 150.819 301.107C150.819 300.869 150.819 300.631 150.819 300.406L180.683 300.49L180.648 301.423L180.459 306.331V306.836C180.459 306.836 197.897 314.914 199.671 316.358C201.445 317.803 202.757 322.382 201.151 322.879Z" fill="#EBEBEB"/>
<path d="M201.151 322.879C200.324 323.145 187.871 323.117 175.698 322.879C173.251 322.83 170.79 322.774 168.497 322.71C159.816 322.472 152.643 322.114 151.977 321.68C151.311 321.245 151.016 314.766 150.883 306.828C150.883 306.716 150.883 306.604 150.883 306.492C150.883 306.38 150.883 306.317 150.883 306.232H150.918L180.459 306.289V306.793C180.459 306.793 197.905 314.864 199.672 316.309C201.439 317.753 202.757 322.381 201.151 322.879Z" fill="#A6A6A6"/>
<path d="M200.654 321.111C192.94 320.824 161.744 320.41 154.087 320.683C154.024 320.683 154.024 320.725 154.087 320.732C161.737 321.181 192.926 321.37 200.654 321.237C200.815 321.237 200.815 321.118 200.654 321.111Z" fill="#263238"/>
<path d="M183.74 306.429C180.704 305.819 176.981 306.24 174.625 308.371C174.534 308.456 174.625 308.582 174.758 308.554C177.675 307.657 180.679 307.072 183.719 306.808C183.769 306.811 183.819 306.793 183.856 306.76C183.894 306.726 183.916 306.679 183.919 306.629C183.922 306.579 183.904 306.53 183.871 306.492C183.837 306.455 183.79 306.432 183.74 306.429Z" fill="#263238"/>
<path d="M185.914 307.776C182.885 307.173 179.155 307.586 176.799 309.725C176.707 309.809 176.799 309.935 176.925 309.907C179.845 309.004 182.854 308.416 185.9 308.154C185.942 308.144 185.98 308.121 186.007 308.088C186.035 308.055 186.05 308.013 186.052 307.97C186.053 307.927 186.041 307.885 186.016 307.85C185.991 307.814 185.955 307.788 185.914 307.776Z" fill="#263238"/>
<path d="M188.095 309.128C185.059 308.518 181.335 308.939 178.979 311.078C178.888 311.162 178.979 311.288 179.106 311.26C182.021 310.356 185.025 309.771 188.067 309.514C188.113 309.509 188.155 309.488 188.188 309.455C188.22 309.422 188.239 309.379 188.243 309.333C188.246 309.287 188.233 309.241 188.206 309.204C188.179 309.166 188.14 309.14 188.095 309.128Z" fill="#263238"/>
<path d="M175.67 322.879C173.223 322.83 170.761 322.774 168.468 322.71C159.788 322.472 152.614 322.114 151.948 321.68C151.282 321.245 150.988 314.766 150.854 306.828C150.854 306.716 150.854 306.604 150.854 306.492C150.854 306.38 150.854 306.317 150.854 306.232H150.89C154.949 309.079 169.212 318.573 175.67 322.879Z" fill="#263238"/>
<path d="M182.457 306.4H149.445C149.445 306.4 156.092 229.269 155.833 227.951C155.503 226.226 153.554 218.422 150.96 208.226C150.146 205.036 149.27 201.614 148.358 198.066C145.897 188.474 143.184 177.991 140.821 168.868C137.272 155.202 134.51 144.586 134.51 144.586H162.487C162.487 144.586 165.748 154.922 169.857 168.37C176.553 190.227 185.501 220.308 186.384 227.621C187.807 239.436 182.457 306.4 182.457 306.4Z" fill="#37474F"/>
<path d="M180.999 300.77C175.958 300.665 177.402 300.623 172.36 300.574C169.892 300.574 153.681 300.405 151.374 300.791C151.325 300.791 151.325 300.882 151.374 300.896C153.681 301.275 169.892 301.135 172.36 301.107C177.402 301.064 175.958 301.022 180.999 300.917C181.09 300.91 181.09 300.77 180.999 300.77Z" fill="#263238"/>
<path d="M162.046 223.239C160.966 218.464 159.346 213.787 157.937 209.103C155.076 199.585 152.199 190.075 149.305 180.571C147.861 175.817 146.409 171.063 144.951 166.309C144.208 163.911 143.471 161.513 142.721 159.122C141.971 156.731 141.15 154.452 140.491 152.11C140.218 151.149 140.071 151.675 140.414 152.895C141.115 155.363 141.816 157.803 142.518 160.279C143.92 165.145 145.35 170.007 146.809 174.864C149.67 184.54 152.556 194.205 155.469 203.858L159.844 218.401C160.587 220.699 161.189 223.041 161.646 225.413C162.035 227.898 162.134 230.421 161.941 232.929C161.625 237.985 161.036 243.026 160.573 248.068C160.111 253.11 159.634 258.165 159.171 263.214C158.236 273.264 157.313 283.315 156.401 293.365C156.289 294.634 156.177 295.91 156.079 297.187C156.079 297.614 156.689 297.579 156.738 297.187C157.825 287.251 158.659 277.28 159.592 267.323C160.524 257.366 161.45 247.521 162.397 237.613C162.628 235.131 162.887 232.642 162.894 230.139C162.871 227.814 162.587 225.5 162.046 223.239Z" fill="#263238"/>
<path d="M159.304 144.586C157.362 159.613 153.66 187.786 150.96 208.226C144.649 183.46 134.503 144.586 134.503 144.586H159.304Z" fill="#263238"/>
<path d="M166.176 323.335C164.57 323.861 118.733 323.433 117.001 322.311C116.3 321.89 116.005 315.208 115.844 307.123C115.844 307.039 115.844 306.955 115.844 306.871C115.844 305.202 115.781 303.491 115.774 301.752C115.774 301.507 115.774 301.268 115.774 301.051C115.669 289.383 116.475 277.273 116.475 277.273L146.437 277.47L145.603 301.03V301.962L145.435 306.836V307.341C145.435 307.341 162.908 315.348 164.682 316.793C166.456 318.237 167.782 322.823 166.176 323.335Z" fill="#AD6359"/>
<path d="M166.175 323.335C164.569 323.861 118.732 323.433 117.001 322.311C116.299 321.89 116.005 315.208 115.844 307.123C115.844 307.039 115.844 306.955 115.844 306.871C115.844 305.202 115.78 303.491 115.773 301.752C115.773 301.507 115.773 301.268 115.773 301.051H145.637V301.983L145.469 306.857V307.362C145.469 307.362 162.943 315.369 164.717 316.814C166.491 318.258 167.781 322.823 166.175 323.335Z" fill="#EBEBEB"/>
<path d="M166.175 323.335C164.57 323.86 118.733 323.433 117.001 322.311C116.3 321.89 116.005 315.208 115.844 307.123C115.844 307.039 115.844 306.955 115.844 306.871L145.42 306.814V307.319C145.42 307.319 162.894 315.327 164.668 316.771C166.442 318.216 167.781 322.823 166.175 323.335Z" fill="#A6A6A6"/>
<path d="M165.678 321.554C157.965 321.295 126.769 320.965 119.112 321.295C119.049 321.295 119.049 321.344 119.112 321.344C126.762 321.771 157.944 321.842 165.678 321.68C165.853 321.68 165.853 321.561 165.678 321.554Z" fill="#263238"/>
<path d="M148.709 306.933C145.673 306.337 141.95 306.764 139.594 308.91C139.502 308.994 139.594 309.12 139.72 309.092C142.632 308.181 145.634 307.584 148.674 307.311C148.724 307.316 148.774 307.301 148.813 307.268C148.852 307.236 148.876 307.19 148.881 307.14C148.886 307.089 148.87 307.039 148.838 307.001C148.806 306.962 148.759 306.937 148.709 306.933Z" fill="#263238"/>
<path d="M150.89 308.273C147.854 307.677 144.13 308.112 141.774 310.258C141.683 310.342 141.774 310.468 141.9 310.433C144.816 309.526 147.82 308.932 150.862 308.659C150.908 308.654 150.95 308.634 150.983 308.6C151.015 308.567 151.034 308.524 151.037 308.478C151.041 308.432 151.028 308.386 151.001 308.349C150.974 308.311 150.934 308.285 150.89 308.273Z" fill="#263238"/>
<path d="M153.07 309.618C150.034 309.022 146.311 309.45 143.955 311.596C143.864 311.68 143.955 311.806 144.081 311.778C146.995 310.865 150 310.27 153.042 310.004C153.088 309.999 153.131 309.979 153.163 309.945C153.195 309.912 153.215 309.869 153.218 309.823C153.221 309.777 153.208 309.731 153.181 309.694C153.154 309.656 153.115 309.63 153.07 309.618Z" fill="#263238"/>
<path d="M161.576 144.586C161.576 144.586 160.931 157.972 157.867 168.574C157.621 169.45 157.355 170.313 157.067 171.14C154.259 172.273 151.56 173.66 149.004 175.284C149.004 175.284 148.681 186.055 148.359 198.066C148.001 211.494 147.657 226.471 147.707 229.62C147.987 241.54 146.22 306.884 146.22 306.884L113.215 307.017C113.215 307.017 119.182 234.037 119.14 229.683C119.077 222.671 120.739 191.755 122.022 169.198C122.807 155.3 123.424 144.586 123.424 144.586H161.576Z" fill="#37474F"/>
<path d="M145.091 301.017C140.049 300.932 141.493 300.883 136.452 300.855C133.984 300.855 117.772 300.771 115.465 301.164C115.452 301.164 115.44 301.169 115.43 301.178C115.421 301.187 115.416 301.2 115.416 301.213C115.416 301.226 115.421 301.238 115.43 301.248C115.44 301.257 115.452 301.262 115.465 301.262C117.772 301.641 133.991 301.43 136.459 301.395C141.5 301.325 140.049 301.29 145.091 301.164C145.182 301.143 145.182 301.017 145.091 301.017Z" fill="#263238"/>
<path d="M126.229 149.369C125.619 167.782 124.974 186.202 124.125 204.602C123.277 223.001 122.183 241.534 120.619 259.961C119.757 270.254 118.943 284.734 117.814 295.021C117.814 295.091 117.913 295.119 117.92 295.021C120.325 276.79 121.664 254.169 122.828 235.784C123.992 217.398 124.812 198.992 125.436 180.586C125.787 170.18 126.06 159.76 126.376 149.348C126.46 149.207 126.229 149.221 126.229 149.369Z" fill="#263238"/>
<path d="M158.441 170.342C155.159 171.702 152.001 173.344 149.003 175.25C148.884 175.32 149.003 175.51 149.101 175.446C152.285 173.897 155.538 172.41 158.63 170.685C158.658 170.653 158.674 170.613 158.679 170.571C158.683 170.528 158.674 170.486 158.653 170.449C158.633 170.412 158.602 170.381 158.564 170.362C158.526 170.343 158.483 170.336 158.441 170.342Z" fill="#263238"/>
<path d="M169.85 168.37L157.866 168.574L140.82 168.868L122.021 169.198C122.807 155.3 123.424 144.586 123.424 144.586H162.452C162.452 144.586 165.741 154.922 169.85 168.37Z" fill="#263238"/>
<path d="M187.786 77.2151L183.046 97.9564C182.843 98.5594 183.158 99.0502 183.747 99.0362L194.384 98.7978C194.708 98.7665 195.017 98.6437 195.274 98.4439C195.531 98.244 195.726 97.9752 195.836 97.6689L200.576 76.9346C200.786 76.3245 200.471 75.8407 199.875 75.8477L189.238 76.0861C188.914 76.1191 188.606 76.2424 188.35 76.4421C188.093 76.6417 187.898 76.9096 187.786 77.2151Z" fill="#A6A6A6"/>
<path d="M189.056 77.1731L184.309 97.9144C184.105 98.5244 184.421 99.0083 185.01 98.9942L195.647 98.7628C195.971 98.7315 196.28 98.6088 196.537 98.4089C196.794 98.2091 196.988 97.9403 197.099 97.6339L201.839 76.8926C202.049 76.2826 201.733 75.7988 201.137 75.8128L190.5 76.0442C190.178 76.0768 189.871 76.2001 189.615 76.3999C189.359 76.5997 189.165 76.8677 189.056 77.1731Z" fill="#DBDBDB"/>
<path d="M191.089 78.9614C191.589 78.9614 191.994 78.5564 191.994 78.0569C191.994 77.5573 191.589 77.1523 191.089 77.1523C190.59 77.1523 190.185 77.5573 190.185 78.0569C190.185 78.5564 190.59 78.9614 191.089 78.9614Z" fill="#455A64"/>
<path d="M154.178 109.205C160.37 121.945 174.113 138.43 179.709 138.423C182.373 138.423 187.135 138.998 190.584 135.892C198.122 129.119 204.321 116.259 205.527 108.945C205.955 106.337 193.235 100.874 191.391 103.013C187.085 108.027 182.135 117.822 181.357 117.773C178.489 117.598 167.172 108.419 159.269 101.954C149.67 94.108 151.71 104.107 154.178 109.205Z" fill="#AD6359"/>
<path d="M205.659 95.5038C204.257 90.2449 203.086 89.116 204.257 84.0463C205.028 80.7157 203.233 78.8014 200.912 81.494C197.126 85.8975 197.519 93.0637 198.374 95.5179L205.659 95.5038Z" fill="#AD6359"/>
<path d="M204.938 111.217C204.938 111.217 207.195 103.834 206.249 98.0769C205.597 94.1011 203.206 85.6026 191.986 81.2482C189.329 80.2175 184.799 80.6312 188.537 83.8987C191.187 86.2197 193.571 86.8858 194.847 88.5126C194.847 88.5126 189.154 89.7257 188.228 92.4323C187.412 94.7997 186.768 97.2227 186.3 99.6826C186.731 99.8687 187.174 100.028 187.625 100.159C187.625 100.159 186.833 102.726 188.768 106.316L204.938 111.217Z" fill="#AD6359"/>
<path d="M205.022 94.3802C203.388 93.0339 199.889 90.2361 196.229 88.953C192.162 87.5506 183.951 85.8537 182.907 88.8688C182.156 91.0776 185.242 91.9821 185.242 91.9821C185.242 91.9821 181.701 91.9821 181.455 94.1558C181.231 96.1121 183.657 96.6731 183.657 96.6731C183.657 96.6731 181.511 97.0588 181.665 98.98C181.841 101.294 186.307 100.102 188.509 102.29C188.993 102.78 205.022 94.3802 205.022 94.3802Z" fill="#AD6359"/>
<path d="M195.43 93.4983C192.298 91.9585 188.77 91.4106 185.319 91.9276C185.235 91.9276 185.199 92.0187 185.284 92.0187C188.713 92.1128 192.117 92.6237 195.423 93.5403C195.423 93.5403 195.451 93.5123 195.43 93.4983Z" fill="#263238"/>
<path d="M193.9 97.5566C192.309 96.8554 187.59 95.7194 183.712 96.5959C183.628 96.5959 183.6 96.6871 183.677 96.6871C187.106 96.6032 190.533 96.909 193.893 97.5986C193.893 97.5986 193.9 97.5706 193.9 97.5566Z" fill="#263238"/>
<path d="M205.716 114.294C205.716 114.294 195.605 134.888 189.588 137.336C183.572 139.783 179.982 139.299 177.738 138.99C176.871 138.798 176.058 138.417 175.354 137.876C169.226 133.619 158.161 118.424 153.617 109.863C150.223 103.426 150.518 97.557 155.559 99.345C157.265 100.05 158.842 101.031 160.229 102.248C169.555 109.863 180.361 117.092 180.866 116.819C181.37 116.545 186.573 108.075 186.573 108.075L205.716 114.294Z" fill="#37474F"/>
<path d="M175.382 137.876C169.254 133.619 158.189 118.424 153.645 109.863C150.252 103.426 150.546 97.557 155.588 99.345C158.238 104.436 169.717 126.544 175.382 137.876Z" fill="#263238"/>
<path d="M203.198 118.054C202.497 117.682 201.747 117.444 201.025 117.135C200.302 116.826 199.566 116.553 198.83 116.273C197.428 115.749 195.999 115.237 194.546 114.737L190.254 113.222C188.775 112.71 187.288 112.114 185.774 111.722C185.767 111.719 185.76 111.718 185.754 111.719C185.747 111.719 185.74 111.721 185.734 111.724C185.728 111.727 185.722 111.731 185.718 111.736C185.713 111.741 185.709 111.747 185.707 111.753C185.705 111.76 185.704 111.767 185.704 111.773C185.705 111.78 185.706 111.787 185.709 111.793C185.712 111.799 185.716 111.805 185.721 111.81C185.726 111.814 185.732 111.818 185.739 111.82C187.141 112.521 188.67 112.984 190.135 113.538L194.469 115.172C195.913 115.712 197.364 116.244 198.823 116.756C199.524 117.009 200.225 117.254 200.983 117.458C201.702 117.718 202.435 117.94 203.177 118.124C203.24 118.166 203.247 118.082 203.198 118.054Z" fill="#263238"/>
<path d="M167.214 156.24C166.456 156.99 119.939 154.529 119.715 154.227C119.105 153.407 132.918 105.719 143.829 97.8865C146.171 96.2036 154.781 96.9399 155.938 97.4658C157.25 98.0548 160.7 104.681 162.144 110.003C165.033 120.661 167.873 155.581 167.214 156.24Z" fill="#EBEBEB"/>
<path d="M151.633 108.39L153.996 104.688L156.611 107.878L155.77 110.872L153 111.075L151.633 108.39Z" fill="#3EB84B"/>
<path d="M153 111.076L150.006 141.908L155.244 152.447L158.876 141.108L155.77 110.873L153 111.076Z" fill="#3EB84B"/>
<path d="M171.119 166.955C171.119 166.955 164.991 166.647 156.794 166.205C156.254 163.295 155.111 156.192 154.992 156.192C154.9 156.346 152.622 163.204 151.878 165.945C143.92 165.504 134.909 164.999 127.813 164.543C120.717 164.087 115.43 163.674 115.157 163.456C114.883 163.239 118.908 153.745 119.364 152.342C122.87 141.249 129.09 119.225 133.802 111.049C135.891 107.324 138.288 103.78 140.968 100.454C141.241 100.138 141.487 99.844 141.725 99.5775L143.415 97.6562L156.036 124.028C156.079 123.523 157.761 99.6687 157.761 99.6687C161.331 105.474 163.936 111.821 165.474 118.461C168.279 130.914 168.062 148.984 168.777 157.622C168.784 157.622 171.119 166.78 171.119 166.955Z" fill="#37474F"/>
<path d="M140.961 100.453L127.813 164.542C120.654 164.072 115.43 163.673 115.157 163.455C114.883 163.238 118.908 153.744 119.364 152.341C122.87 141.249 129.09 119.224 133.802 111.048C135.888 107.323 138.283 103.779 140.961 100.453Z" fill="#263238"/>
<path d="M156.037 124.027C156.1 126.713 156.079 129.391 156.037 132.077C155.995 134.763 155.918 137.441 155.862 140.12C155.805 142.798 155.665 145.477 155.525 148.155L155.301 152.173C155.195 153.513 155.118 154.852 154.999 156.191C154.957 154.845 154.999 153.505 154.957 152.166V148.141C154.957 145.456 155.076 142.777 155.132 140.099C155.188 137.42 155.329 134.742 155.469 132.063C155.609 129.384 155.784 126.706 156.037 124.027Z" fill="#263238"/>
<path d="M152.972 134.811C153.712 134.811 154.311 134.212 154.311 133.472C154.311 132.732 153.712 132.133 152.972 132.133C152.232 132.133 151.633 132.732 151.633 133.472C151.633 134.212 152.232 134.811 152.972 134.811Z" fill="#263238"/>
<path d="M152.509 142.391C153.249 142.391 153.848 141.792 153.848 141.052C153.848 140.313 153.249 139.713 152.509 139.713C151.77 139.713 151.17 140.313 151.17 141.052C151.17 141.792 151.77 142.391 152.509 142.391Z" fill="#263238"/>
<path d="M152.046 149.964C152.786 149.964 153.386 149.364 153.386 148.624C153.386 147.885 152.786 147.285 152.046 147.285C151.307 147.285 150.707 147.885 150.707 148.624C150.707 149.364 151.307 149.964 152.046 149.964Z" fill="#263238"/>
<path d="M142.461 193.908H82.4668V230.258H142.461V193.908Z" fill="#6B2626"/>
<path opacity="0.1" d="M142.461 193.908H82.4668V211.024H142.461V193.908Z" fill="#111111"/>
<path d="M143.885 188.564H81.0508V205.526H143.885V188.564Z" fill="#6B2626"/>
<path d="M125.695 178.889V188.565H121.145V183.061H103.79V188.565H99.2393V178.889H125.695Z" fill="#263238"/>
<path d="M93.7707 201.48H89.6758V209.586H93.7707V201.48Z" fill="#263238"/>
<path d="M135.26 201.48H131.165V209.586H135.26V201.48Z" fill="#263238"/>
<path d="M137.729 101.799C122.674 112.155 111.785 128.381 110.761 131.81C108.23 140.105 104.45 154.739 103.868 161.309C103.651 163.735 122.373 163.279 122.688 160.692C123.663 152.586 127.148 134.944 127.239 134.643C127.863 132.539 133.171 123.269 138.633 113.221C144.096 103.173 144.06 97.4443 137.729 101.799Z" fill="#AD6359"/>
<path d="M121.194 186.293C120.626 186.464 120.019 186.456 119.455 186.272C118.891 186.088 118.397 185.736 118.039 185.263C117.402 186.04 116.514 186.57 115.529 186.763C113.769 187.023 112.598 184.379 112.598 184.379C111.768 185.048 110.757 185.453 109.695 185.543C107.984 185.613 106.427 183.117 106.427 183.117C105.323 183.309 104.186 183.1 103.223 182.528C101.61 181.483 100.811 176.323 100.839 173.413C100.867 170.503 103.643 162.292 104.036 160.672H122.688C122.688 160.672 126.271 173.735 125.752 177.15C125.317 180.046 123.34 185.564 121.194 186.293Z" fill="#AD6359"/>
<path d="M118.341 185.137C119.54 182.192 119.799 179.05 120.234 175.937C120.234 175.867 120.136 175.853 120.129 175.937C119.729 179.036 118.726 182.023 118.193 185.108C118.194 185.126 118.201 185.142 118.212 185.155C118.224 185.168 118.239 185.177 118.256 185.18C118.273 185.184 118.291 185.181 118.306 185.173C118.321 185.165 118.333 185.152 118.341 185.137Z" fill="#263238"/>
<path d="M112.843 184.316C113.052 183.621 113.168 182.902 113.187 182.177C113.248 181.415 113.304 180.651 113.355 179.884C113.439 178.351 113.486 176.813 113.495 175.27C113.495 175.207 113.397 175.186 113.39 175.27C113.299 176.799 113.187 178.328 113.033 179.856C112.955 180.62 112.871 181.378 112.787 182.142C112.655 182.854 112.604 183.578 112.633 184.302C112.639 184.324 112.652 184.343 112.67 184.358C112.688 184.372 112.71 184.381 112.733 184.382C112.756 184.384 112.779 184.378 112.799 184.366C112.818 184.354 112.834 184.337 112.843 184.316Z" fill="#263238"/>
<path d="M106.427 183.053C106.61 182.423 106.681 181.766 106.637 181.111C106.637 180.41 106.665 179.709 106.721 179.007C106.784 177.605 106.855 176.203 106.967 174.8C106.963 174.79 106.956 174.78 106.946 174.774C106.937 174.767 106.926 174.764 106.914 174.764C106.903 174.764 106.892 174.767 106.882 174.774C106.873 174.78 106.866 174.79 106.862 174.8C106.735 176.203 106.595 177.605 106.483 179.056C106.427 179.758 106.378 180.459 106.329 181.16C106.22 181.791 106.22 182.436 106.329 183.067C106.329 183.067 106.42 183.081 106.427 183.053Z" fill="#263238"/>
<path d="M123.578 160.903L103.117 159.256C103.117 159.256 107.626 137.217 110.066 131.264C112.506 125.311 128.031 107.893 137.16 101.519C145.75 95.5312 145.483 101.05 141.493 108.896C137.504 116.742 128.115 134.686 127.666 136.102C127.217 137.519 123.578 160.903 123.578 160.903Z" fill="#37474F"/>
<path d="M123.214 156.696C122.45 156.52 121.65 156.492 120.879 156.387C120.108 156.282 119.315 156.205 118.53 156.135C117.022 155.994 115.508 155.882 113.993 155.777L109.457 155.461C107.9 155.356 106.308 155.174 104.744 155.195C104.674 155.195 104.66 155.293 104.744 155.3C106.287 155.574 107.879 155.651 109.442 155.798L114.049 156.233C115.592 156.373 117.128 156.506 118.67 156.611C119.427 156.668 120.185 156.717 120.942 156.738C121.699 156.759 122.471 156.85 123.235 156.801C123.284 156.78 123.27 156.696 123.214 156.696Z" fill="#263238"/>
<path d="M143.275 97.9082C142.84 99.3106 142.37 100.762 141.921 102.185C141.473 103.609 140.975 105.025 140.519 106.449L140.316 106.112C141.382 106.231 142.419 106.323 143.506 106.456L146.697 106.82L147.236 106.883L146.914 107.332C145.561 109.204 144.221 111.091 142.826 112.942L142.77 112.493C145 114.393 147.258 116.265 149.452 118.201C151.647 120.136 153.87 122.05 156.036 124.028C153.699 122.242 151.402 120.424 149.144 118.572C146.844 116.749 144.607 114.863 142.342 113.005L142.104 112.809L142.286 112.549C143.632 110.663 145.021 108.812 146.402 106.94L146.619 107.444L143.415 107.052C142.349 106.926 141.311 106.757 140.232 106.617L139.916 106.568L140.028 106.28C140.561 104.878 141.08 103.476 141.62 102.073C142.16 100.671 142.714 99.2896 143.275 97.9082Z" fill="#263238"/>
<path d="M157.439 99.043C157.797 99.6811 158.14 100.319 158.477 100.964C158.813 101.609 159.178 102.24 159.494 102.893L161.478 106.777L161.709 107.233H161.19L158.049 107.079L158.323 106.518C159.437 107.787 160.552 109.049 161.646 110.325L161.779 110.486L161.702 110.683C160.805 112.927 159.886 115.17 158.933 117.393C157.979 119.616 157.025 121.853 156.016 124.055C156.801 121.759 157.621 119.478 158.477 117.211C159.332 114.944 160.197 112.684 161.071 110.43L161.127 110.781C160.012 109.519 158.919 108.236 157.818 106.959L157.285 106.342L158.091 106.405L161.225 106.637L160.938 107.065L159.157 103.082C158.855 102.423 158.575 101.75 158.287 101.083C158 100.417 157.713 99.7161 157.439 99.043Z" fill="#263238"/>
<path d="M154.634 103.715C152.11 104.472 147.482 100.819 145.554 97.7474C145.427 97.53 145.624 95.2231 145.736 92.3973C145.792 90.6864 145.82 88.7792 145.736 87.0332C145.736 86.6756 146.97 87.2646 146.97 87.2646L149.256 87.6783L156.822 89.0807C156.329 91.2988 156.108 93.5686 156.163 95.8402C156.18 96.0772 156.22 96.312 156.282 96.5414C156.28 96.5811 156.28 96.6209 156.282 96.6606C156.611 97.9788 157.102 102.985 154.634 103.715Z" fill="#AD6359"/>
<path d="M156.289 96.5128C156.287 96.5525 156.287 96.5923 156.289 96.632C155.919 96.7052 155.544 96.7474 155.167 96.7582C147.798 97.0246 146.325 87.7198 146.325 87.7198L149.242 87.6777L156.808 89.0801C156.315 91.2983 156.094 93.5681 156.149 95.8396C156.175 96.0678 156.222 96.2932 156.289 96.5128Z" fill="#263238"/>
<path d="M143.457 74.2214C142.539 78.1761 145.351 89.2269 148.275 91.5338C152.482 94.8785 159.08 94.7804 161.822 89.7668C164.486 84.9076 160.566 70.5752 157.334 68.5137C152.573 65.4845 144.818 68.3804 143.457 74.2214Z" fill="#AD6359"/>
<path d="M154.634 80.3359C154.634 80.3359 154.585 80.385 154.592 80.4201C154.803 81.1213 154.915 82.0398 154.305 82.4535C154.305 82.4535 154.305 82.5026 154.305 82.4956C155.104 82.1731 154.943 81.0021 154.634 80.3359Z" fill="#263238"/>
<path d="M153.764 79.7265C152.544 79.9299 153.063 82.363 154.178 82.1667C155.293 81.9703 154.788 79.5652 153.764 79.7265Z" fill="#263238"/>
<path d="M158.841 79.4805C158.841 79.4805 158.904 79.4805 158.911 79.5366C159.044 80.2939 159.325 81.1423 160.054 81.2475V81.2895C159.205 81.3456 158.841 80.2237 158.841 79.4805Z" fill="#263238"/>
<path d="M159.346 78.5628C160.538 78.2192 161.134 80.6243 160.047 80.9398C158.96 81.2554 158.35 78.8643 159.346 78.5628Z" fill="#263238"/>
<path d="M152.58 78.8152C152.888 78.6609 153.155 78.4716 153.449 78.2893C153.744 78.107 154.066 77.9527 154.235 77.5881C154.271 77.4784 154.27 77.36 154.232 77.251C154.194 77.142 154.121 77.0486 154.024 76.9851C153.814 76.8888 153.581 76.8505 153.351 76.8739C153.12 76.8973 152.9 76.9817 152.713 77.1183C152.302 77.3484 151.988 77.7195 151.83 78.1631C151.806 78.2627 151.81 78.3669 151.841 78.4645C151.873 78.562 151.93 78.649 152.007 78.7162C152.085 78.7834 152.179 78.8282 152.28 78.8456C152.381 78.8631 152.485 78.8525 152.58 78.8152Z" fill="#263238"/>
<path d="M160.034 77.1382C159.694 77.143 159.354 77.1266 159.017 77.0891C158.656 77.123 158.293 77.0368 157.986 76.8437C157.902 76.7645 157.846 76.6594 157.828 76.5451C157.811 76.4307 157.832 76.3137 157.888 76.2127C158.028 76.0275 158.215 75.8832 158.429 75.7944C158.644 75.7057 158.878 75.6758 159.108 75.7078C159.582 75.7014 160.042 75.8713 160.398 76.1846C160.474 76.2613 160.526 76.358 160.548 76.4634C160.57 76.5687 160.561 76.6782 160.523 76.7787C160.484 76.8792 160.418 76.9666 160.331 77.0303C160.244 77.0941 160.141 77.1315 160.034 77.1382Z" fill="#263238"/>
<path d="M142.749 72.9593C144.025 67.1184 153.267 65.8422 155.973 67.3007C157.475 68.1032 158.643 69.4128 159.269 70.996C159.269 70.996 158.491 69.6357 157.502 69.7759C156.513 69.9161 156.703 71.1783 155.44 71.8374C154.178 72.4965 152.25 71.2694 150.034 71.9496C147.818 72.6298 146.97 74.6913 146.907 76.5775C146.844 78.4637 147.608 85.3845 146.115 85.9524C144.621 86.5204 141.718 77.6854 142.749 72.9593Z" fill="#263238"/>
<path d="M146.472 83.1749C146.472 83.1749 143.625 79.7881 142.062 80.8329C140.498 81.8777 142.868 86.9473 144.867 87.4942C145.117 87.5823 145.382 87.6188 145.647 87.6015C145.911 87.5842 146.17 87.5135 146.406 87.3936C146.643 87.2736 146.853 87.107 147.023 86.9038C147.194 86.7006 147.321 86.4649 147.398 86.2111L146.472 83.1749Z" fill="#AD6359"/>
<path d="M142.777 82.2715C142.777 82.2715 142.742 82.3136 142.777 82.3276C144.18 82.7483 145 83.9403 145.582 85.1955C145.492 85.0668 145.376 84.9592 145.24 84.8803C145.105 84.8013 144.954 84.7527 144.797 84.7381C144.641 84.7234 144.484 84.7429 144.336 84.7952C144.188 84.8476 144.053 84.9315 143.941 85.0412C143.906 85.0412 143.941 85.1253 143.983 85.1113C144.214 85.0157 144.468 84.9933 144.711 85.0473C144.955 85.1012 145.175 85.2289 145.344 85.4128C145.615 85.7243 145.85 86.0654 146.045 86.4296C146.122 86.5418 146.332 86.4296 146.276 86.3244C146.22 84.5714 144.642 82.2785 142.777 82.2715Z" fill="#263238"/>
<path d="M156.387 96.9339L153.652 103.518L145.518 95.0547L143.155 97.7122C143.155 97.7122 151.058 111.119 151.128 110.509L153.933 104.836L157.824 108.847L157.621 98.8832L156.387 96.9339Z" fill="#EBEBEB"/>
<path d="M157.972 103.917C157.888 102.27 157.845 100.615 157.677 99.0091C157.677 98.953 157.579 98.9249 157.565 99.0091C157.214 100.594 157.565 106.883 157.565 108.391C157.404 108.216 153.954 104.885 153.919 104.885C153.316 105.783 151.268 109.913 151.114 110.291C149.866 108.188 145.077 100.425 143.597 98.406C143.555 98.35 143.464 98.406 143.499 98.4621C144.593 100.706 150.925 111.126 151.03 111.084C152.104 109.136 153.077 107.135 153.947 105.088C154.529 105.79 158.007 109.604 158.021 109.359C158.1 107.545 158.084 105.729 157.972 103.917Z" fill="#263238"/>
<path d="M16.6881 224.656C19.2966 222.103 22.6623 219.046 26.6521 220.119C30.3965 221.157 31.8339 225.245 32.5071 228.659C33.3695 233.056 34.0427 237.494 34.7439 241.919C35.4451 246.344 36.1463 250.859 36.7563 255.34C37.1139 257.864 37.4575 260.395 37.8291 262.92L38.355 266.713C38.5303 267.954 38.7337 269.195 38.8038 270.444C38.8038 270.843 38.2008 270.899 38.1026 270.521C37.6188 268.417 37.4014 266.222 37.1139 264.077C36.8264 261.931 36.4898 259.771 36.1743 257.626C35.5526 253.348 34.9145 249.073 34.26 244.801C33.6056 240.528 32.9441 236.258 32.2757 231.99C31.6937 228.372 31.4202 223.87 28.2158 221.472C27.346 220.875 26.338 220.51 25.2875 220.412C24.2371 220.314 23.1789 220.486 22.2136 220.911C20.11 221.718 18.4131 223.225 16.7653 224.726C16.7552 224.731 16.7439 224.732 16.7327 224.731C16.7216 224.729 16.7112 224.724 16.7029 224.717C16.6946 224.709 16.6888 224.699 16.6861 224.688C16.6835 224.678 16.6842 224.666 16.6881 224.656Z" fill="#263238"/>
<path d="M20.2572 222.048C20.2572 222.048 25.6143 220.127 28.2157 224.011C30.8171 227.896 27.7179 237.804 3.43555 243.385C4.14924 235.799 6.12083 228.384 9.26947 221.445C14.4723 210.1 23.7421 214.398 20.2572 222.048Z" fill="#3EB84B"/>
<path d="M4.83066 241.764C5.19556 241.082 5.60306 240.424 6.05073 239.794C6.45743 239.17 6.86412 238.546 7.27782 237.929C7.59336 237.459 7.9089 236.996 8.23145 236.526C8.20772 236.41 8.19132 236.293 8.18236 236.176L8.09822 235.544C8.04212 235.089 7.972 234.64 7.9089 234.184C7.84579 233.728 7.76866 233.28 7.6775 232.831C7.62119 232.354 7.51544 231.884 7.36197 231.428C7.36197 231.358 7.46013 231.323 7.46714 231.428C7.51902 231.7 7.5917 231.967 7.68452 232.228C7.74061 232.431 7.79671 232.642 7.84579 232.845C7.96499 233.301 8.07718 233.763 8.18236 234.247C8.28754 234.731 8.35766 235.11 8.42778 235.537C8.42778 235.748 8.4979 235.951 8.52595 236.162C8.96069 235.544 9.39543 234.934 9.8512 234.331C11.1414 232.635 12.5017 231.001 13.9181 229.423V229.381C13.7919 226.829 13.855 224.304 13.2941 221.794C13.2941 221.731 13.3782 221.689 13.3922 221.759C14.0156 224.093 14.313 226.502 14.2757 228.918C14.7806 228.35 15.2925 227.789 15.8043 227.235C16.9917 225.959 18.1977 224.709 19.4225 223.484C19.4332 223.477 19.4459 223.475 19.4584 223.476C19.4709 223.478 19.4825 223.483 19.4914 223.492C19.5004 223.501 19.506 223.513 19.5075 223.525C19.509 223.538 19.5062 223.55 19.4996 223.561C17.4591 225.763 15.5168 228.056 13.6236 230.391C15.1049 230.367 16.5865 230.421 18.0622 230.552C19.703 230.678 21.3438 230.889 22.9705 231.113C23.0336 231.113 23.0126 231.232 22.9705 231.218C21.3431 230.987 19.7048 230.839 18.0622 230.776C16.4775 230.713 14.8998 230.776 13.3221 230.776C12.2984 232.039 11.2886 233.315 10.293 234.605H10.5173C10.889 234.605 11.2606 234.605 11.6322 234.605C12.3685 234.605 13.1117 234.675 13.841 234.738C15.348 234.858 16.845 235.08 18.3216 235.404C18.3301 235.401 18.3392 235.4 18.3482 235.401C18.3572 235.402 18.3657 235.406 18.3732 235.411C18.3806 235.416 18.3867 235.423 18.3909 235.431C18.395 235.439 18.3972 235.448 18.3972 235.457C18.3972 235.466 18.395 235.475 18.3909 235.483C18.3867 235.491 18.3806 235.498 18.3732 235.503C18.3657 235.508 18.3572 235.511 18.3482 235.512C18.3392 235.514 18.3301 235.513 18.3216 235.509C16.8351 235.341 15.3415 235.208 13.841 235.152C13.1398 235.152 12.4386 235.152 11.6953 235.152H10.5454C10.338 235.177 10.1278 235.158 9.92833 235.096C9.27622 235.944 8.62411 236.786 7.97902 237.641C7.46013 238.342 6.95527 239.001 6.45743 239.689C5.95958 240.376 5.48277 241.168 4.9148 241.827C4.87273 241.876 4.80261 241.82 4.83066 241.764Z" fill="#263238"/>
<path d="M17.9366 227.559C18.7966 227.446 19.6642 227.404 20.531 227.432C21.3935 227.432 22.263 227.432 23.1254 227.488C23.1339 227.485 23.143 227.484 23.152 227.485C23.161 227.487 23.1696 227.49 23.177 227.495C23.1844 227.5 23.1905 227.507 23.1947 227.515C23.1989 227.523 23.2011 227.532 23.2011 227.541C23.2011 227.55 23.1989 227.559 23.1947 227.567C23.1905 227.575 23.1844 227.582 23.177 227.587C23.1696 227.592 23.161 227.596 23.152 227.597C23.143 227.598 23.1339 227.597 23.1254 227.594C22.2489 227.531 21.3725 227.516 20.496 227.531C19.6195 227.545 18.7921 227.622 17.9436 227.601C17.9016 227.601 17.9016 227.566 17.9366 227.559Z" fill="#263238"/>
<path d="M10.3142 229.515C10.216 228.687 10.1108 227.853 9.93555 227.039C9.93555 226.962 10.0337 226.934 10.0407 227.039C10.1669 227.86 10.3282 228.666 10.4474 229.487C10.5105 229.893 10.5666 230.3 10.6157 230.714C10.6869 231.095 10.7198 231.483 10.7139 231.871C10.7139 231.889 10.7065 231.907 10.6933 231.92C10.6802 231.933 10.6624 231.941 10.6438 231.941C10.6252 231.941 10.6073 231.933 10.5942 231.92C10.581 231.907 10.5736 231.889 10.5736 231.871C10.4964 231.492 10.4542 231.107 10.4474 230.721C10.4053 230.321 10.3633 229.907 10.3142 229.515Z" fill="#263238"/>
<path d="M11.9131 220.33C12.1235 221.136 12.3338 221.957 12.4881 222.777C12.5582 223.191 12.6213 223.611 12.6844 224.032C12.7591 224.437 12.785 224.849 12.7615 225.259C12.7615 225.259 12.7055 225.294 12.6984 225.259C12.6002 224.878 12.5368 224.488 12.5091 224.095C12.453 223.689 12.3899 223.289 12.3198 222.889C12.1725 222.041 12.0253 221.199 11.8079 220.372C11.7939 220.302 11.8991 220.267 11.9131 220.33Z" fill="#263238"/>
<path d="M43.5085 269.546C43.6488 268.017 43.796 266.496 43.9573 264.967C44.2728 261.945 44.6585 258.93 45.0512 255.915C45.4438 252.9 45.8365 249.906 46.3203 246.912C46.5013 245.523 46.8112 244.155 47.2459 242.824C47.4043 242.253 47.6905 241.726 48.0829 241.283C48.4754 240.839 48.9637 240.491 49.5108 240.264C52.3646 239.283 54.2929 242.242 55.4429 244.338C55.4429 244.401 55.3868 244.443 55.3517 244.387C54.6505 243.399 52.7503 240.608 50.5836 240.741C49.1321 240.825 47.9611 241.863 47.2669 245.495C45.521 254.548 43.9503 272.919 43.761 274.125C43.6628 274.763 43.214 274.735 43.207 274.048C43.207 272.547 43.3823 271.047 43.5085 269.546Z" fill="#263238"/>
<path d="M54.6786 243.209C54.6786 243.209 52.1824 234.395 57.6937 238.806C66.8794 246.14 67.2089 262.093 67.2089 262.093C67.2089 262.093 50.8571 252.612 48.8517 246.358C45.8296 237.039 54.6786 243.209 54.6786 243.209Z" fill="#3EB84B"/>
<path d="M51.5588 247.536C52.8419 247.796 54.1391 247.964 55.4293 248.153L57.2665 248.413C57.6802 248.469 58.1009 248.504 58.5216 248.56C57.3015 246.884 56.0744 245.215 54.9105 243.504C54.8684 243.441 54.9666 243.371 55.0227 243.427C55.9907 244.424 56.9013 245.475 57.7503 246.576C57.9887 245.874 58.2341 245.208 58.4515 244.528C58.7249 243.736 59.0265 242.951 59.2298 242.137C59.2298 242.074 59.349 242.102 59.328 242.137C59.1106 242.944 58.9493 243.771 58.732 244.577C58.5374 245.36 58.3034 246.132 58.0308 246.891C58.6338 247.67 59.2018 248.462 59.7627 249.268C60.0432 248.469 60.3938 247.698 60.6392 246.891C60.6453 246.879 60.6555 246.87 60.6679 246.865C60.6803 246.86 60.6941 246.859 60.7068 246.864C60.7195 246.868 60.7303 246.877 60.7372 246.888C60.7441 246.9 60.7466 246.913 60.7444 246.926C60.4499 247.817 60.2886 248.749 60.0432 249.647C60.4218 250.194 60.7935 250.741 61.1511 251.295C61.8102 252.311 62.4343 253.349 63.0373 254.394C63.0851 254.413 63.1253 254.448 63.1518 254.492C63.1784 254.536 63.1899 254.588 63.1845 254.639C64.2153 256.427 65.197 258.237 66.1646 260.06C66.172 260.073 66.174 260.088 66.1701 260.103C66.1661 260.117 66.1566 260.129 66.1436 260.137C66.1306 260.144 66.1151 260.146 66.1006 260.142C66.0862 260.138 66.0739 260.129 66.0664 260.116C65.0988 258.314 64.019 256.554 62.897 254.829C62.7228 254.778 62.5445 254.743 62.3641 254.724L61.7962 254.604C61.3755 254.513 60.9547 254.401 60.541 254.296C59.7066 254.092 58.8932 253.896 58.0518 253.749C57.9817 253.749 58.0097 253.637 58.0518 253.651C59.0405 253.833 60.0362 253.945 61.0319 254.064C61.5017 254.121 61.9715 254.177 62.4343 254.254H62.5044C61.9154 253.366 61.3194 252.482 60.7163 251.603C60.1273 250.741 59.5173 249.892 58.9002 249.044C58.3393 248.967 57.7783 248.82 57.2174 248.707L55.3171 248.343C54.055 248.09 52.7999 247.81 51.5237 247.599C51.4886 247.627 51.5167 247.522 51.5588 247.536Z" fill="#263238"/>
<path d="M61.3752 248.406C61.4523 248.175 61.5224 247.937 61.5996 247.705C61.7538 247.214 61.866 246.724 61.9712 246.226C61.9712 246.156 62.0904 246.191 62.0764 246.261C61.9712 246.759 61.852 247.249 61.7398 247.747C61.6358 248.246 61.4928 248.736 61.3121 249.213C61.263 249.325 61.0877 249.283 61.1228 249.157C61.2139 248.904 61.3121 248.652 61.3752 248.406Z" fill="#263238"/>
<path d="M49.9176 245.495C50.6608 245.607 51.4111 245.657 52.1614 245.727C52.9116 245.797 53.6549 245.895 54.4052 246.007C54.4473 246.007 54.4473 246.077 54.4052 246.07C53.6479 246.021 52.9046 245.965 52.1544 245.867C51.4041 245.769 50.6678 245.657 49.9105 245.607C49.8404 245.6 49.8474 245.481 49.9176 245.495Z" fill="#263238"/>
<path d="M31.497 258.368C31.7915 251.882 32.1982 245.403 32.8503 238.945C33.1798 235.727 33.5515 232.508 33.9932 229.311C34.3981 226.161 35.019 223.043 35.8514 219.978C36.42 217.607 37.4702 215.377 38.9366 213.429C39.667 212.471 40.6304 211.716 41.7351 211.237C42.8397 210.757 44.0489 210.568 45.2474 210.687C48.0522 211.038 50.3661 212.826 52.3505 214.768C54.5662 216.949 56.5997 219.333 58.6612 221.668C59.1801 222.257 59.692 222.846 60.2038 223.449C60.2084 223.454 60.212 223.46 60.2143 223.466C60.2166 223.473 60.2176 223.48 60.2173 223.487C60.217 223.493 60.2153 223.5 60.2124 223.506C60.2095 223.512 60.2054 223.518 60.2003 223.523C60.1953 223.527 60.1893 223.531 60.1829 223.533C60.1765 223.535 60.1696 223.536 60.1628 223.536C60.1559 223.536 60.1492 223.534 60.1431 223.531C60.1369 223.528 60.1313 223.524 60.1267 223.519C58.1143 221.212 56.0317 218.968 53.816 216.83C51.7965 214.845 49.721 212.679 46.9232 211.858C45.6253 211.443 44.2349 211.411 42.9194 211.767C41.8746 212.101 40.9329 212.697 40.1848 213.499C38.6914 215.225 37.6335 217.283 37.0995 219.501C35.3535 225.461 34.7295 231.716 34.0774 237.873C33.4253 244.029 32.9765 250.403 32.675 256.686C32.3735 262.968 32.114 269.307 31.504 275.618C31.4339 276.396 31.3287 277.167 31.2305 277.946C31.1674 278.465 30.354 278.465 30.3961 277.946C30.908 271.425 31.2235 264.911 31.497 258.368Z" fill="#263238"/>
<path d="M52.6873 215.476C52.6873 215.476 48.985 208.619 53.3885 206.417C57.792 204.215 72.4189 220.574 76.7031 244.485C76.7031 244.485 53.0379 234.016 45.0022 223.582C36.9665 213.148 46.047 210.856 52.6873 215.476Z" fill="#3EB84B"/>
<path d="M49.2095 221.052C51.874 221.052 54.5245 220.849 57.182 220.87C56.6842 220.295 56.1863 219.727 55.6815 219.159C54.9296 218.398 54.227 217.59 53.5779 216.74C53.5779 216.684 53.62 216.606 53.6761 216.649C54.3934 217.274 55.0659 217.948 55.6885 218.668C56.3546 219.369 57.0137 220.07 57.6729 220.772C58.6896 221.872 59.6853 222.987 60.681 224.109C60.681 224.004 60.681 223.892 60.681 223.787C60.681 223.324 60.681 222.854 60.681 222.384C60.681 221.48 60.681 220.582 60.681 219.678C60.681 217.848 60.681 216.01 60.5407 214.187C60.5407 214.117 60.6459 214.117 60.6529 214.187C60.7791 216.024 60.9685 217.848 61.0596 219.685C61.1017 220.589 61.1227 221.494 61.1368 222.391C61.1368 222.861 61.1368 223.324 61.1368 223.794C61.1368 224.046 61.1368 224.313 61.1368 224.572L61.6066 225.098C63.7101 227.524 65.7436 230.006 67.7069 232.58C67.7069 232.439 67.7069 232.299 67.742 232.159C67.742 231.878 67.8051 231.598 67.8402 231.318C67.9033 230.707 67.9874 230.097 68.0786 229.487C68.1697 228.877 68.2539 228.351 68.352 227.783C68.4502 227.216 68.6185 226.493 68.6676 225.848C68.6676 225.771 68.7868 225.785 68.7727 225.848C68.663 226.493 68.5881 227.144 68.5484 227.798C68.4923 228.387 68.4432 228.969 68.3871 229.55C68.331 230.132 68.2819 230.729 68.2188 231.311C68.2188 231.591 68.1697 231.871 68.1347 232.152C68.1347 232.292 68.1347 232.439 68.0856 232.58C68.0699 232.696 68.0318 232.808 67.9734 232.909L68.9831 234.234C70.3224 236.008 71.6406 237.804 72.9589 239.599C73.0009 239.655 72.9238 239.732 72.8817 239.676C71.6336 238.049 70.3551 236.446 69.0462 234.866C68.0716 234.908 67.0829 234.866 66.1082 234.816C65.1336 234.767 64.0537 234.816 63.03 234.816C63.0151 234.816 63.0008 234.811 62.9903 234.8C62.9798 234.79 62.9739 234.775 62.9739 234.76C62.9739 234.745 62.9798 234.731 62.9903 234.721C63.0008 234.71 63.0151 234.704 63.03 234.704C64.0607 234.704 65.0845 234.704 66.1082 234.704C67.132 234.704 68.0014 234.662 68.913 234.704C67.77 233.302 66.6131 231.899 65.4561 230.553L64.1799 229.123C63.7849 229.175 63.3857 229.189 62.9879 229.165H61.5855C60.709 229.165 59.8325 229.165 58.9631 229.165C57.154 229.165 55.3449 229.081 53.5428 229.074C53.528 229.074 53.5137 229.068 53.5032 229.057C53.4926 229.047 53.4867 229.032 53.4867 229.018C53.4867 229.003 53.4926 228.988 53.5032 228.978C53.5137 228.967 53.528 228.961 53.5428 228.961C55.3519 228.961 57.161 228.863 58.9701 228.814C59.8466 228.814 60.716 228.765 61.5925 228.758H62.9949C63.2614 228.758 63.5348 228.758 63.8013 228.758C62.8126 227.58 61.8169 226.395 60.8212 225.252C60.7975 225.236 60.7781 225.215 60.7651 225.189C59.7975 224.039 58.8252 222.896 57.8482 221.76C57.7149 221.606 57.5747 221.459 57.4415 221.297C54.6858 221.389 51.9301 221.206 49.1744 221.255C49.1393 221.164 49.1393 221.052 49.2095 221.052Z" fill="#263238"/>
<path d="M50.57 225.75H51.2151C51.2281 225.75 51.2406 225.755 51.2498 225.764C51.259 225.774 51.2641 225.786 51.2641 225.799C51.2641 225.812 51.259 225.825 51.2498 225.834C51.2406 225.843 51.2281 225.848 51.2151 225.848H50.57C50.5612 225.843 50.5539 225.836 50.5488 225.828C50.5437 225.819 50.541 225.809 50.541 225.799C50.541 225.789 50.5437 225.779 50.5488 225.771C50.5539 225.762 50.5612 225.755 50.57 225.75Z" fill="#263238"/>
<path d="M52.0069 225.764L54.5593 225.708L55.8354 225.666C56.2313 225.617 56.6317 225.617 57.0275 225.666C57.0696 225.666 57.0275 225.736 57.0275 225.743C56.6356 225.823 56.2348 225.852 55.8354 225.827H54.5523C53.7038 225.827 52.8554 225.827 51.9999 225.827C51.9921 225.836 51.9816 225.842 51.9699 225.845C51.9582 225.848 51.946 225.847 51.935 225.842C51.9241 225.837 51.9149 225.829 51.9089 225.818C51.9029 225.808 51.9004 225.796 51.9017 225.784C51.903 225.772 51.9081 225.761 51.9163 225.752C51.9244 225.744 51.9351 225.738 51.9469 225.735C51.9586 225.733 51.9708 225.735 51.9816 225.74C51.9924 225.745 52.0013 225.753 52.0069 225.764Z" fill="#263238"/>
<path d="M59.4399 233.743C61.1723 233.461 62.9229 233.304 64.6779 233.273C64.6779 233.273 64.6779 233.308 64.6779 233.316C62.9389 233.477 61.1719 233.575 59.468 233.855C59.3979 233.862 59.3768 233.757 59.4399 233.743Z" fill="#263238"/>
<path d="M66.557 226.114C66.557 225.96 66.5921 225.806 66.6131 225.659C66.6552 225.315 66.7113 224.957 66.7603 224.635C66.8655 223.983 66.9777 223.331 67.1039 222.685C67.1039 222.629 67.2161 222.643 67.2091 222.685C67.125 223.352 67.0549 224.025 66.9917 224.691L66.9076 225.68C66.9169 225.998 66.8718 226.316 66.7744 226.619C66.7646 226.642 66.7484 226.661 66.7278 226.674C66.7073 226.688 66.6832 226.695 66.6587 226.695C66.6341 226.695 66.6101 226.688 66.5895 226.674C66.569 226.661 66.5528 226.642 66.543 226.619C66.5142 226.452 66.5189 226.28 66.557 226.114Z" fill="#263238"/>
<path d="M31.7354 206.67C32.5768 205.093 33.6566 203.01 35.7742 203.164C37.5132 203.27 38.3055 205.051 38.6772 206.523C39.8271 211.081 39.9113 215.884 40.1357 220.547C40.6125 230.413 41.0332 240.286 41.0963 250.165C41.0963 252.9 41.0963 255.635 41.0963 258.376C41.0963 261.118 41.0963 263.986 40.9 266.791C40.891 266.839 40.8654 266.883 40.8277 266.914C40.7899 266.946 40.7423 266.963 40.6931 266.963C40.644 266.963 40.5964 266.946 40.5586 266.914C40.5208 266.883 40.4952 266.839 40.4863 266.791C40.4863 264.407 40.5564 262.015 40.5634 259.624C40.5704 257.233 40.5634 254.969 40.5213 252.612C40.4419 247.891 40.3156 243.172 40.1427 238.455C39.9674 233.771 39.764 229.08 39.5677 224.396C39.4625 222.054 39.3644 219.713 39.2592 217.385C39.154 215.057 39.0628 212.848 38.8034 210.59C38.6561 209.328 38.4668 208.059 38.2074 206.818C38.0738 205.892 37.6962 205.018 37.1135 204.286C36.7099 203.888 36.1777 203.647 35.6122 203.606C35.0468 203.565 34.4852 203.726 34.0283 204.062C33.0643 204.755 32.3079 205.698 31.8405 206.79C31.7915 206.79 31.7003 206.733 31.7354 206.67Z" fill="#263238"/>
<path d="M32.3041 205.913C32.3041 205.913 34.043 199.778 30.2005 202.849C23.8056 207.954 23.5742 219.103 23.5742 219.103C23.5742 219.103 34.9476 212.497 36.364 208.143C38.4676 201.622 32.3041 205.913 32.3041 205.913Z" fill="#3EB84B"/>
<path d="M25.9721 214.517C26.0703 214.341 26.1825 214.18 26.2947 214.012C26.2806 213.837 26.2806 213.661 26.2947 213.486C26.2947 213.219 26.2947 212.96 26.2947 212.694C26.2947 212.175 26.2947 211.656 26.2386 211.137C26.2386 211.067 26.3437 211.074 26.3508 211.137C26.3508 211.642 26.3998 212.154 26.4139 212.659V213.423C26.4139 213.521 26.4139 213.64 26.4139 213.752C26.8556 213.051 27.3184 212.35 27.8162 211.698L28.237 211.116C28.2931 210.451 28.2931 209.782 28.237 209.118C28.237 208.416 28.237 207.715 28.1949 206.972C28.1949 206.902 28.3001 206.909 28.3071 206.972C28.3071 207.715 28.3632 208.451 28.3982 209.195C28.4439 209.724 28.4579 210.255 28.4403 210.786C29.5903 209.286 30.7542 207.883 31.9252 206.432C31.9673 206.383 32.0515 206.432 32.0094 206.502C31.2801 207.437 30.579 208.372 29.9058 209.307C31.2381 208.991 32.5984 208.816 33.9587 208.606C34.0288 208.606 34.0569 208.697 33.9587 208.711C32.5563 208.928 31.1048 209.286 29.6884 209.601C29.1415 210.373 28.6016 211.144 28.0687 211.915L27.4236 212.862H27.4867L27.9284 212.806C28.244 212.764 28.5595 212.743 28.8751 212.715C29.5272 212.666 30.1863 212.63 30.8384 212.595C30.9085 212.595 30.9085 212.701 30.8384 212.701C30.1933 212.701 29.5482 212.764 28.9031 212.834L27.8864 212.96L27.4446 213.009H27.3184C26.9538 213.549 26.5821 214.082 26.2245 214.622C25.5794 215.568 25.0045 216.585 24.3243 217.504C24.3153 217.512 24.304 217.516 24.2921 217.517C24.2802 217.518 24.2683 217.515 24.2581 217.509C24.248 217.503 24.2401 217.494 24.2356 217.483C24.2311 217.471 24.2302 217.459 24.2332 217.448C24.7532 216.437 25.3339 215.458 25.9721 214.517Z" fill="#263238"/>
<path d="M28.7975 207.581V206.88C28.8116 206.377 28.7905 205.873 28.7344 205.373C28.7344 205.358 28.7403 205.343 28.7508 205.333C28.7613 205.322 28.7756 205.316 28.7905 205.316C28.8053 205.316 28.8196 205.322 28.8301 205.333C28.8407 205.343 28.8466 205.358 28.8466 205.373C28.8466 205.87 28.8957 206.368 28.9237 206.866C28.9237 207.111 28.9237 207.364 28.9237 207.609C28.9237 207.729 28.9237 207.841 28.9237 207.953C28.945 208.071 28.945 208.192 28.9237 208.31C28.9237 208.324 28.9185 208.336 28.9093 208.345C28.9001 208.354 28.8876 208.36 28.8746 208.36C28.8616 208.36 28.8491 208.354 28.8399 208.345C28.8307 208.336 28.8255 208.324 28.8255 208.31C28.8081 208.201 28.8081 208.09 28.8255 207.981L28.7975 207.581Z" fill="#263238"/>
<path d="M30.2069 210.12C30.6277 210.049 31.0624 210.028 31.4901 209.993C31.9178 209.958 32.4227 209.909 32.8925 209.853C32.901 209.85 32.9101 209.849 32.9191 209.85C32.9281 209.851 32.9366 209.854 32.9441 209.86C32.9515 209.865 32.9576 209.872 32.9617 209.88C32.9659 209.888 32.9681 209.897 32.9681 209.906C32.9681 209.915 32.9659 209.924 32.9617 209.932C32.9576 209.94 32.9515 209.947 32.9441 209.952C32.9366 209.957 32.9281 209.96 32.9191 209.961C32.9101 209.962 32.901 209.961 32.8925 209.958C31.995 210.014 31.0974 210.176 30.1999 210.211C30.1649 210.211 30.1579 210.134 30.2069 210.12Z" fill="#263238"/>
<path d="M31.4689 239.437C33.86 237.642 36.0057 235.062 39.2241 234.936C41.8817 234.83 43.7398 236.829 44.8337 239.052C45.3667 240.236 45.8006 241.463 46.1309 242.719C46.6147 244.402 47.0635 246.085 47.4842 247.781C48.3163 251.119 49.0175 254.483 49.5878 257.872C49.9103 259.758 50.2118 261.658 50.4502 263.558C50.7561 265.485 50.9434 267.429 51.0112 269.378C51.0108 269.452 50.9831 269.524 50.9333 269.579C50.8835 269.634 50.8152 269.669 50.7414 269.677C50.6676 269.684 50.5935 269.665 50.5334 269.621C50.4732 269.578 50.4311 269.514 50.4152 269.441C50.0926 267.85 49.9594 266.209 49.714 264.603C49.4686 262.997 49.2372 261.371 48.9637 259.765C48.4168 256.539 47.781 253.333 47.0565 250.144C46.3553 247.136 45.6962 244.086 44.7285 241.155C44.0273 239.052 42.9124 236.597 40.6476 235.847C37.1977 234.697 34.0634 237.621 31.532 239.514C31.49 239.542 31.4128 239.437 31.4689 239.437Z" fill="#263238"/>
<path d="M33.9442 237.705C33.9442 237.705 36.146 231.395 32.9555 230.175C28.1804 228.324 15.6711 242.41 18.1253 263.993C18.1253 263.993 27.7877 258.671 34.9189 252.683C42.05 246.695 43.8801 238.869 40.7388 236.85C37.5974 234.831 33.9442 237.705 33.9442 237.705Z" fill="#3EB84B"/>
<path d="M19.5629 259.364C19.8966 258.612 20.2856 257.885 20.7269 257.19C21.1336 256.454 21.5473 255.718 21.975 254.989C22.8094 253.586 23.6298 252.142 24.4853 250.732L24.899 250.031C24.899 249.947 24.899 249.863 24.8499 249.779L24.7097 249.155C24.5975 248.685 24.5203 248.215 24.4292 247.752C24.2609 246.834 24.0996 245.894 23.8472 244.99C23.8472 244.92 23.9384 244.899 23.9594 244.99C24.1557 245.915 24.4432 246.82 24.7167 247.724C24.8499 248.173 24.9972 248.615 25.1093 249.064L25.2356 249.526C26.2593 247.844 27.3391 246.168 28.433 244.548C28.3582 244.322 28.3203 244.085 28.3208 243.847C28.3208 243.531 28.2507 243.216 28.2086 242.9C28.1245 242.199 28.0473 241.498 27.9422 240.797C27.7609 239.405 27.5081 238.025 27.1849 236.66C27.1849 236.589 27.276 236.575 27.2901 236.66C27.6336 238.02 27.9913 239.38 28.2717 240.754C28.3979 241.456 28.5171 242.115 28.6083 242.795C28.6504 243.132 28.6854 243.496 28.7205 243.819L28.7626 244.127C29.1061 243.636 29.4638 243.146 29.8144 242.669C30.9222 241.217 32.0652 239.801 33.2222 238.391C33.2642 238.335 33.3554 238.391 33.3063 238.455C31.3289 240.983 29.5139 243.634 27.872 246.392L26.9324 247.851H27.248C27.6477 247.794 28.0614 247.773 28.461 247.731C29.2744 247.652 30.0878 247.582 30.9012 247.521C32.535 247.395 34.1618 247.29 35.8096 247.121C35.8797 247.121 35.9007 247.219 35.8096 247.226C34.1618 247.416 32.528 247.675 30.9012 247.928L28.4821 248.25C27.8681 248.374 27.2433 248.438 26.6169 248.44C25.9788 249.484 25.3337 250.543 24.6956 251.56C24.8359 251.56 24.9831 251.56 25.1304 251.56H27.4373C28.4891 251.56 29.5409 251.56 30.5857 251.56C30.6558 251.56 30.6418 251.665 30.5857 251.665C29.5269 251.665 28.4821 251.735 27.4093 251.791L25.8947 251.882L25.1444 251.939C24.9134 251.989 24.6742 251.989 24.4432 251.939C23.9056 252.822 23.361 253.706 22.8094 254.589C22.3116 255.402 21.8067 256.216 21.2878 257.022C20.8082 257.884 20.2619 258.707 19.6541 259.483C19.626 259.469 19.5419 259.434 19.5629 259.364Z" fill="#263238"/>
<path d="M24.1702 241.926C24.2665 242.618 24.4118 243.302 24.6049 243.974C24.7802 244.675 24.9835 245.376 25.2079 246.077C25.2146 246.086 25.2191 246.097 25.2209 246.107C25.2228 246.118 25.2221 246.13 25.2188 246.14C25.2154 246.151 25.2097 246.161 25.2019 246.168C25.1941 246.176 25.1845 246.182 25.174 246.186C25.1635 246.189 25.1522 246.19 25.1413 246.189C25.1303 246.187 25.1199 246.183 25.1108 246.176C25.1018 246.17 25.0945 246.161 25.0894 246.151C25.0844 246.141 25.0817 246.13 25.0817 246.119C24.8643 245.418 24.675 244.752 24.5067 244.065C24.3384 243.378 24.2333 242.662 24.065 241.961C24.0439 241.87 24.1632 241.849 24.1702 241.926Z" fill="#263238"/>
<path d="M31.2728 246.14C31.4172 246.01 31.605 245.94 31.7987 245.943L32.7102 245.817C33.2712 245.74 33.8392 245.677 34.4071 245.614C35.5851 245.473 36.7631 245.361 37.9131 245.207C37.9832 245.207 38.0042 245.312 37.9131 245.319C36.7982 245.452 35.6973 245.621 34.5894 245.768C34.0425 245.838 33.5026 245.915 32.9557 245.978L32.1703 246.069C31.8651 246.069 31.562 246.119 31.2728 246.217C31.2728 246.245 31.2237 246.175 31.2728 246.14Z" fill="#263238"/>
<path d="M24.2121 255.628C24.7661 255.586 25.327 255.565 25.881 255.551H26.7224H27.1291C27.3039 255.568 27.4801 255.568 27.655 255.551C27.7321 255.551 27.7461 255.67 27.655 255.656C27.4917 255.642 27.3275 255.642 27.1641 255.656H26.7224L25.881 255.705C25.327 255.705 24.7661 255.775 24.2051 255.775C24.128 255.747 24.121 255.635 24.2121 255.628Z" fill="#263238"/>
<path d="M20.7827 253.216C20.7196 252.901 20.6565 252.585 20.6004 252.269C20.4812 251.645 20.369 251.021 20.2568 250.397C20.2568 250.334 20.348 250.313 20.362 250.397C20.5023 251 20.6355 251.61 20.7757 252.213C20.8388 252.515 20.9089 252.816 20.9721 253.125C20.9721 253.265 21.0281 253.405 21.0632 253.546C21.1071 253.689 21.1238 253.838 21.1123 253.987C21.1123 254.043 21.0282 254.086 20.9931 254.029C20.8716 253.774 20.8002 253.498 20.7827 253.216Z" fill="#263238"/>
<path d="M23.4756 271.818L23.7701 280.667L25.6002 314.079H55.3588L57.1819 280.667L57.4835 271.818H23.4756Z" fill="#37474F"/>
<path d="M23.4756 271.818L23.7701 280.667H57.1819L57.4835 271.818H23.4756Z" fill="#263238"/>
<path d="M19.57 274.426H61.3682V265.5H19.57V274.426Z" fill="#37474F"/>
</svg>
