<svg width="785" height="568" viewBox="0 0 785 568" fill="none" xmlns="http://www.w3.org/2000/svg">
<path d="M691.945 129.324H251.445V318.296H691.945V129.324Z" fill="white" stroke="#263238" stroke-linecap="round" stroke-linejoin="round"/>
<path d="M703.932 123.998H239.475V131.978H703.932V123.998Z" fill="white" stroke="#263238" stroke-linecap="round" stroke-linejoin="round"/>
<path d="M691.945 311.635H251.445V318.296H691.945V311.635Z" fill="#263238" stroke="#263238" stroke-linecap="round" stroke-linejoin="round"/>
<path d="M347.763 198.581C350.576 182.122 339.514 166.498 323.055 163.684C306.595 160.871 290.971 171.933 288.158 188.393C285.344 204.852 296.407 220.476 312.866 223.29C329.326 226.103 344.949 215.041 347.763 198.581Z" stroke="#263238" stroke-miterlimit="10"/>
<path d="M317.406 154.469V240.231" stroke="#263238" stroke-miterlimit="10"/>
<path d="M277.822 194.049H355.889" stroke="#263238" stroke-miterlimit="10"/>
<path d="M440.966 201.396H519.032" stroke="#263238" stroke-miterlimit="10"/>
<path d="M479.45 160.725V246.487" stroke="#263238" stroke-miterlimit="10"/>
<path d="M450.869 171.715L462.723 180.931C467.853 184.923 474.149 187.125 480.65 187.201C487.15 187.276 493.496 185.22 498.717 181.348L510.254 172.817" stroke="#263238" stroke-miterlimit="10"/>
<path d="M510.202 227.042L498.348 217.826C493.213 213.838 486.915 211.638 480.413 211.563C473.911 211.487 467.563 213.54 462.337 217.409L450.817 225.94" stroke="#263238" stroke-miterlimit="10"/>
<path d="M619.505 159.893V231.899" stroke="#263238" stroke-miterlimit="10"/>
<path d="M580.822 196.42H653.913" stroke="#263238" stroke-miterlimit="10"/>
<path d="M585.514 193.551V199.394" stroke="#263238" stroke-miterlimit="10"/>
<path d="M589.753 193.551V199.394" stroke="#263238" stroke-miterlimit="10"/>
<path d="M594.012 193.551V199.394" stroke="#263238" stroke-miterlimit="10"/>
<path d="M598.251 193.551V199.394" stroke="#263238" stroke-miterlimit="10"/>
<path d="M602.508 193.551V199.394" stroke="#263238" stroke-miterlimit="10"/>
<path d="M606.749 193.551V199.394" stroke="#263238" stroke-miterlimit="10"/>
<path d="M610.99 193.551V199.394" stroke="#263238" stroke-miterlimit="10"/>
<path d="M615.248 193.551V199.394" stroke="#263238" stroke-miterlimit="10"/>
<path d="M623.728 193.551V199.394" stroke="#263238" stroke-miterlimit="10"/>
<path d="M627.986 193.551V199.394" stroke="#263238" stroke-miterlimit="10"/>
<path d="M632.226 193.551V199.394" stroke="#263238" stroke-miterlimit="10"/>
<path d="M636.482 193.551V199.394" stroke="#263238" stroke-miterlimit="10"/>
<path d="M640.724 193.551V199.394" stroke="#263238" stroke-miterlimit="10"/>
<path d="M644.965 193.551V199.394" stroke="#263238" stroke-miterlimit="10"/>
<path d="M649.224 193.551V199.394" stroke="#263238" stroke-miterlimit="10"/>
<path d="M616.582 228.324H622.425" stroke="#263238" stroke-miterlimit="10"/>
<path d="M616.582 224.07H622.425" stroke="#263238" stroke-miterlimit="10"/>
<path d="M616.582 219.83H622.425" stroke="#263238" stroke-miterlimit="10"/>
<path d="M616.582 215.57H622.425" stroke="#263238" stroke-miterlimit="10"/>
<path d="M616.582 211.33H622.425" stroke="#263238" stroke-miterlimit="10"/>
<path d="M616.582 207.088H622.425" stroke="#263238" stroke-miterlimit="10"/>
<path d="M616.582 202.83H622.425" stroke="#263238" stroke-miterlimit="10"/>
<path d="M616.582 190.096H622.425" stroke="#263238" stroke-miterlimit="10"/>
<path d="M616.582 185.854H622.425" stroke="#263238" stroke-miterlimit="10"/>
<path d="M616.582 181.596H622.425" stroke="#263238" stroke-miterlimit="10"/>
<path d="M616.582 177.355H622.425" stroke="#263238" stroke-miterlimit="10"/>
<path d="M616.582 173.117H622.425" stroke="#263238" stroke-miterlimit="10"/>
<path d="M616.582 168.855H622.425" stroke="#263238" stroke-miterlimit="10"/>
<path d="M616.582 164.615H622.425" stroke="#263238" stroke-miterlimit="10"/>
<path d="M283.116 257.707H349.796" stroke="#263238" stroke-miterlimit="10"/>
<path d="M283.116 265.922H349.796" stroke="#263238" stroke-miterlimit="10"/>
<path d="M283.116 274.137H349.796" stroke="#263238" stroke-miterlimit="10"/>
<path d="M283.116 282.371H349.796" stroke="#263238" stroke-miterlimit="10"/>
<path d="M452.088 257.707H518.768" stroke="#263238" stroke-miterlimit="10"/>
<path d="M452.088 265.922H518.768" stroke="#263238" stroke-miterlimit="10"/>
<path d="M452.088 274.137H518.768" stroke="#263238" stroke-miterlimit="10"/>
<path d="M452.088 282.371H518.768" stroke="#263238" stroke-miterlimit="10"/>
<path d="M590.004 257.707H656.684" stroke="#263238" stroke-miterlimit="10"/>
<path d="M590.004 265.922H656.684" stroke="#263238" stroke-miterlimit="10"/>
<path d="M590.004 274.137H656.684" stroke="#263238" stroke-miterlimit="10"/>
<path d="M590.004 282.371H656.684" stroke="#263238" stroke-miterlimit="10"/>
<path d="M366.241 213.867H432.905" stroke="#263238" stroke-miterlimit="10"/>
<path d="M366.241 222.08H432.905" stroke="#263238" stroke-miterlimit="10"/>
<path d="M366.241 230.295H432.905" stroke="#263238" stroke-miterlimit="10"/>
<path d="M366.241 238.527H432.905" stroke="#263238" stroke-miterlimit="10"/>
<path d="M516.028 152.664H582.692" stroke="#263238" stroke-miterlimit="10"/>
<path d="M516.028 160.895H582.692" stroke="#263238" stroke-miterlimit="10"/>
<path d="M516.028 169.109H582.692" stroke="#263238" stroke-miterlimit="10"/>
<path d="M516.028 177.32H582.692" stroke="#263238" stroke-miterlimit="10"/>
<path d="M132.156 317.814H46.1592V390.054H132.156V317.814Z" fill="#263238" stroke="#263238" stroke-linecap="round" stroke-linejoin="round"/>
<path d="M184.345 399.236H98.3486V403.827H184.345V399.236Z" fill="#263238" stroke="#263238" stroke-linecap="round" stroke-linejoin="round"/>
<path d="M94.9105 369.986H78.2822V403.243H94.9105V369.986Z" fill="#707070" stroke="#263238" stroke-linecap="round" stroke-linejoin="round"/>
<path d="M265.769 410.389H36.4287V562.965H265.769V410.389Z" fill="#707070" stroke="#263238" stroke-linecap="round" stroke-linejoin="round"/>
<path d="M40.1859 411.49H32.4561V566.571H40.1859V411.49Z" fill="#707070" stroke="#263238" stroke-linecap="round" stroke-linejoin="round"/>
<path d="M268.89 411.49H261.16V566.571H268.89V411.49Z" fill="#707070" stroke="#263238" stroke-linecap="round" stroke-linejoin="round"/>
<path d="M279.759 402.242H25.9932V416.817H279.759V402.242Z" fill="#707070" stroke="#263238" stroke-linecap="round" stroke-linejoin="round"/>
<path d="M394.403 261.153C394.403 261.153 385.188 266.879 382.199 274.358C379.211 281.838 366.756 320.487 363.517 325.479C360.279 330.471 360.279 338.184 364.018 342.424C367.758 346.665 374.035 349.386 379.211 344.411C384.386 339.436 385.889 329.469 390.897 317.699C395.906 305.929 400.13 272.806 402.584 266.078C404.078 262.061 405.081 257.88 405.572 253.623L394.403 261.153Z" fill="white" stroke="#263238" stroke-linecap="round" stroke-linejoin="round"/>
<path d="M469.648 358.353C469.648 358.353 471.134 378.171 470.383 388.254C469.632 398.338 462.92 461.947 462.92 461.947L453.204 547.759H438.261L427.41 421.211L412.852 547.392H397.525C397.525 547.392 388.56 467.923 385.939 448.891C384.37 436.988 383.995 424.958 384.82 412.98C384.82 411.861 381.481 386.451 381.481 379.356C381.533 374.521 381.867 369.694 382.483 364.898L381.865 362.16C381.865 362.16 409.513 369.639 428.612 365.148C447.711 360.657 466.343 354.697 466.343 354.697L469.648 358.353Z" fill="#263238" stroke="#263238" stroke-linecap="round" stroke-linejoin="round"/>
<path d="M453.203 547.759L457.678 563.085C457.833 563.327 457.938 563.599 457.985 563.883C458.032 564.167 458.021 564.458 457.953 564.737C457.884 565.017 457.759 565.28 457.585 565.509C457.412 565.739 457.193 565.931 456.943 566.074C455.073 567.192 434.138 566.074 434.138 566.074C433.547 565.769 433.078 565.272 432.808 564.665C432.538 564.058 432.483 563.377 432.652 562.735C433.019 560.113 438.261 547.709 438.261 547.709L453.203 547.759Z" stroke="#263238" stroke-linecap="round" stroke-linejoin="round"/>
<path d="M412.851 547.393L414.203 561.366C414.285 562.236 414.054 563.106 413.552 563.821V563.821C413.217 564.287 412.776 564.666 412.265 564.928C411.754 565.189 411.188 565.325 410.614 565.323H381.648C378.71 565.323 373.033 565.223 373.584 562.335C373.952 560.465 397.492 547.443 397.492 547.443L412.851 547.393Z" stroke="#263238" stroke-linecap="round" stroke-linejoin="round"/>
<path d="M427.41 421.211L423.687 405.451L410.23 396.102" stroke="#6B6B6B" stroke-linecap="round" stroke-linejoin="round"/>
<path d="M389.177 280.334V309.467C389.177 311.137 380.212 349.535 379.461 353.308C378.709 357.081 379.461 360.537 382.449 364.761C385.437 368.985 396.657 373.242 421.065 375.229C445.473 377.216 463.671 368.25 468.646 362.524C473.621 356.798 467.895 345.829 466.158 330.386C464.422 314.943 463.904 266.06 456.943 262.888C449.981 259.716 427.543 248.947 427.543 248.947C427.543 248.947 414.838 248.947 406.373 252.687C400.813 255.352 395.884 259.171 391.915 263.889" fill="white"/>
<path d="M389.177 280.334V309.467C389.177 311.137 380.212 349.535 379.461 353.308C378.709 357.081 379.461 360.537 382.449 364.761C385.437 368.985 396.657 373.242 421.065 375.229C445.473 377.216 463.671 368.25 468.646 362.524C473.621 356.798 467.895 345.829 466.158 330.386C464.422 314.943 463.904 266.06 456.943 262.888C449.981 259.716 427.543 248.947 427.543 248.947C427.543 248.947 414.838 248.947 406.373 252.687C400.813 255.352 395.884 259.171 391.915 263.889" stroke="#263238" stroke-linecap="round" stroke-linejoin="round"/>
<path d="M426.041 243.959C427.432 243.843 428.823 244.166 430.021 244.881C431.219 245.597 432.162 246.67 432.719 247.949C434.472 252.44 428.979 279.586 428.979 279.586C428.979 279.586 416.775 270.871 413.787 270.871C410.798 270.871 397.092 279.586 397.092 279.586C397.092 279.586 401.583 260.904 405.573 253.675C409.563 246.447 420.515 242.473 425.006 243.658L426.041 243.959Z" fill="white" stroke="#263238" stroke-linecap="round" stroke-linejoin="round"/>
<path d="M427.043 241.469C427.043 241.469 428.044 243.956 423.553 255.927C419.062 267.897 416.875 278.098 414.087 275.343C411.299 272.588 408.11 258.164 408.11 258.164C408.11 258.164 422.552 247.696 427.043 241.469Z" fill="white" stroke="#263238" stroke-linecap="round" stroke-linejoin="round"/>
<path d="M386.974 222.171C388.238 229.092 389.865 235.94 391.849 242.69C394.269 249.969 397.391 260.737 405.722 263.158C414.053 265.579 416.491 259.351 419.963 256.48C423.436 253.608 428.979 244.326 428.979 239.785C428.979 235.244 428.628 225.21 426.892 221.737C425.155 218.265 422.033 214.792 413.018 213.056C404.003 211.32 395.655 212.789 386.974 222.171Z" fill="white" stroke="#263238" stroke-linecap="round" stroke-linejoin="round"/>
<path d="M426.209 231.537C426.209 231.537 421 233.624 419.614 230.502C418.229 227.38 415.791 222.855 415.791 222.855C415.791 222.855 405.023 227.38 398.445 227.663C391.867 227.947 384.555 223.857 383.519 219.316C382.484 214.775 386.291 204.741 394.972 199.282C403.654 193.823 421.684 191.285 427.244 199.966C431.459 206.587 433.523 214.348 433.154 222.188C433.154 228.081 432.803 232.205 432.803 232.205C431.815 231.629 430.716 231.272 429.578 231.157C428.441 231.042 427.292 231.171 426.209 231.537Z" fill="#263238" stroke="#263238" stroke-linecap="round" stroke-linejoin="round"/>
<path d="M424.122 233.972C424.122 233.972 427.244 225.975 430.366 227.027C433.488 228.079 433.839 234.323 432.036 238.129C430.232 241.936 425.792 243.338 424.756 242.654" fill="white"/>
<path d="M424.122 233.972C424.122 233.972 427.244 225.975 430.366 227.027C433.488 228.079 433.839 234.323 432.036 238.129C430.232 241.936 425.792 243.338 424.756 242.654" stroke="#263238" stroke-linecap="round" stroke-linejoin="round"/>
<path d="M400.78 238.198C400.78 238.198 413.335 237.314 415.99 237.664C418.644 238.015 418.277 241.003 417.576 244.342C416.874 247.681 412.801 249.651 408.026 248.766C403.251 247.882 402.183 243.758 401.348 243.107C400.513 242.456 400.113 241.688 399.061 242.222C398.009 242.756 398.176 246.463 396.941 248.049C395.705 249.635 392.333 250.887 388.593 248.933C384.853 246.98 385.054 241.337 385.054 239.384C385.054 237.43 386.99 237.614 387.875 237.714C388.76 237.814 400.78 238.198 400.78 238.198Z" stroke="#263238" stroke-linecap="round" stroke-linejoin="round"/>
<path d="M417.759 238.383L425.539 230.42" stroke="#263238" stroke-linecap="round" stroke-linejoin="round"/>
<path d="M385.921 237.663L388.926 233.957" stroke="#263238" stroke-linecap="round" stroke-linejoin="round"/>
<path d="M398.828 244.209C398.828 244.209 398.127 246.329 397.76 248.099C397.392 249.869 398.828 253.408 400.948 253.107C403.069 252.807 403.603 251.688 403.603 251.688" stroke="#263238" stroke-linecap="round" stroke-linejoin="round"/>
<path d="M413.369 235.729C410.982 234.989 408.411 235.113 406.106 236.08" stroke="#263238" stroke-linecap="round" stroke-linejoin="round"/>
<path d="M397.057 236.43C396.266 235.78 395.282 235.409 394.259 235.375C393.235 235.342 392.229 235.649 391.397 236.247" stroke="#263238" stroke-linecap="round" stroke-linejoin="round"/>
<path d="M449.715 259.902C449.715 259.902 460.433 263.141 465.158 267.131C469.882 271.121 477.512 302.458 479.749 317.4C481.986 332.342 485.475 345.264 482.487 347.017C479.499 348.77 432.769 342.66 432.769 342.66L431.283 335.448L461.735 329.104C461.735 329.104 444.723 295.713 444.239 286.564C443.787 281.662 444.466 276.721 446.225 272.123" fill="white"/>
<path d="M449.715 259.902C449.715 259.902 460.433 263.141 465.158 267.131C469.882 271.121 477.512 302.458 479.749 317.4C481.986 332.342 485.475 345.264 482.487 347.017C479.499 348.77 432.769 342.66 432.769 342.66L431.283 335.448L461.735 329.104C461.735 329.104 444.723 295.713 444.239 286.564C443.787 281.662 444.466 276.721 446.225 272.123" stroke="#263238" stroke-linecap="round" stroke-linejoin="round"/>
<path d="M399.896 318.248L413.086 350.637L390.681 358.851L376.724 327.464L399.896 318.248Z" fill="#F59C04" stroke="#263238" stroke-linecap="round" stroke-linejoin="round"/>
<path d="M376.721 327.467L360.777 315.764L374.968 348.653L390.678 358.854L376.721 327.467Z" fill="#F59C04" stroke="#263238" stroke-linecap="round" stroke-linejoin="round"/>
<path d="M431.282 335.45C431.282 335.45 413.334 330.442 411.348 328.972C409.361 327.503 392.666 334.198 391.664 334.198C390.662 334.198 390.913 335.45 391.914 335.951C392.916 336.452 403.868 333.447 403.868 333.447C403.868 333.447 393.417 338.939 393.417 340.125C393.43 340.509 393.525 340.887 393.695 341.232C393.864 341.577 394.106 341.883 394.402 342.128C394.402 342.128 394.652 344.365 395.905 344.866C397.157 345.367 409.845 342.863 409.845 342.863C409.845 342.863 399.828 346.602 401.13 347.354C401.73 347.723 402.421 347.918 403.125 347.918C403.83 347.918 404.52 347.723 405.12 347.354C406.606 346.602 415.588 343.864 415.588 343.864C415.588 343.864 422.266 345.851 426.039 344.866C428.308 344.249 430.538 343.496 432.717 342.612L431.282 335.45Z" fill="white" stroke="#263238" stroke-linecap="round" stroke-linejoin="round"/>
<path d="M394.403 342.175L406.858 338.686" stroke="#263238" stroke-linecap="round" stroke-linejoin="round"/>
<path d="M363.517 325.479C363.517 325.479 371.982 331.706 373.534 333.693C373.968 334.252 374.281 334.896 374.453 335.583C374.626 336.27 374.654 336.985 374.536 337.683L369.043 335.446C369.043 335.446 376.022 341.673 376.272 342.658C376.523 343.643 379.01 347.9 376.022 347.399C373.034 346.898 364.068 342.174 362.315 339.669C360.562 337.165 360.078 325.479 360.078 325.479C360.078 325.479 360.779 322.991 363.517 325.479Z" fill="white" stroke="#263238" stroke-linecap="round" stroke-linejoin="round"/>
<path d="M376.22 344.162L366.253 338.186" stroke="#263238" stroke-linecap="round" stroke-linejoin="round"/>
<path d="M377.224 346.4C377.224 346.4 368.259 342.426 366.506 340.924" stroke="#263238" stroke-linecap="round" stroke-linejoin="round"/>
<path d="M368.992 335.449L366.004 333.445" stroke="#263238" stroke-linecap="round" stroke-linejoin="round"/>
<path d="M430.479 425.43H423.534V566.57H430.479V425.43Z" fill="white" stroke="#263238" stroke-linecap="round" stroke-linejoin="round"/>
<path d="M747.521 425.43H740.576V566.57H747.521V425.43Z" fill="white" stroke="#263238" stroke-linecap="round" stroke-linejoin="round"/>
<path d="M757.287 417.1H417.726V430.205H757.287V417.1Z" fill="white" stroke="#263238" stroke-linecap="round" stroke-linejoin="round"/>
<path d="M74.5067 425.43H67.5615V566.57H74.5067V425.43Z" fill="white" stroke="#263238" stroke-linecap="round" stroke-linejoin="round"/>
<path d="M391.531 425.43H384.586V566.57H391.531V425.43Z" fill="white" stroke="#263238" stroke-linecap="round" stroke-linejoin="round"/>
<path d="M401.314 417.1H61.7529V430.205H401.314V417.1Z" fill="white" stroke="#263238" stroke-linecap="round" stroke-linejoin="round"/>
<path d="M645.099 450.178L661.059 552.435L669.607 552.969L671.627 452.682L645.099 450.178Z" fill="#707070" stroke="#263238" stroke-linecap="round" stroke-linejoin="round"/>
<path d="M661.058 552.434V563.82C661.06 564.274 661.233 564.712 661.542 565.046C661.851 565.379 662.274 565.585 662.727 565.623L668.988 565.973C669.251 565.988 669.514 565.944 669.758 565.845C670.003 565.747 670.223 565.596 670.402 565.404C670.582 565.211 670.718 564.981 670.799 564.731C670.881 564.48 670.906 564.215 670.874 563.953L669.606 552.968L661.058 552.434Z" fill="white" stroke="#263238" stroke-linecap="round" stroke-linejoin="round"/>
<path d="M707.454 450.426L689.74 552.333L681.175 552.667L680.892 452.362L707.454 450.426Z" fill="#707070" stroke="#263238" stroke-linecap="round" stroke-linejoin="round"/>
<path d="M689.739 552.332L689.539 563.701C689.53 564.165 689.343 564.608 689.017 564.938C688.69 565.267 688.249 565.458 687.786 565.471L681.508 565.688C681.246 565.696 680.985 565.646 680.745 565.542C680.504 565.438 680.288 565.283 680.113 565.088C679.939 564.892 679.808 564.661 679.732 564.41C679.656 564.159 679.635 563.894 679.672 563.635L681.174 552.666L689.739 552.332Z" fill="white" stroke="#263238" stroke-linecap="round" stroke-linejoin="round"/>
<path d="M640.056 351.359C640.056 351.359 613.344 403.114 612.609 407.522C611.875 411.929 616.249 418.457 623.895 417.722C631.541 416.988 651.459 416.637 651.459 416.637L651.826 409.709L628.87 406.804L642.71 395.869L640.056 351.359Z" fill="#F59C04" stroke="#263238" stroke-linecap="round" stroke-linejoin="round"/>
<path d="M628.87 406.801L626.082 412.26" stroke="#263238" stroke-linecap="round" stroke-linejoin="round"/>
<path d="M711.594 352.477C711.594 352.477 738.807 403.146 739.541 407.57C740.276 411.995 735.902 418.506 728.255 417.771C720.609 417.036 702.729 416.686 702.729 416.686L702.361 409.641L714.782 406.736L706.084 395.667L711.594 352.477Z" fill="#F59C04" stroke="#263238" stroke-linecap="round" stroke-linejoin="round"/>
<path d="M714.782 406.801L726.068 412.26" stroke="#263238" stroke-linecap="round" stroke-linejoin="round"/>
<path d="M665.465 337.716L647.936 346.999C639.171 351.64 640.59 349.036 640.072 351.356C639.555 353.677 643.027 434.114 643.027 434.114C643.027 434.114 649.705 440.625 667.268 442.361C693.546 444.932 704.882 436.685 704.882 436.685C704.882 436.685 711.56 355.313 711.56 352.475C711.56 349.637 700.709 344.127 693.764 340.788C686.818 337.449 679.105 334.628 665.465 337.716Z" fill="#F59C04" stroke="#263238" stroke-linecap="round" stroke-linejoin="round"/>
<path d="M674.816 282.758C674.816 282.758 663.446 287.766 659.79 295.93C656.134 304.094 662.061 323.193 660.692 328.185C659.323 333.177 652.979 332.726 652.979 332.726C652.979 332.726 655.7 348.186 671.143 350.006C686.586 351.825 693.414 349.538 699.775 342.727C706.136 335.915 704.783 335.915 704.783 335.915C704.783 335.915 702.062 335.915 700.693 328.185C699.324 320.455 701.144 298.651 694.332 289.119C687.521 279.586 677.153 279.953 674.816 282.758Z" fill="#263238" stroke="#263238" stroke-linecap="round" stroke-linejoin="round"/>
<path d="M643.011 434.117C643.011 434.117 640.707 459.878 641.475 463.233C642.243 466.589 650.24 471.998 666.518 472.516C682.795 473.033 703.113 473.801 708.022 467.875C712.93 461.948 704.916 436.688 704.916 436.688C704.916 436.688 661.576 440.294 643.011 434.117Z" fill="#707070" stroke="#263238" stroke-linecap="round" stroke-linejoin="round"/>
<path d="M675.633 337.234C675.633 337.234 676.017 334.562 683.98 336.85" stroke="#263238" stroke-linecap="round" stroke-linejoin="round"/>
<path d="M642.642 565.024C642.403 565.007 642.171 564.943 641.957 564.835C641.744 564.727 641.554 564.578 641.398 564.397C641.243 564.215 641.125 564.004 641.052 563.776C640.979 563.549 640.952 563.309 640.972 563.07L646.265 465.621L652.342 466.105L644.562 563.371C644.524 563.843 644.3 564.282 643.941 564.591C643.582 564.901 643.115 565.056 642.642 565.024Z" fill="#263238" stroke="#263238" stroke-linecap="round" stroke-linejoin="round"/>
<path d="M708.172 565.024C708.652 564.985 709.097 564.758 709.41 564.392C709.723 564.026 709.878 563.551 709.841 563.07L704.549 465.621L698.472 466.105L706.235 563.371C706.277 563.845 706.504 564.283 706.866 564.592C707.228 564.901 707.697 565.056 708.172 565.024Z" fill="#263238" stroke="#263238" stroke-linecap="round" stroke-linejoin="round"/>
<path d="M714.4 388.904C700.802 390.866 687.085 391.876 673.346 391.925C660.493 391.783 647.665 390.774 634.948 388.904C634.465 388.827 633.97 388.865 633.505 389.016C633.04 389.166 632.617 389.425 632.27 389.77C631.924 390.115 631.663 390.537 631.511 391.001C631.358 391.466 631.317 391.96 631.392 392.443C633.362 404.764 638.954 440.208 638.954 446.986C638.954 455.233 636.116 462.98 636.116 466.586C636.116 470.192 637.669 473.03 640.24 474.049C641.442 474.533 654.948 474.566 673.213 474.466C694.349 474.566 707.872 474.466 709.057 474.049C711.628 473.03 713.181 470.192 713.181 466.586C713.181 462.98 710.343 455.233 710.343 446.986C710.343 440.208 715.936 404.747 717.922 392.443C717.999 391.962 717.961 391.47 717.812 391.007C717.662 390.544 717.405 390.122 717.061 389.777C716.718 389.432 716.298 389.173 715.835 389.021C715.373 388.869 714.881 388.829 714.4 388.904ZM701.177 464.416C700.259 464.766 689.841 464.8 673.547 464.716C659.473 464.8 649.055 464.716 648.137 464.416C647.092 463.897 646.23 463.073 645.663 462.054C645.097 461.034 644.853 459.867 644.965 458.706C644.965 455.951 647.135 450.041 647.135 443.68C647.135 442.211 646.784 438.939 646.25 434.798L651.409 440.391C652.116 441.149 652.972 441.754 653.922 442.168C654.873 442.581 655.898 442.795 656.935 442.795H692.329C694.293 442.796 696.181 442.03 697.588 440.658L702.98 435.399C702.479 439.256 702.162 442.278 702.162 443.747C702.162 450.041 704.349 455.951 704.349 458.773C704.447 459.923 704.197 461.076 703.631 462.082C703.065 463.088 702.21 463.901 701.177 464.416ZM708.005 402.126C707.137 407.469 705.368 418.504 703.999 427.987L698.857 431.176C695.974 432.928 692.664 433.852 689.29 433.847H660.458C657.182 433.847 653.965 432.971 651.142 431.309L645.282 427.87C643.93 418.404 642.177 407.435 641.309 402.126C641.254 401.755 641.288 401.377 641.406 401.022C641.525 400.666 641.726 400.344 641.993 400.081C642.259 399.817 642.584 399.621 642.941 399.506C643.298 399.391 643.677 399.363 644.047 399.422C653.851 400.851 663.74 401.621 673.647 401.726C684.261 401.696 694.86 400.926 705.368 399.422C705.731 399.376 706.099 399.416 706.445 399.537C706.79 399.658 707.103 399.857 707.358 400.119C707.614 400.381 707.805 400.698 707.917 401.047C708.03 401.395 708.06 401.764 708.005 402.126Z" fill="#263238" stroke="#263238" stroke-linecap="round" stroke-linejoin="round"/>
<path d="M512.337 358.753V344.846H532.187V359.788L512.337 358.753Z" fill="white" stroke="#263238" stroke-linecap="round" stroke-linejoin="round"/>
<path d="M502.553 327.065C502.553 327.065 499.447 326.281 499.447 331.189C499.447 336.097 503.521 339.52 505.19 339.169C506.86 338.819 504.422 329.636 504.155 327.833C503.888 326.03 502.553 327.065 502.553 327.065Z" fill="white" stroke="#263238" stroke-linecap="round" stroke-linejoin="round"/>
<path d="M541.219 327.065C541.219 327.065 544.308 326.281 544.308 331.189C544.308 336.097 540.251 339.52 538.581 339.169C536.912 338.819 539.349 329.636 539.6 327.833C539.85 326.03 541.219 327.065 541.219 327.065Z" fill="white" stroke="#263238" stroke-linecap="round" stroke-linejoin="round"/>
<path d="M541.287 307.649C541.287 307.649 543.224 306.681 541.053 302.073C540.474 300.768 539.606 299.611 538.516 298.689C537.426 297.766 536.142 297.103 534.759 296.747C534.759 296.747 536.429 295.779 536.429 294.81C536.429 293.842 534.258 293.608 527.714 295.545C525.942 295.928 524.34 296.867 523.139 298.224C521.938 299.581 521.201 301.286 521.036 303.091C520.913 303.02 520.785 302.958 520.652 302.907C519.066 302.14 512.922 299.402 509.984 300.871C506.645 302.54 510.468 302.073 510.468 302.073C506.616 302.701 503.152 304.78 500.785 307.883C497.162 312.891 499.816 313.459 500.551 313.459C501.285 313.459 502.003 311.272 502.003 311.272V315.88C502.003 315.88 502.087 316.28 502.237 316.915C501.219 323.743 503.022 331.473 504.023 336.331C505.309 342.525 510.468 348.452 514.341 349.687C518.214 350.923 530.051 349.687 530.051 349.687C533.003 346.716 535.521 343.344 537.531 339.67C539.681 335.127 540.82 330.171 540.87 325.145C542.188 322.386 542.965 319.399 543.157 316.347C543.708 310.07 541.287 307.649 541.287 307.649Z" fill="#263238" stroke="#263238" stroke-linecap="round" stroke-linejoin="round"/>
<path d="M535.026 333.859C535.026 333.859 524.091 327.965 513.322 332.573C507.095 335.228 502.504 341.839 502.504 341.839C507.925 340.22 513.542 339.355 519.199 339.268C526.177 339.424 533.142 339.936 540.068 340.804C538.83 338.197 537.121 335.843 535.026 333.859Z" fill="#F59C04" stroke="#263238" stroke-linecap="round" stroke-linejoin="round"/>
<path d="M478.579 358.332C478.579 358.332 450.197 403.142 449.463 407.516C448.728 411.89 453.102 418.451 460.749 417.717C468.395 416.982 496.81 416.631 496.81 416.631L497.177 409.703L474.238 406.798L488.078 395.863L478.579 358.332Z" fill="#F59C04" stroke="#263238" stroke-linecap="round" stroke-linejoin="round"/>
<path d="M474.238 406.801L462.936 412.26" stroke="#263238" stroke-linecap="round" stroke-linejoin="round"/>
<path d="M565.944 356.533C565.944 356.533 594.71 403.146 595.427 407.52C596.145 411.894 591.788 418.455 584.142 417.721C576.495 416.986 548.08 416.636 548.08 416.636L547.713 409.707L570.669 406.802L556.828 395.867L565.944 356.533Z" fill="#F59C04" stroke="#263238" stroke-linecap="round" stroke-linejoin="round"/>
<path d="M570.669 406.801L581.955 412.26" stroke="#263238" stroke-linecap="round" stroke-linejoin="round"/>
<path d="M510.8 337.718L493.27 347.001C484.505 351.642 479.096 356.016 478.578 358.337C478.061 360.657 488.378 434.116 488.378 434.116C488.378 434.116 495.056 440.627 512.603 442.363C538.881 444.934 550.217 436.687 550.217 436.687C550.217 436.687 565.944 359.372 565.944 356.55C565.944 353.729 546.093 344.179 539.148 340.823C532.203 337.468 524.457 334.63 510.8 337.718Z" fill="#F59C04" stroke="#263238" stroke-linecap="round" stroke-linejoin="round"/>
<path d="M473.419 455.5L504.088 553.517L512.602 552.482L499.964 453.18L473.419 455.5Z" fill="white" stroke="#263238" stroke-linecap="round" stroke-linejoin="round"/>
<path d="M504.09 553.518L506.11 564.72C506.192 565.175 506.445 565.581 506.818 565.855C507.191 566.128 507.655 566.248 508.113 566.189L514.341 565.388C514.602 565.356 514.854 565.266 515.077 565.126C515.3 564.987 515.49 564.799 515.634 564.578C515.777 564.357 515.87 564.107 515.906 563.846C515.942 563.585 515.921 563.319 515.843 563.067L512.604 552.482L504.09 553.518Z" fill="white" stroke="#263238" stroke-linecap="round" stroke-linejoin="round"/>
<path d="M567.98 455.5L537.311 553.517L528.797 552.482L541.435 453.18L567.98 455.5Z" fill="white" stroke="#263238" stroke-linecap="round" stroke-linejoin="round"/>
<path d="M537.311 553.518L535.241 564.72C535.159 565.175 534.906 565.581 534.533 565.855C534.16 566.128 533.696 566.248 533.238 566.189L527.01 565.388C526.749 565.356 526.497 565.266 526.274 565.126C526.051 564.987 525.861 564.799 525.717 564.578C525.574 564.357 525.481 564.107 525.445 563.846C525.409 563.585 525.43 563.319 525.508 563.067L528.747 552.482L537.311 553.518Z" fill="white" stroke="#263238" stroke-linecap="round" stroke-linejoin="round"/>
<path d="M514.657 443.899C514.657 443.899 486.575 435.134 481.417 437.722C476.258 440.31 471.099 446.988 472.902 454.417C474.705 461.846 490.182 470.912 493.521 471.112C496.86 471.313 514.924 471.112 514.924 471.112L514.657 443.899Z" fill="white" stroke="#263238" stroke-linecap="round" stroke-linejoin="round"/>
<path d="M528.463 443.899C528.463 443.899 556.561 435.134 561.72 437.722C566.879 440.31 572.021 446.988 570.218 454.417C568.415 461.846 552.955 470.912 549.599 471.112C546.244 471.313 528.213 471.112 528.213 471.112L528.463 443.899Z" fill="white" stroke="#263238" stroke-linecap="round" stroke-linejoin="round"/>
<path d="M488.379 434.115C488.379 434.115 486.059 459.876 486.827 463.231C487.595 466.587 495.592 471.996 511.869 472.514C528.147 473.031 548.465 473.799 553.373 467.873C558.282 461.946 550.268 436.686 550.268 436.686C550.268 436.686 506.861 440.292 488.379 434.115Z" fill="white" stroke="#263238" stroke-linecap="round" stroke-linejoin="round"/>
<path d="M487.995 565.02C487.515 564.981 487.07 564.754 486.757 564.388C486.444 564.022 486.289 563.547 486.326 563.066L491.618 465.617L497.695 466.101L489.932 563.367C489.889 563.841 489.663 564.28 489.301 564.588C488.939 564.897 488.47 565.052 487.995 565.02Z" fill="#263238" stroke="#263238" stroke-linecap="round" stroke-linejoin="round"/>
<path d="M553.606 565.02C554.086 564.981 554.532 564.754 554.845 564.388C555.157 564.022 555.312 563.547 555.276 563.066L549.983 465.617L543.906 466.101L551.669 563.367C551.712 563.841 551.939 564.28 552.301 564.588C552.663 564.897 553.131 565.052 553.606 565.02Z" fill="#263238" stroke="#263238" stroke-linecap="round" stroke-linejoin="round"/>
<path d="M559.685 388.904C546.088 390.866 532.37 391.876 518.632 391.925C505.779 391.782 492.95 390.772 480.233 388.904C479.75 388.827 479.256 388.865 478.79 389.016C478.325 389.166 477.902 389.425 477.555 389.77C477.209 390.115 476.948 390.537 476.796 391.001C476.643 391.466 476.602 391.96 476.677 392.443C478.664 404.764 484.256 440.208 484.256 446.986C484.256 455.233 481.418 462.98 481.418 466.586C481.418 470.192 482.954 473.03 485.542 474.049C486.727 474.533 500.234 474.566 518.498 474.466C539.651 474.566 553.157 474.466 554.342 474.049C556.93 473.03 558.466 470.192 558.466 466.586C558.466 462.98 555.645 455.233 555.645 446.986C555.645 440.208 561.237 404.747 563.207 392.443C563.284 391.962 563.246 391.47 563.097 391.007C562.947 390.544 562.69 390.122 562.347 389.777C562.003 389.432 561.583 389.173 561.12 389.021C560.658 388.869 560.166 388.829 559.685 388.904ZM546.462 464.416C545.544 464.766 535.126 464.8 518.832 464.716C504.758 464.8 494.34 464.716 493.422 464.416C492.377 463.897 491.515 463.073 490.948 462.054C490.382 461.034 490.138 459.867 490.25 458.706C490.25 455.951 492.437 450.041 492.437 443.68C492.437 442.211 492.086 438.939 491.535 434.798L496.711 440.391C497.416 441.152 498.271 441.758 499.222 442.172C500.173 442.585 501.2 442.798 502.237 442.795H537.631C539.594 442.791 541.479 442.025 542.889 440.658L548.265 435.399C547.781 439.256 547.464 442.278 547.464 443.747C547.464 450.041 549.634 455.951 549.634 458.773C549.732 459.923 549.482 461.076 548.916 462.082C548.35 463.088 547.496 463.901 546.462 464.416ZM553.291 402.126C552.422 407.469 550.653 418.504 549.3 427.987L544.058 431.176C541.18 432.925 537.876 433.849 534.509 433.847H505.76C502.478 433.85 499.255 432.974 496.427 431.309L490.584 427.87C489.215 418.404 487.462 407.435 486.594 402.126C486.539 401.755 486.573 401.377 486.692 401.022C486.811 400.666 487.011 400.344 487.278 400.081C487.545 399.817 487.869 399.621 488.226 399.506C488.583 399.391 488.962 399.363 489.332 399.422C499.136 400.851 509.025 401.621 518.932 401.726C529.519 401.693 540.09 400.923 550.569 399.422C550.939 399.362 551.317 399.39 551.673 399.505C552.03 399.619 552.354 399.817 552.619 400.08C552.885 400.344 553.084 400.667 553.201 401.023C553.317 401.378 553.348 401.756 553.291 402.126Z" fill="#263238" stroke="#263238" stroke-linecap="round" stroke-linejoin="round"/>
<path d="M492.469 389.389L502.369 426.268L510.082 425.166L501.818 391.041L492.469 389.389Z" fill="#757575" stroke="#263238" stroke-linecap="round" stroke-linejoin="round"/>
<path d="M531.553 424.063L538.715 391.04L548.632 389.922L539.266 426.267L531.553 424.063Z" fill="#757575" stroke="#263238" stroke-linecap="round" stroke-linejoin="round"/>
<path d="M483.186 449.49L496.325 476.92V489.041L482.001 459.307L483.186 449.49Z" fill="#757575" stroke="#263238" stroke-linecap="round" stroke-linejoin="round"/>
<path d="M556.897 449.49L543.774 476.92V489.041L558.082 459.307L556.897 449.49Z" fill="#757575" stroke="#263238" stroke-linecap="round" stroke-linejoin="round"/>
<path d="M533.99 416.919C533.99 416.919 510.316 415.249 503.154 417.47C495.992 419.69 492.152 425.166 492.703 433.981C493.254 442.796 488.296 476.921 488.847 485.736C489.397 494.551 492.703 500.06 507.011 502.815C521.318 505.57 536.194 504.484 544.458 501.145C552.722 497.806 556.662 485.218 551.603 471.962C546.545 458.706 547.814 438.322 545.61 428.422C543.406 418.521 537.847 417.47 533.99 416.919Z" fill="#F59C04" stroke="#263238" stroke-linecap="round" stroke-linejoin="round"/>
<path d="M547.345 483.299C547.345 483.499 546.961 488.758 546.911 488.959C543.038 503.667 522.286 501.33 510.783 499.41C505.057 498.458 496.476 495.57 494.255 489.393C491.834 482.715 494.973 474.367 496.175 467.605C496.91 463.415 497.327 450.576 502.068 448.439C506.81 446.303 535.592 443.214 539.95 451.912C544.825 461.695 545.609 471.98 547.345 483.299Z" fill="#F59C04" stroke="#263238" stroke-linecap="round" stroke-linejoin="round"/>
<path d="M525.578 427.117H514.692V433.211H525.578V427.117Z" fill="#263238" stroke="#263238" stroke-linecap="round" stroke-linejoin="round"/>
<path d="M497.713 468.07H544.743C544.851 469.78 544.337 471.472 543.298 472.834C542.258 474.196 540.761 475.136 539.083 475.483C532.055 476.985 524.308 476.702 517.179 476.718C510.785 476.702 496.978 477.653 497.713 468.07Z" fill="#263238" stroke="#263238" stroke-linecap="round" stroke-linejoin="round"/>
<path d="M289.106 450.779L305.067 553.053L313.615 553.571L315.635 453.3L289.106 450.779Z" fill="#F59C04" stroke="#263238" stroke-linecap="round" stroke-linejoin="round"/>
<path d="M305.068 553.051V564.42C305.067 564.878 305.238 565.319 305.547 565.657C305.857 565.994 306.282 566.202 306.738 566.24L313.015 566.574C313.278 566.585 313.539 566.539 313.782 566.44C314.025 566.341 314.244 566.19 314.423 565.998C314.602 565.806 314.738 565.577 314.821 565.328C314.903 565.079 314.931 564.815 314.902 564.554L313.633 553.568L305.068 553.051Z" fill="white" stroke="#263238" stroke-linecap="round" stroke-linejoin="round"/>
<path d="M351.481 451.027L333.751 552.934L325.203 553.268L324.902 452.981L351.481 451.027Z" fill="#F59C04" stroke="#263238" stroke-linecap="round" stroke-linejoin="round"/>
<path d="M333.749 552.934L333.549 564.303C333.542 564.755 333.367 565.188 333.059 565.518C332.75 565.849 332.329 566.052 331.879 566.089L325.602 566.29C325.339 566.297 325.078 566.247 324.836 566.143C324.595 566.04 324.378 565.885 324.202 565.69C324.026 565.495 323.894 565.264 323.816 565.013C323.738 564.762 323.715 564.497 323.749 564.236L325.251 553.268L333.749 552.934Z" fill="white" stroke="#263238" stroke-linecap="round" stroke-linejoin="round"/>
<path d="M284.081 351.955C284.081 351.955 257.369 403.71 256.618 408.117C255.867 412.525 260.274 419.053 267.921 418.318C275.567 417.584 295.467 417.233 295.467 417.233L295.835 410.304L272.896 407.399L286.736 396.464L284.081 351.955Z" fill="white" stroke="#263238" stroke-linecap="round" stroke-linejoin="round"/>
<path d="M272.895 407.402L270.107 412.862" stroke="#263238" stroke-linecap="round" stroke-linejoin="round"/>
<path d="M355.921 350.84C355.921 350.84 382.833 403.763 383.551 408.121C384.269 412.478 379.911 419.056 372.265 418.321C364.619 417.587 346.755 417.236 346.755 417.236L346.388 410.308L358.792 407.403L350.962 396.534L355.921 350.84Z" fill="white" stroke="#263238" stroke-linecap="round" stroke-linejoin="round"/>
<path d="M358.793 407.402L370.079 412.862" stroke="#263238" stroke-linecap="round" stroke-linejoin="round"/>
<path d="M309.458 338.335L291.929 347.6C283.164 352.242 284.583 349.637 284.082 351.958C283.581 354.278 287.037 434.682 287.037 434.682C287.037 434.682 293.715 441.21 311.261 442.929C337.556 445.5 348.892 437.253 348.892 437.253C348.892 437.253 355.57 355.881 355.57 353.043C355.57 350.205 344.718 344.695 337.757 341.356C330.795 338.017 323.115 335.229 309.458 338.335Z" fill="white" stroke="#263238" stroke-linecap="round" stroke-linejoin="round"/>
<path d="M287.037 434.682C287.037 434.682 284.716 460.459 285.484 463.798C286.252 467.137 294.249 472.563 310.527 473.08C326.804 473.598 347.122 474.366 352.014 468.439C356.906 462.512 348.925 437.253 348.925 437.253C348.925 437.253 305.585 440.892 287.037 434.682Z" fill="#F59C04" stroke="#263238" stroke-linecap="round" stroke-linejoin="round"/>
<path d="M321.545 287.866C321.545 287.866 313.198 282.858 304.383 292.441C295.568 302.024 304.767 321.056 305.902 325.631C307.037 330.205 290.659 356.216 290.659 367.903C290.659 379.589 304.85 391.276 327.288 388.955C349.726 386.634 352.464 374.831 349.409 360.724C346.354 346.616 342.915 331.724 342.915 325.664C342.915 319.604 348.257 305.83 343.299 292.474C338.34 279.118 326.136 282.908 321.545 287.866Z" fill="#263238" stroke="#263238" stroke-linecap="round" stroke-linejoin="round"/>
<path d="M309.357 327.918L319.658 337.835C319.658 337.835 308.973 363.395 307.821 370.257C306.669 377.119 312.83 383.613 321.177 382.845C329.525 382.077 334.917 374.831 334.533 368.738C334.149 362.644 328.039 337.451 328.039 337.451C333.312 334.698 337.781 330.625 341.011 325.631" stroke="#808080" stroke-linecap="round" stroke-linejoin="round"/>
<path d="M319.659 337.853C319.659 337.853 320.043 335.181 328.007 337.469" stroke="#263238" stroke-linecap="round" stroke-linejoin="round"/>
<path d="M286.651 565.625C286.174 565.587 285.731 565.362 285.419 565C285.107 564.637 284.949 564.166 284.982 563.689L290.274 466.223L296.351 466.723L288.588 563.972C288.549 564.448 288.324 564.889 287.961 565.199C287.598 565.509 287.127 565.662 286.651 565.625Z" fill="#263238" stroke="#263238" stroke-linecap="round" stroke-linejoin="round"/>
<path d="M352.18 565.625C352.417 565.608 352.649 565.545 352.861 565.438C353.073 565.332 353.262 565.184 353.418 565.004C353.573 564.824 353.691 564.615 353.765 564.389C353.839 564.164 353.868 563.925 353.85 563.689L348.574 466.223L342.497 466.723L350.26 563.972C350.299 564.445 350.522 564.883 350.881 565.193C351.24 565.502 351.707 565.658 352.18 565.625Z" fill="#263238" stroke="#263238" stroke-linecap="round" stroke-linejoin="round"/>
<path d="M358.407 389.506C344.815 391.468 331.103 392.478 317.37 392.528C304.517 392.393 291.688 391.383 278.971 389.506C278.488 389.432 277.994 389.473 277.529 389.625C277.065 389.778 276.643 390.038 276.298 390.385C275.953 390.731 275.695 391.155 275.544 391.62C275.394 392.085 275.355 392.579 275.432 393.062C277.402 405.367 282.995 440.81 282.995 447.605C282.995 455.853 280.157 463.582 280.157 467.189C280.157 470.795 281.709 473.633 284.28 474.668C285.466 475.135 298.972 475.169 317.236 475.069C338.389 475.169 351.895 475.069 353.098 474.668C355.669 473.633 357.221 470.795 357.221 467.189C357.221 463.582 354.383 455.853 354.383 447.605C354.383 440.81 359.976 405.367 361.946 393.062C362.026 392.579 361.991 392.083 361.841 391.616C361.692 391.149 361.434 390.724 361.088 390.377C360.743 390.029 360.319 389.769 359.853 389.618C359.386 389.466 358.891 389.428 358.407 389.506ZM345.184 465.018C344.266 465.386 333.848 465.402 317.554 465.335C303.48 465.335 293.062 465.335 292.144 465.018C291.099 464.5 290.237 463.676 289.67 462.657C289.104 461.637 288.86 460.469 288.972 459.309C288.972 456.554 291.159 450.66 291.159 444.366C291.159 442.881 290.808 439.608 290.274 435.485L295.433 441.061C296.137 441.823 296.992 442.432 297.943 442.849C298.894 443.265 299.921 443.481 300.959 443.482H336.352C338.304 443.485 340.18 442.724 341.578 441.361L346.954 436.119C346.47 439.959 346.152 442.981 346.152 444.467C346.152 450.761 348.339 456.654 348.339 459.409C348.432 460.552 348.18 461.696 347.618 462.695C347.056 463.695 346.209 464.504 345.184 465.018ZM352.012 402.729C351.144 408.071 349.391 419.107 348.022 428.59L342.797 431.778C339.915 433.536 336.606 434.466 333.23 434.466H304.481C301.198 434.464 297.975 433.582 295.149 431.912L289.306 428.473C287.937 419.023 286.184 408.055 285.332 402.729C285.274 402.357 285.305 401.977 285.422 401.62C285.54 401.263 285.741 400.939 286.008 400.675C286.276 400.411 286.602 400.214 286.961 400.101C287.319 399.988 287.699 399.961 288.07 400.024C297.868 401.46 307.752 402.236 317.654 402.345C328.268 402.301 338.867 401.526 349.375 400.024C349.738 399.979 350.106 400.018 350.452 400.139C350.797 400.26 351.11 400.46 351.365 400.721C351.621 400.983 351.812 401.301 351.924 401.649C352.037 401.997 352.067 402.367 352.012 402.729Z" fill="#263238" stroke="#263238" stroke-linecap="round" stroke-linejoin="round"/>
<path d="M156.364 336.8V322.893H176.198V337.835L156.364 336.8Z" fill="white" stroke="#263238" stroke-linecap="round" stroke-linejoin="round"/>
<path d="M146.565 305.108C146.565 305.108 143.477 304.324 143.477 309.232C143.477 314.14 147.6 317.463 149.136 317.212C150.672 316.962 148.368 307.679 148.118 305.876C147.867 304.073 146.565 305.108 146.565 305.108Z" fill="white" stroke="#263238" stroke-linecap="round" stroke-linejoin="round"/>
<path d="M185.231 305.108C185.231 305.108 188.336 304.324 188.336 309.232C188.336 314.14 184.212 317.463 182.66 317.212C181.107 316.962 183.428 307.679 183.695 305.876C183.962 304.073 185.231 305.108 185.231 305.108Z" fill="white" stroke="#263238" stroke-linecap="round" stroke-linejoin="round"/>
<path d="M160.221 280.619C160.221 280.619 151.456 281.905 147.85 289.635C144.244 297.365 146.832 308.2 148.117 314.377C149.403 320.554 154.561 326.498 158.418 327.733C162.275 328.968 174.145 327.733 174.145 327.733C177.091 324.758 179.608 321.386 181.624 317.716C185.23 311.272 185.748 299.151 184.195 292.206C182.643 285.261 177.233 278.282 173.11 277.765C168.986 277.247 165.129 281.104 165.129 281.104C163.599 280.379 161.864 280.208 160.221 280.619Z" fill="#263238" stroke="#263238" stroke-linecap="round" stroke-linejoin="round"/>
<path d="M179.037 334.229C179.037 334.229 164.011 331.909 157.333 332.944C150.655 333.979 146.515 342.209 146.515 342.209C151.936 340.593 157.553 339.728 163.21 339.638C170.188 339.797 177.154 340.315 184.079 341.191C182.84 338.581 181.13 336.221 179.037 334.229Z" fill="white" stroke="#263238" stroke-linecap="round" stroke-linejoin="round"/>
<path d="M122.607 358.701C122.607 358.701 94.2088 403.528 93.4909 407.968C92.773 412.409 97.1304 418.904 104.777 418.169C112.423 417.435 140.838 417.084 140.838 417.084L141.189 410.155L118.25 407.251L132.09 396.282L122.607 358.701Z" fill="white" stroke="#263238" stroke-linecap="round" stroke-linejoin="round"/>
<path d="M118.251 407.17L106.965 412.629" stroke="#263238" stroke-linecap="round" stroke-linejoin="round"/>
<path d="M209.973 356.898C209.973 356.898 238.722 403.528 239.457 407.885C240.191 412.243 235.817 418.821 228.154 418.086C220.491 417.351 192.109 417.001 192.109 417.001L191.742 410.072L214.698 407.167L200.841 396.282L209.973 356.898Z" fill="white" stroke="#263238" stroke-linecap="round" stroke-linejoin="round"/>
<path d="M214.682 407.17L225.984 412.629" stroke="#263238" stroke-linecap="round" stroke-linejoin="round"/>
<path d="M154.811 338.082L137.282 347.365C128.533 352.006 123.107 356.38 122.607 358.701C122.106 361.021 132.39 434.48 132.39 434.48C132.39 434.48 139.068 440.991 156.614 442.727C182.909 445.298 194.245 437.051 194.245 437.051C194.245 437.051 209.972 359.736 209.972 356.914C209.972 354.093 190.122 344.526 183.16 341.187C176.198 337.848 168.468 334.994 154.811 338.082Z" fill="white" stroke="#263238" stroke-linecap="round" stroke-linejoin="round"/>
<path d="M117.449 455.868L148.118 553.884L156.616 552.866L143.994 453.547L117.449 455.868Z" fill="#F59C04" stroke="#263238" stroke-linecap="round" stroke-linejoin="round"/>
<path d="M148.118 553.884L150.122 565.086C150.207 565.542 150.464 565.949 150.84 566.222C151.215 566.495 151.681 566.614 152.142 566.555L158.369 565.754C158.629 565.719 158.879 565.629 159.1 565.488C159.321 565.347 159.509 565.16 159.651 564.939C159.792 564.718 159.884 564.468 159.919 564.208C159.954 563.948 159.932 563.684 159.855 563.433L156.616 552.865L148.118 553.884Z" fill="white" stroke="#263238" stroke-linecap="round" stroke-linejoin="round"/>
<path d="M211.994 455.868L181.325 553.884L172.827 552.866L185.449 453.547L211.994 455.868Z" fill="#F59C04" stroke="#263238" stroke-linecap="round" stroke-linejoin="round"/>
<path d="M181.308 553.884L179.304 565.086C179.218 565.542 178.961 565.949 178.586 566.222C178.21 566.495 177.745 566.614 177.284 566.555L171.057 565.754C170.797 565.719 170.547 565.629 170.326 565.488C170.104 565.347 169.916 565.16 169.775 564.939C169.633 564.718 169.542 564.468 169.507 564.208C169.471 563.948 169.493 563.684 169.571 563.433L172.81 552.865L181.308 553.884Z" fill="white" stroke="#263238" stroke-linecap="round" stroke-linejoin="round"/>
<path d="M158.686 444.265C158.686 444.265 130.588 435.517 125.429 438.021C120.27 440.525 115.128 447.303 116.931 454.716C118.734 462.129 134.194 471.211 137.55 471.411C140.906 471.612 158.936 471.411 158.936 471.411L158.686 444.265Z" fill="#F59C04" stroke="#263238" stroke-linecap="round" stroke-linejoin="round"/>
<path d="M172.491 444.263C172.491 444.263 200.572 435.515 205.731 438.086C210.889 440.657 216.048 447.369 214.229 454.781C212.409 462.194 196.966 471.276 193.61 471.476C190.254 471.677 172.224 471.476 172.224 471.476L172.491 444.263Z" fill="#F59C04" stroke="#263238" stroke-linecap="round" stroke-linejoin="round"/>
<path d="M132.39 434.482C132.39 434.482 130.069 460.26 130.837 463.599C131.605 466.938 139.602 472.364 155.88 472.881C172.158 473.399 192.476 474.167 197.367 468.24C202.259 462.313 194.279 437.053 194.279 437.053C194.279 437.053 150.955 440.66 132.39 434.482Z" fill="#F59C04" stroke="#263238" stroke-linecap="round" stroke-linejoin="round"/>
<path d="M132.022 565.387C131.785 565.37 131.554 565.307 131.342 565.2C131.129 565.093 130.94 564.946 130.785 564.766C130.63 564.586 130.512 564.377 130.438 564.151C130.364 563.925 130.335 563.687 130.353 563.45L135.629 465.984L141.706 466.485L133.959 563.734C133.921 564.21 133.695 564.651 133.332 564.961C132.969 565.271 132.498 565.424 132.022 565.387Z" fill="#263238" stroke="#263238" stroke-linecap="round" stroke-linejoin="round"/>
<path d="M197.536 565.387C197.773 565.37 198.004 565.307 198.216 565.2C198.429 565.093 198.618 564.946 198.773 564.766C198.928 564.586 199.046 564.377 199.12 564.151C199.195 563.925 199.223 563.687 199.205 563.45L193.93 465.984L187.853 466.485L195.616 563.734C195.654 564.207 195.877 564.645 196.237 564.955C196.596 565.264 197.063 565.419 197.536 565.387Z" fill="#263238" stroke="#263238" stroke-linecap="round" stroke-linejoin="round"/>
<path d="M203.713 389.269C190.116 391.232 176.398 392.242 162.66 392.291C149.807 392.149 136.978 391.139 124.261 389.269C123.776 389.192 123.28 389.231 122.814 389.382C122.347 389.533 121.923 389.793 121.576 390.14C121.229 390.487 120.969 390.911 120.817 391.378C120.666 391.845 120.627 392.341 120.705 392.825C122.675 405.13 128.268 440.573 128.268 447.368C128.268 455.616 125.43 463.345 125.43 466.952C125.43 470.558 126.982 473.396 129.553 474.431C130.755 474.898 144.262 474.932 162.526 474.832C183.662 474.932 197.185 474.832 198.37 474.431C200.941 473.396 202.494 470.558 202.494 466.952C202.494 463.345 199.656 455.616 199.656 447.368C199.656 440.573 205.249 405.113 207.219 392.809C207.299 392.329 207.264 391.837 207.116 391.373C206.969 390.91 206.713 390.488 206.371 390.142C206.029 389.797 205.609 389.537 205.147 389.386C204.685 389.234 204.193 389.194 203.713 389.269ZM190.49 464.731C189.572 465.082 179.154 465.115 162.843 465.048C148.769 465.048 138.368 465.048 137.45 464.731C136.402 464.215 135.536 463.393 134.967 462.373C134.397 461.353 134.151 460.184 134.261 459.021C134.261 456.267 136.448 450.373 136.448 444.079C136.448 442.593 136.098 439.321 135.563 435.198L140.722 440.774C141.428 441.535 142.283 442.142 143.233 442.559C144.184 442.975 145.21 443.192 146.248 443.194H181.642C183.61 443.198 185.501 442.424 186.901 441.041L192.293 435.799C191.793 439.638 191.475 442.66 191.475 444.146C191.475 450.44 193.662 456.334 193.662 459.088C193.76 460.238 193.51 461.391 192.944 462.397C192.379 463.404 191.524 464.217 190.49 464.731ZM197.302 402.442C196.451 407.784 194.681 418.82 193.312 428.302L188.086 431.491C185.203 433.243 181.894 434.168 178.52 434.162H149.771C146.495 434.163 143.279 433.286 140.455 431.625L134.562 428.236C133.209 418.77 131.457 407.818 130.588 402.492C130.534 402.121 130.567 401.743 130.686 401.387C130.805 401.032 131.006 400.71 131.273 400.446C131.539 400.183 131.864 399.986 132.221 399.872C132.578 399.757 132.956 399.728 133.326 399.787C143.136 401.218 153.031 401.988 162.943 402.091C173.558 402.061 184.157 401.291 194.664 399.787C195.027 399.742 195.396 399.781 195.741 399.902C196.087 400.023 196.399 400.222 196.655 400.484C196.91 400.746 197.102 401.064 197.214 401.412C197.326 401.76 197.356 402.13 197.302 402.492V402.442Z" fill="#263238" stroke="#263238" stroke-linecap="round" stroke-linejoin="round"/>
<path d="M1 566.572H784" stroke="#263238" stroke-linecap="round" stroke-linejoin="round"/>
</svg>
