<svg width="758" height="395" viewBox="0 0 758 395" fill="none" xmlns="http://www.w3.org/2000/svg">
<path d="M642.291 344.068H148V344.349H642.291V344.068Z" fill="#EBEBEB"/>
<path d="M592.761 362.121H560.02V362.402H592.761V362.121Z" fill="#EBEBEB"/>
<path d="M475.438 365.174H466.848V365.454H475.438V365.174Z" fill="#EBEBEB"/>
<path d="M559.033 351.709H540.062V351.99H559.033V351.709Z" fill="#EBEBEB"/>
<path d="M242.556 353.594H199.859V353.874H242.556V353.594Z" fill="#EBEBEB"/>
<path d="M257.625 353.594H251.367V353.874H257.625V353.594Z" fill="#EBEBEB"/>
<path d="M370.579 358.33H277.969V358.611H370.579V358.33Z" fill="#EBEBEB"/>
<path d="M378.98 79.6108C378.98 78.7346 379.133 77.8669 379.428 77.0575C379.724 76.2481 380.158 75.5129 380.704 74.8938C381.25 74.2747 381.899 73.784 382.612 73.4497C383.326 73.1154 384.091 72.9441 384.863 72.9456C385.435 72.9475 386.004 73.042 386.553 73.2261C386.462 72.5465 386.416 71.8601 386.415 71.1726C386.417 67.4248 387.731 63.8315 390.066 61.1825C392.402 58.5335 395.569 57.0454 398.871 57.0454C399.64 57.0481 400.408 57.1307 401.164 57.2923C402.388 54.9974 404.237 53.2175 406.431 52.2217C408.625 51.226 411.046 51.0688 413.326 51.7738C415.606 52.4789 417.622 54.0078 419.068 56.1292C420.514 58.2506 421.312 60.849 421.341 63.5311H421.519C424.125 63.624 426.596 64.864 428.41 66.9888C430.224 69.1135 431.238 71.9561 431.238 74.9148C431.238 77.8736 430.224 80.7162 428.41 82.8409C426.596 84.9656 424.125 86.2057 421.519 86.2985H384.694C383.166 86.2349 381.719 85.5037 380.654 84.2576C379.589 83.0114 378.99 81.3467 378.98 79.6108Z" fill="#EBEBEB"/>
<path d="M509.266 107.013C509.281 105.249 509.906 103.562 511.006 102.316C512.106 101.069 513.593 100.363 515.148 100.348C515.72 100.348 516.29 100.443 516.838 100.628C516.747 99.9488 516.701 99.2624 516.7 98.575C516.698 96.4978 517.101 94.4459 517.878 92.5657C518.656 90.6854 519.79 89.0231 521.199 87.6974C522.607 86.3716 524.257 85.4151 526.028 84.8961C527.8 84.377 529.651 84.3082 531.449 84.6946C532.673 82.3998 534.522 80.6198 536.716 79.6241C538.91 78.6284 541.331 78.4712 543.611 79.1762C545.891 79.8812 547.907 81.4101 549.353 83.5315C550.799 85.6529 551.597 88.2513 551.626 90.9335H551.804C554.41 91.0263 556.881 92.2664 558.695 94.3911C560.509 96.5158 561.523 99.3584 561.523 102.317C561.523 105.276 560.509 108.119 558.695 110.243C556.881 112.368 554.41 113.608 551.804 113.701H514.98C513.451 113.637 512.004 112.906 510.939 111.66C509.874 110.414 509.275 108.749 509.266 107.013Z" fill="#EBEBEB"/>
<path d="M345.371 162.13C345.373 161.502 345.503 160.882 345.753 160.321C346.002 159.76 346.363 159.273 346.808 158.898C347.252 158.523 347.767 158.271 348.312 158.162C348.858 158.053 349.418 158.09 349.948 158.27C349.897 157.861 349.871 157.449 349.869 157.036C349.869 154.77 350.662 152.597 352.072 150.994C353.483 149.39 355.396 148.488 357.392 148.485C357.857 148.488 358.32 148.537 358.776 148.631C359.521 147.251 360.64 146.182 361.965 145.585C363.291 144.988 364.751 144.896 366.127 145.323C367.502 145.749 368.719 146.671 369.593 147.949C370.468 149.228 370.953 150.794 370.975 152.413H371.084C372.65 152.484 374.131 153.241 375.217 154.524C376.303 155.807 376.909 157.518 376.909 159.297C376.909 161.076 376.303 162.786 375.217 164.069C374.131 165.352 372.65 166.109 371.084 166.181H348.821C347.894 166.152 347.013 165.711 346.369 164.954C345.724 164.197 345.366 163.183 345.371 162.13Z" fill="#EBEBEB"/>
<path d="M460.305 36.4883C460.305 35.4199 460.679 34.3953 461.344 33.6398C462.01 32.8844 462.912 32.4599 463.854 32.4599C464.189 32.4609 464.522 32.5177 464.842 32.6283C464.791 32.2194 464.765 31.807 464.763 31.3939C464.763 30.2726 464.958 29.1622 465.336 28.1261C465.714 27.0901 466.268 26.1488 466.967 25.3558C467.665 24.5629 468.495 23.9339 469.407 23.5048C470.32 23.0756 471.298 22.8548 472.286 22.8548C472.754 22.8521 473.221 22.901 473.68 23.0006C474.422 21.618 475.539 20.5464 476.864 19.9476C478.188 19.3487 479.649 19.255 481.025 19.6805C482.4 20.106 483.617 21.0278 484.491 22.3068C485.365 23.5857 485.849 25.1525 485.869 26.7709H485.978C487.544 26.8427 489.025 27.5994 490.111 28.8825C491.197 30.1657 491.803 31.8758 491.803 33.655C491.803 35.4341 491.197 37.1443 490.111 38.4274C489.025 39.7106 487.544 40.4673 485.978 40.5391H463.755C462.827 40.5097 461.947 40.0693 461.302 39.3122C460.657 38.5551 460.299 37.5414 460.305 36.4883Z" fill="#EBEBEB"/>
<path d="M236.559 65.832C236.559 64.7607 236.934 63.7332 237.601 62.9756C238.268 62.2181 239.174 61.7925 240.117 61.7925C240.452 61.7994 240.784 61.856 241.106 61.9608C241.055 61.5519 241.028 61.1395 241.027 60.7265C241.027 58.4618 241.82 56.2898 243.23 54.6884C244.641 53.087 246.555 52.1873 248.55 52.1873C249.015 52.1842 249.478 52.2331 249.934 52.3332C250.673 50.9453 251.791 49.8686 253.118 49.2662C254.445 48.6638 255.908 48.5684 257.287 48.9945C258.665 49.4207 259.884 50.345 260.759 51.6278C261.633 52.9105 262.116 54.4817 262.133 56.1034H262.242C263.849 56.1034 265.391 56.8281 266.527 58.1181C267.663 59.4081 268.302 61.1576 268.302 62.9819C268.302 64.8062 267.663 66.5558 266.527 67.8457C265.391 69.1357 263.849 69.8604 262.242 69.8604H240.019C239.093 69.834 238.213 69.398 237.566 68.6454C236.92 67.8928 236.558 66.8832 236.559 65.832Z" fill="#EBEBEB"/>
<path d="M265.207 326.282C265.207 326.282 260.699 245.895 237.25 141.214L241.995 137.152C241.995 137.152 262.518 174.967 283.1 321.524L265.207 326.282Z" fill="#E6E6E6"/>
<path d="M231.219 116.842C220.206 109.885 205.437 123.574 204.527 143.211C206.005 142.071 207.563 141.069 209.184 140.215C209.688 135.266 210.172 130.868 210.172 130.868V139.687C211.072 139.239 212.05 138.79 213.138 138.363L213.563 133.583L214.186 137.959C215.648 137.432 217.137 137.004 218.644 136.68L219.732 122.733L221.61 136.198C223.163 136.019 224.726 135.97 226.286 136.052L226.899 126.57L227.512 136.13C228.842 136.271 230.163 136.511 231.466 136.849L232.02 122.733C232.02 122.733 232.475 130.587 233.008 137.32C236.826 138.542 240.412 140.555 243.586 143.256V141.528C243.586 141.528 241.263 123.193 231.219 116.842Z" fill="#E0E0E0"/>
<path d="M245.336 109.403C253.008 98.0478 271.356 103.972 279.047 121.567C277.293 121.189 275.514 120.975 273.729 120.927C271.524 116.607 269.517 112.803 269.517 112.803L272.611 120.894C271.623 120.894 270.565 120.894 269.428 121.006L267.362 116.809L268.351 121.118C266.821 121.291 265.302 121.572 263.803 121.96L257.931 109.617L260.897 122.813C259.409 123.358 257.956 124.018 256.547 124.787L252.682 116.372L255.46 125.427C254.269 126.157 253.122 126.978 252.029 127.884L246.582 115.182C246.582 115.182 248.925 122.611 250.793 128.95C247.718 131.799 245.134 135.268 243.171 139.184L242.559 137.591C242.559 137.591 238.347 119.76 245.336 109.403Z" fill="#E0E0E0"/>
<path d="M254.995 134.034C246.039 125.45 240.266 134.034 240.266 134.034C243.581 134.88 246.621 136.761 249.044 139.465L250.033 137.692V140.52C250.665 141.238 251.269 141.99 251.862 142.764L253.463 137.658L253.068 144.391C253.918 145.614 254.719 146.871 255.47 148.127L256.004 143.145L256.35 149.665C257.141 151.067 257.862 152.459 258.495 153.772L258.831 144.694L259.691 156.33C261.263 159.809 262.123 162.277 262.123 162.277C262.123 162.277 263.952 142.618 254.995 134.034Z" fill="#E0E0E0"/>
<path d="M233.799 157.777L235.599 158.764C235.757 157.238 235.945 155.623 236.172 153.996L234.847 151.65L236.389 152.559C236.469 152.021 236.557 151.482 236.656 150.943L234.847 146.275L237.22 148.004C238.208 143.594 239.474 139.666 241.303 137.691C241.303 137.691 222.52 146.231 234.897 168.818C234.897 168.818 235.005 165.071 235.47 160.133L233.799 157.777Z" fill="#E0E0E0"/>
<path d="M251.445 137.03L254.094 130.219L253.274 137.153L254.262 137.266L257.881 131.318L257.307 137.872C258.696 138.231 260.066 138.68 261.41 139.218C262.873 139.81 264.309 140.488 265.71 141.249L267.282 135.347L266.788 141.855C268.162 142.629 269.496 143.482 270.742 144.357L271.385 139.218L271.661 144.986C273.253 146.108 274.756 147.23 276.14 148.352L275.438 139.196L277.267 149.295C278.69 150.484 279.975 151.628 281.073 152.661L280.816 146.287L282.793 154.254C284.375 155.791 285.294 156.79 285.294 156.79C283.099 134.584 274.944 126.359 262.211 125.012C249.478 123.666 241.352 139.229 241.352 139.229C241.352 139.229 245.029 136.828 251.445 137.03Z" fill="#E0E0E0"/>
<path d="M216.488 167.246L218.06 173.788C218.505 172.094 219.128 169.917 219.928 167.482L218.278 157.854L220.65 165.361C221.899 161.756 223.393 158.267 225.119 154.926L222.904 148.372L226.097 153.097C226.621 152.188 227.175 151.29 227.748 150.437L226.453 146.274L228.252 149.697C228.648 149.124 229.053 148.574 229.468 148.058L227.877 142.504L230.15 147.228C231.311 145.855 232.604 144.635 234.006 143.592L231.564 136.86L235.103 142.863C237.005 141.65 239.132 140.962 241.311 140.854C238.433 136.71 234.43 133.759 229.923 132.461C222.766 130.655 208.639 146.263 217.19 177.424C217.19 177.424 217.348 176.683 217.655 175.415L216.488 167.246Z" fill="#E0E0E0"/>
<path d="M224.121 104.723L223.133 108.841C223.576 108.834 224.019 108.868 224.458 108.942L225.565 103.59L224.972 109.099C225.904 109.329 226.802 109.706 227.641 110.222L229.173 102.984L228.501 110.839C228.827 111.086 229.173 111.344 229.489 111.647L231.299 104.824L230.073 112.174C231.854 113.882 233.412 115.869 234.699 118.076V108.292L236.528 121.443C238.437 125.459 240.034 129.657 241.303 133.988C241.303 133.988 240.314 98.518 232.505 95.1293C224.695 91.7405 221.363 109.133 221.363 109.133C221.683 109.002 222.015 108.912 222.352 108.864L224.121 104.723Z" fill="#E0E0E0"/>
<path d="M237.33 143.211L238.427 149.865L240.266 143.211L243.647 148.025L244.547 143.211L248.274 146.275C248.274 146.275 247.285 137.758 244.804 134.033C242.322 130.307 235.758 133.606 237.33 143.211Z" fill="#E0E0E0"/>
<path d="M290.357 312.593C290.357 312.593 283.101 197.746 323.237 82.843L318.403 77.9395C318.403 77.9395 274.48 163.713 270.496 314.175L290.357 312.593Z" fill="#E6E6E6"/>
<path d="M334.092 52.7127C346.637 44.7907 363.453 60.4103 364.471 82.7513C362.79 81.4655 361.017 80.3396 359.172 79.385C358.599 73.7745 358.016 68.7363 358.016 68.7363V78.8352C357.027 78.319 355.871 77.8029 354.645 77.3204L354.16 71.867L353.449 76.8603C351.784 76.2528 350.086 75.7656 348.367 75.4016L347.132 59.5127L344.996 74.8518C343.223 74.6424 341.438 74.5862 339.658 74.6834L338.976 63.8889L338.264 74.7844C336.731 74.9372 335.208 75.2071 333.707 75.5923L333.074 59.5127C333.074 59.5127 332.56 68.4895 331.986 76.0749C327.638 77.4643 323.55 79.7462 319.926 82.8074V80.8325C319.926 80.8325 322.654 59.9391 334.092 52.7127Z" fill="#E0E0E0"/>
<path d="M318.035 44.2315C309.306 31.3049 288.378 38.06 279.629 58.1007C281.631 57.6654 283.661 57.4177 285.699 57.3601C288.2 52.4341 290.484 48.1028 290.484 48.1028L286.964 57.3264C288.091 57.3264 289.297 57.3264 290.592 57.4611L292.945 52.6809L291.848 57.5845C293.587 57.7786 295.314 58.0972 297.018 58.5383L303.721 44.512L300.241 59.5594C301.936 60.1636 303.589 60.9139 305.184 61.8036L309.593 52.2096L306.429 62.5217C307.785 63.356 309.09 64.2932 310.334 65.327L316.533 50.8631C316.533 50.8631 313.873 59.3238 311.738 66.5725C315.238 69.8191 318.183 73.7669 320.428 78.2199L321.12 76.4133C321.12 76.4133 325.944 56.036 318.035 44.2315Z" fill="#E0E0E0"/>
<path d="M307.005 72.2941C317.207 62.5094 323.811 72.2941 323.811 72.2941C320.04 73.2657 316.58 75.406 313.817 78.4768L312.65 76.4683V79.7336C311.928 80.5527 311.236 81.4055 310.564 82.2808L308.735 76.4683L309.18 84.1771C308.191 85.5685 307.302 86.9936 306.452 88.4299L305.849 82.752L305.453 90.1691C304.554 91.7737 303.733 93.3559 303.001 94.8483L302.616 84.5137L301.627 97.7657C299.838 101.727 298.869 104.498 298.869 104.498C298.869 104.498 296.813 82.0676 307.005 72.2941Z" fill="#E0E0E0"/>
<path d="M331.153 99.3366L329.097 100.459C328.919 98.7195 328.701 96.8792 328.444 95.0165L329.957 92.346L328.197 93.3895C328.108 92.7723 327.999 92.1552 327.9 91.538L329.957 86.2305L327.248 88.1942C326.18 83.1672 324.687 78.7012 322.602 76.457C322.602 76.457 343.955 86.1744 329.897 111.904C329.897 111.904 329.779 107.64 329.255 102.007L331.153 99.3366Z" fill="#E0E0E0"/>
<path d="M311.048 75.7053L308.033 67.9403L309.021 75.8511L307.954 75.9746L303.831 69.242L304.474 76.7039C302.893 77.1049 301.335 77.6145 299.808 78.23C298.125 78.9034 296.475 79.6788 294.865 80.5527L293.076 73.8201L293.639 81.2148C292.077 82.1124 290.545 83.0775 289.072 84.0761L288.34 78.2188L288.024 84.7943C286.225 86.0622 284.505 87.3751 282.923 88.6543L283.724 78.2188L281.648 89.6978C280.026 91.0556 278.563 92.3572 277.318 93.5242L277.604 86.2642L275.41 95.3308C273.601 97.0925 272.562 98.2258 272.562 98.2258C275.054 72.9337 284.346 63.5641 298.859 62.0156C313.371 60.4671 322.585 78.2188 322.585 78.2188C322.585 78.2188 318.354 75.436 311.048 75.7053Z" fill="#E0E0E0"/>
<path d="M350.875 110.132L349.076 117.583C348.572 115.653 347.86 113.173 346.95 110.402L348.829 99.4387L346.13 107.978C344.7 103.874 342.995 99.9015 341.029 96.0948L343.56 88.5992L339.892 94.019C339.289 92.9754 338.666 91.9543 338.014 90.9781L339.477 86.2428L337.43 90.1365C336.985 89.4969 336.521 88.8685 336.046 88.2738L337.865 81.9452L335.265 87.3313C333.96 85.766 332.501 84.3767 330.916 83.1907L333.703 75.5043L329.67 82.3491C327.503 80.9792 325.081 80.2102 322.602 80.1049C325.881 75.3857 330.44 72.0254 335.572 70.5446C343.728 68.4912 359.822 86.254 350.074 121.768C350.074 121.768 349.906 120.927 349.55 119.524L350.875 110.132Z" fill="#E0E0E0"/>
<path d="M342.195 38.9011L343.263 43.6027C342.76 43.5943 342.258 43.6319 341.76 43.7149L340.495 37.6219L341.207 43.8271C340.144 44.0967 339.12 44.5309 338.162 45.1175L336.422 36.8701L337.183 45.7571C336.807 46.0377 336.422 46.3406 336.027 46.6773L333.96 38.9011L335.364 47.2832C333.34 49.2626 331.576 51.5599 330.125 54.1055V42.9631L328.039 57.9992C325.868 62.5784 324.049 67.3613 322.602 72.2948C322.602 72.2948 323.778 31.8992 332.626 28.0392C341.474 24.1792 345.319 44.0179 345.319 44.0179C344.945 43.8661 344.557 43.7608 344.163 43.7037L342.195 38.9011Z" fill="#E0E0E0"/>
<path d="M327.13 82.7517L325.874 90.3371L323.779 82.7517L319.923 88.2387L318.934 82.7517L314.684 86.2414C314.684 86.2414 315.801 76.5352 318.638 72.2937C321.475 68.0522 328.909 71.8 327.13 82.7517Z" fill="#E0E0E0"/>
<path d="M243.891 317.811C245.938 315.174 247.846 312.492 250.03 309.956C250.15 309.831 250.253 309.687 250.337 309.529C251.046 309.013 251.786 308.551 252.551 308.149L253.609 307.7C254.469 307.341 255.329 306.949 256.179 306.578C261.577 304.121 266.431 301.26 270.504 296.401C272.728 293.73 274.518 290.622 276.831 288.041C276.88 288.131 277.335 287.862 277.552 287.66C278.245 287.57 279.174 287.413 279.302 287.402C280.232 287.402 281.171 287.402 282.1 287.469C283.435 287.536 284.759 287.66 286.054 287.794C291.234 296.401 297.779 308.138 300.675 309.687C305.144 312.088 346.378 324.453 349.412 323.724C352.447 322.995 368.373 324.453 372.367 324.285C376.361 324.117 383.598 322.097 394.116 316.632C404.635 311.168 410.319 311.123 422.943 306.533C435.567 301.944 444.02 300.227 451.404 307.252C458.789 314.276 479.085 299.453 485.402 297.343C491.719 295.234 503.819 283.07 512.093 288.737C520.368 294.404 527.209 297.108 537.52 307.252C547.831 317.395 568.294 336.976 568.294 336.976H219.898L223.853 329.043C227.685 328.789 231.434 327.664 234.876 325.734C238.318 323.805 241.384 321.11 243.891 317.811Z" fill="#F5F5F5"/>
<path d="M201.522 337.874V343.148H583.114V337.874C583.143 337.26 583.063 336.645 582.879 336.067C582.694 335.489 582.409 334.958 582.04 334.508C581.671 334.058 581.225 333.696 580.73 333.446C580.236 333.195 579.701 333.06 579.16 333.049H205.515C204.97 333.054 204.432 333.185 203.932 333.433C203.433 333.681 202.983 334.041 202.61 334.492C202.236 334.943 201.947 335.475 201.76 336.056C201.573 336.638 201.492 337.256 201.522 337.874Z" fill="#EBEBEB"/>
<path d="M561.367 333.049H537.641V343.148H561.367V333.049Z" fill="#F5F5F5"/>
<path d="M515.89 333.049H493.152V343.148H515.89V333.049Z" fill="#F5F5F5"/>
<path d="M471.406 333.049H447.68V343.148H471.406V333.049Z" fill="#F5F5F5"/>
<path d="M425.929 333.049H403.191V343.148H425.929V333.049Z" fill="#F5F5F5"/>
<path d="M381.444 333.049H358.707V343.148H381.444V333.049Z" fill="#F5F5F5"/>
<path d="M336.956 333.049H313.23V343.148H336.956V333.049Z" fill="#F5F5F5"/>
<path d="M291.483 333.049H268.746V343.148H291.483V333.049Z" fill="#F5F5F5"/>
<path d="M246.995 333.049H223.27V343.148H246.995V333.049Z" fill="#F5F5F5"/>
<path d="M507.843 153.502C507.843 153.502 509.069 159.258 517.413 162.232C525.756 165.205 518.826 172.69 520.25 172.802C521.673 172.914 534.219 172.409 534.416 179.355C534.614 186.301 530.838 188.624 530.838 188.624C530.838 188.624 550.787 189.656 540.882 199.845C530.976 210.033 481.32 210.594 477.009 201.292C472.699 191.99 487.775 186.705 487.775 186.705C487.775 186.705 483.356 178.85 487.775 175.035C492.194 171.22 502.406 169.615 501.496 169.75C500.587 169.885 495.555 162.961 507.843 153.502Z" fill="#FAFAFA"/>
<path d="M574.909 267.563V320.224H404.398V276.63C404.41 273.981 405.141 271.401 406.493 269.242C407.845 267.083 409.751 265.45 411.951 264.567L436.102 254.637L436.616 253.436L453.472 214.511C455.388 210.114 458.345 206.411 462.012 203.817C465.679 201.222 469.911 199.839 474.232 199.822H548.109C551.221 199.819 554.252 200.947 556.758 203.041C559.265 205.135 561.115 208.085 562.038 211.458C566.773 228.615 574.909 259.529 574.909 267.563Z" fill="#EBEBEB"/>
<path d="M438.406 343.137C448.507 343.137 456.695 333.843 456.695 322.378C456.695 310.913 448.507 301.619 438.406 301.619C428.305 301.619 420.117 310.913 420.117 322.378C420.117 333.843 428.305 343.137 438.406 343.137Z" fill="#E0E0E0"/>
<path d="M446.745 331.843C451.351 326.615 451.351 318.139 446.745 312.911C442.139 307.683 434.672 307.683 430.066 312.911C425.46 318.139 425.46 326.615 430.066 331.843C434.672 337.071 442.139 337.071 446.745 331.843Z" fill="#EBEBEB"/>
<path d="M540.832 343.137C550.932 343.137 559.12 333.843 559.12 322.378C559.12 310.913 550.932 301.619 540.832 301.619C530.731 301.619 522.543 310.913 522.543 322.378C522.543 333.843 530.731 343.137 540.832 343.137Z" fill="#E0E0E0"/>
<path d="M549.175 331.839C553.78 326.611 553.78 318.135 549.175 312.907C544.569 307.679 537.101 307.679 532.496 312.907C527.89 318.135 527.89 326.611 532.496 331.839C537.101 337.067 544.569 337.067 549.175 331.839Z" fill="#EBEBEB"/>
<path d="M417.131 306.275H404.269C403.385 306.275 402.668 307.089 402.668 308.093V322.692C402.668 323.696 403.385 324.51 404.269 324.51H417.131C418.015 324.51 418.732 323.696 418.732 322.692V308.093C418.732 307.089 418.015 306.275 417.131 306.275Z" fill="#E0E0E0"/>
<path d="M574.791 306.275H561.93C561.045 306.275 560.328 307.089 560.328 308.093V322.692C560.328 323.696 561.045 324.51 561.93 324.51H574.791C575.676 324.51 576.393 323.696 576.393 322.692V308.093C576.393 307.089 575.676 306.275 574.791 306.275Z" fill="#E0E0E0"/>
<path d="M460.856 211.525L444.762 252.168L436.566 253.436L453.471 214.51C453.92 213.478 454.429 212.481 454.994 211.525H460.856Z" fill="#F5F5F5"/>
<path d="M464.941 211.525H494.974L491.929 251.326H450.191L464.941 211.525Z" fill="#F5F5F5"/>
<path d="M512.045 245.434V248.138H510.928V257.036H512.045V259.763H506.055V257.036H507.192V248.138H506.055V245.434H512.045Z" fill="#FAFAFA"/>
<path d="M524.65 257.218C523.967 258.109 523.126 258.826 522.183 259.323C521.239 259.82 520.213 260.085 519.173 260.101C515.347 260.101 512.797 257.319 512.797 252.74C512.797 248.162 515.921 245.2 518.293 245.2C518.821 245.165 519.347 245.272 519.831 245.514C520.314 245.756 520.739 246.125 521.071 246.591L521.486 245.469H524.324V251.293H521.091C521.042 249.958 520.458 248.701 519.173 248.701C517.888 248.701 517.028 250.53 517.028 252.763C517.028 254.794 517.947 256.623 519.667 256.623C521.18 256.623 522.376 254.816 522.534 254.614L524.65 257.218Z" fill="#FAFAFA"/>
<path d="M536.234 245.434V249.922H533.11V248.104H530.214V250.932H533.654V253.659H530.214V257.025H533.11V255.117H536.234V259.752H525.36V257.025H526.496V248.127H525.34V245.434H536.234Z" fill="#FAFAFA"/>
<path d="M514.821 271.366C514.306 272.052 513.669 272.606 512.952 272.993C512.234 273.38 511.453 273.59 510.659 273.61C510.003 273.659 509.345 273.548 508.73 273.282C508.115 273.016 507.559 272.602 507.098 272.07C506.637 271.537 506.283 270.897 506.06 270.195C505.837 269.492 505.75 268.743 505.805 267.999C505.805 264.409 508.178 262.254 509.987 262.254C510.393 262.236 510.797 262.328 511.165 262.523C511.533 262.718 511.855 263.011 512.103 263.376L512.419 262.501H514.574V266.933H512.113C512.113 265.912 511.628 264.959 510.659 264.959C509.691 264.959 509.018 266.35 509.018 268.056C509.018 269.761 509.72 270.984 510.995 270.984C511.432 270.911 511.85 270.737 512.226 270.475C512.601 270.213 512.926 269.867 513.18 269.458L514.821 271.366Z" fill="#FAFAFA"/>
<path d="M519.845 262.412C523.038 262.412 523.661 263.848 523.661 265.621C523.63 266.205 523.412 266.756 523.048 267.17C522.683 267.583 522.198 267.831 521.683 267.865C522.168 267.939 522.615 268.205 522.944 268.615C523.273 269.026 523.464 269.555 523.483 270.11C523.483 270.783 523.562 271.176 523.809 271.176C524.056 271.176 524.125 270.985 524.125 270.671V270.166H525.055V271.019C525.055 272.309 524.57 273.51 523.077 273.51C521.268 273.51 520.408 272.444 520.408 270.615C520.408 269.19 520.25 268.853 519.034 268.853V271.265H519.874V273.33H515.426V271.265H516.197V264.466H515.426V262.423L519.845 262.412ZM518.985 267.091H519.598C520.398 267.091 520.922 266.654 520.922 265.823C520.94 265.633 520.92 265.44 520.862 265.26C520.805 265.079 520.713 264.916 520.592 264.782C520.471 264.648 520.325 264.547 520.165 264.486C520.005 264.426 519.834 264.407 519.667 264.432H518.985V267.091Z" fill="#FAFAFA"/>
<path d="M533.804 262.412V265.857H531.431V264.466H529.227V266.62H531.846V268.696H529.227V271.243H531.431V269.784H533.804V273.319H525.52V271.243H526.38V264.51H525.52V262.457L533.804 262.412Z" fill="#FAFAFA"/>
<path d="M539.755 273.319V271.277H541.06L540.773 270.211H537.956L537.659 271.277H538.737V273.319H534.367V271.277H535.296L537.155 264.421H536.591V262.412H541.871L544.302 271.277H545.291V273.319H539.755ZM540.259 268.337L539.36 264.97L538.46 268.337H540.259Z" fill="#FAFAFA"/>
<path d="M555.364 265.15C555.255 265.857 555.058 266.889 554.969 267.248L553.525 273.319H550.648L549.106 267.091C548.957 266.456 548.861 265.806 548.82 265.15H548.76V271.299H549.551V273.319H545.824V271.299H546.566V264.421H545.834V262.412H551.044L552.438 268.247L553.753 262.412H558.992V264.421H558.261V271.288H559.012V273.319H554.672V271.288H555.443V265.15H555.364Z" fill="#FAFAFA"/>
<path d="M546.647 228.514C546.647 228.514 545.658 233.148 549.523 234.18C553.389 235.213 551.837 240.61 551.837 240.61C551.837 240.61 556.552 239.578 557.234 243.696C557.916 247.814 557.462 249.878 557.234 249.878C557.636 250.021 558.007 250.257 558.324 250.572C558.64 250.886 558.896 251.273 559.073 251.706C559.251 252.139 559.347 252.609 559.356 253.086C559.364 253.564 559.285 254.038 559.122 254.479C558.134 258.373 543.711 261.212 540.834 257.34C537.957 253.469 541.555 249.362 541.555 249.362C541.555 249.362 540.082 244.728 540.834 242.416C541.585 240.105 545.095 239.319 545.095 239.319C545.095 239.319 541.041 234.696 546.647 228.514Z" fill="#FAFAFA"/>
<path d="M408.799 273.564C409.305 273.564 409.79 273.793 410.148 274.199C410.506 274.605 410.707 275.156 410.707 275.73V292.494C410.707 293.069 410.506 293.619 410.148 294.026C409.79 294.432 409.305 294.66 408.799 294.66C408.548 294.661 408.299 294.606 408.067 294.498C407.835 294.39 407.624 294.23 407.447 294.029C407.269 293.828 407.129 293.588 407.033 293.325C406.938 293.061 406.889 292.779 406.891 292.494V275.73C406.889 275.445 406.938 275.163 407.033 274.9C407.129 274.636 407.269 274.397 407.447 274.195C407.624 273.994 407.835 273.835 408.067 273.726C408.299 273.618 408.548 273.563 408.799 273.564Z" fill="#FAFAFA"/>
<path d="M448.717 298.971C448.586 298.971 448.46 298.912 448.367 298.806C448.275 298.701 448.223 298.559 448.223 298.41V256.825C448.223 256.676 448.275 256.533 448.367 256.428C448.46 256.323 448.586 256.264 448.717 256.264C448.847 256.267 448.971 256.327 449.064 256.431C449.156 256.536 449.209 256.677 449.211 256.825V298.41C449.209 298.558 449.156 298.699 449.064 298.803C448.971 298.908 448.847 298.968 448.717 298.971Z" fill="#E0E0E0"/>
<path d="M496.455 304.255C496.324 304.255 496.198 304.196 496.106 304.091C496.013 303.986 495.961 303.843 495.961 303.694V251.315L497.553 211.502C497.553 211.354 497.605 211.211 497.697 211.106C497.79 211 497.916 210.941 498.047 210.941C498.178 210.941 498.304 211 498.396 211.106C498.489 211.211 498.541 211.354 498.541 211.502L496.969 251.348V303.694C496.969 303.77 496.956 303.845 496.93 303.914C496.904 303.984 496.866 304.047 496.818 304.099C496.77 304.151 496.713 304.192 496.65 304.219C496.588 304.246 496.522 304.258 496.455 304.255Z" fill="#E0E0E0"/>
<path d="M517.295 314.32H460.639C459.913 314.32 459.324 314.988 459.324 315.813V320.795C459.324 321.619 459.913 322.287 460.639 322.287H517.295C518.021 322.287 518.609 321.619 518.609 320.795V315.813C518.609 314.988 518.021 314.32 517.295 314.32Z" fill="#E0E0E0"/>
<path d="M492.156 259.18H483.309V262.411H492.156V259.18Z" fill="#E0E0E0"/>
<path d="M379 394.222C588.316 394.222 758 388.767 758 382.039C758 375.31 588.316 369.855 379 369.855C169.684 369.855 0 375.31 0 382.039C0 388.767 169.684 394.222 379 394.222Z" fill="#F5F5F5"/>
<path d="M513.132 333.249C513.132 333.249 505.471 322.892 500.567 327.717C495.664 332.542 498.135 342.787 503.8 343.123C507.15 343.327 510.456 342.178 513.132 339.88V333.249Z" fill="#36BD44"/>
<path opacity="0.2" d="M513.132 333.249C513.132 333.249 505.471 322.892 500.567 327.717C495.664 332.542 498.135 342.787 503.8 343.123C507.15 343.327 510.456 342.178 513.132 339.88V333.249Z" fill="white"/>
<path d="M544.422 306.981C544.422 306.981 550.867 299.328 554.851 300.63C558.835 301.931 558.42 320.21 546.053 312.804L544.422 306.981Z" fill="#36BD44"/>
<path opacity="0.3" d="M544.422 306.981C544.422 306.981 550.867 299.328 554.851 300.63C558.835 301.931 558.42 320.21 546.053 312.804L544.422 306.981Z" fill="white"/>
<path d="M521.408 364.084C521.408 364.084 500.262 331.24 517.454 324.586C534.645 317.932 537.69 351.012 532.787 360.224C527.883 369.437 521.408 364.084 521.408 364.084Z" fill="#36BD44"/>
<path d="M531.222 296.837C531.222 296.837 544.341 262.254 524.905 261.21C505.47 260.167 503.354 295.502 525.716 300.63L531.222 296.837Z" fill="#36BD44"/>
<path opacity="0.3" d="M521.408 364.084C521.408 364.084 500.262 331.24 517.454 324.586C534.645 317.932 537.69 351.012 532.787 360.224C527.883 369.437 521.408 364.084 521.408 364.084Z" fill="white"/>
<path opacity="0.3" d="M531.222 296.837C531.222 296.837 544.341 262.254 524.905 261.21C505.47 260.167 503.354 295.502 525.716 300.63L531.222 296.837Z" fill="white"/>
<path d="M526.568 325.148C526.568 325.148 520.182 294.615 532.45 292.18C544.718 289.745 556.818 317.338 531.461 331.207C531.451 331.207 527.102 328.144 526.568 325.148Z" fill="#36BD44"/>
<path opacity="0.2" d="M526.568 325.148C526.568 325.148 520.182 294.615 532.45 292.18C544.718 289.745 556.818 317.338 531.461 331.207C531.451 331.207 527.102 328.144 526.568 325.148Z" fill="white"/>
<path d="M506.184 359.428H541.703L538.738 385.225H509.149L506.184 359.428Z" fill="#263238"/>
<path d="M524.648 294.369C522.785 292.813 521.121 290.97 519.705 288.893C518.262 286.819 517.087 284.522 516.215 282.071C515.359 279.595 514.929 276.955 514.95 274.295C515 271.656 515.543 269.059 516.542 266.676C516.423 267.327 516.294 267.955 516.156 268.583L515.958 269.515C515.958 269.829 515.899 270.154 515.869 270.468C515.81 271.108 515.731 271.736 515.681 272.376V274.284C515.812 276.815 516.296 279.308 517.115 281.667C517.952 284.036 519.016 286.294 520.288 288.4C520.915 289.471 521.595 290.501 522.325 291.485C523.051 292.495 523.827 293.458 524.648 294.369Z" fill="#36BD44"/>
<path d="M520.004 264.688C521.107 264.931 522.175 265.346 523.177 265.922C524.185 266.52 525.127 267.251 525.985 268.099C527.708 269.819 529.061 271.964 529.939 274.371C530.771 276.777 531.229 279.328 531.294 281.912C531.294 283.191 531.224 284.47 531.185 285.738C530.987 286.995 530.829 288.24 530.611 289.486C530.611 288.207 530.671 286.961 530.7 285.704C530.73 284.448 530.641 283.202 530.532 281.968C530.412 280.738 530.231 279.516 529.989 278.31C529.84 277.715 529.761 277.109 529.583 276.526L529.02 274.798C528.201 272.506 526.979 270.427 525.429 268.689C523.879 266.95 522.033 265.589 520.004 264.688Z" fill="#36BD44"/>
<path d="M534.859 294.369C536.29 294.996 537.597 295.94 538.704 297.146C539.81 298.352 540.694 299.796 541.305 301.393C541.95 302.985 542.358 304.688 542.511 306.432C542.573 306.869 542.596 307.313 542.58 307.756C542.58 308.205 542.58 308.653 542.58 309.102C542.493 309.979 542.341 310.847 542.125 311.694C541.672 313.366 541.045 314.971 540.257 316.475C539.466 317.952 538.577 319.358 537.597 320.682C535.661 323.317 533.454 325.679 531.023 327.718C532.101 326.529 533.159 325.328 534.137 324.049C535.149 322.804 536.103 321.501 536.994 320.144C538.837 317.528 540.253 314.561 541.176 311.38C541.383 310.599 541.532 309.8 541.621 308.99C541.641 308.583 541.641 308.174 541.621 307.767C541.655 307.36 541.655 306.951 541.621 306.544C541.497 304.894 541.164 303.273 540.632 301.73C540.106 300.172 539.336 298.735 538.359 297.489C537.384 296.198 536.195 295.138 534.859 294.369Z" fill="#36BD44"/>
<path d="M531.222 296.836C531.941 299.089 532.396 301.439 532.577 303.827C532.7 305.038 532.7 306.262 532.577 307.473C532.482 308.734 532.145 309.956 531.588 311.053C530.516 312.999 529.9 315.224 529.799 317.516C529.694 318.683 529.647 319.856 529.66 321.028C529.66 322.218 529.66 323.396 529.73 324.585C529.22 322.256 528.991 319.859 529.048 317.46C529.064 316.244 529.193 315.033 529.433 313.847C529.568 313.244 529.746 312.655 529.967 312.085C530.199 311.526 530.459 310.983 530.748 310.458C531.25 309.501 531.566 308.434 531.677 307.328C531.825 306.184 531.887 305.027 531.865 303.871C531.853 302.698 531.787 301.525 531.667 300.359C531.568 299.181 531.381 298.014 531.222 296.836Z" fill="#36BD44"/>
<path d="M522.594 327.717C523.121 327.934 523.578 328.325 523.909 328.839C524.28 329.327 524.611 329.853 524.897 330.41C525.411 331.534 525.857 332.696 526.232 333.888C526.956 336.258 527.541 338.679 527.982 341.137C528.426 343.595 528.792 346.063 529.029 348.554C529.303 351.04 529.419 353.545 529.375 356.05C529.217 354.804 529.049 353.581 528.842 352.358C528.634 351.135 528.476 349.901 528.278 348.678C527.863 346.243 527.477 343.796 527.013 341.373C526.548 338.949 526.083 336.525 525.51 334.146C525.232 332.957 524.882 331.791 524.462 330.657C524.241 330.087 523.973 329.542 523.661 329.03C523.411 328.495 523.043 328.043 522.594 327.717Z" fill="#36BD44"/>
<path d="M516.581 328.783C516.033 331.002 515.701 333.282 515.592 335.583C515.479 337.858 515.625 340.14 516.027 342.372C516.408 344.602 517.074 346.757 518.004 348.768C518.959 350.802 520.095 352.72 521.395 354.491C521.02 354.109 520.634 353.705 520.268 353.301C519.876 352.917 519.509 352.501 519.171 352.056C517.806 350.257 516.707 348.218 515.919 346.019C515.711 345.469 515.592 344.897 515.424 344.324C515.256 343.761 515.128 343.183 515.039 342.596C514.627 340.262 514.551 337.867 514.811 335.505C515.058 333.166 515.657 330.892 516.581 328.783Z" fill="#36BD44"/>
<path d="M549.363 310.719C550.434 310.42 551.487 310.046 552.517 309.597C552.997 309.369 553.457 309.091 553.891 308.767C554.345 308.395 554.778 307.99 555.186 307.555C555.091 308.249 554.82 308.896 554.405 309.417C553.989 309.942 553.476 310.356 552.902 310.629C552.341 310.899 551.742 311.051 551.133 311.078C550.527 311.106 549.923 310.983 549.363 310.719Z" fill="#36BD44"/>
<path d="M548.09 305.666C548.375 305.054 548.773 304.518 549.256 304.096C549.74 303.645 550.298 303.309 550.897 303.108C551.526 302.917 552.187 302.917 552.815 303.108C553.423 303.312 553.951 303.748 554.308 304.342C553.786 304.126 553.241 303.991 552.687 303.938C552.175 303.939 551.667 304.018 551.174 304.174C550.659 304.347 550.157 304.564 549.672 304.825L548.09 305.666Z" fill="#36BD44"/>
<path d="M509.631 334.788C508.397 333.628 507.096 332.563 505.736 331.601C505.104 331.143 504.393 330.845 503.65 330.726C502.877 330.632 502.096 330.8 501.406 331.208C501.67 330.804 502.011 330.473 502.402 330.238C502.794 330.003 503.227 329.87 503.67 329.85C504.569 329.817 505.456 330.087 506.221 330.625C506.957 331.114 507.623 331.727 508.198 332.442C508.781 333.134 509.265 333.925 509.631 334.788Z" fill="#36BD44"/>
<path d="M509.634 339.88C508.708 340.267 507.74 340.512 506.757 340.609C505.768 340.71 504.772 340.672 503.792 340.497C502.766 340.335 501.791 339.888 500.954 339.195C500.535 338.851 500.192 338.402 499.952 337.882C499.712 337.362 499.581 336.786 499.57 336.199C499.934 337.16 500.576 337.952 501.389 338.443C502.193 338.917 503.063 339.232 503.96 339.375C505.841 339.67 507.735 339.839 509.634 339.88Z" fill="#36BD44"/>
<path d="M409.091 385.226H473.467C473.467 385.226 471.49 373.164 463.028 372.614C454.566 372.064 453.043 371.862 449.356 365.455C445.669 359.048 441.17 364.613 435.852 362.089C430.533 359.564 427.765 348.5 427.765 348.5C427.765 348.5 421.132 360.058 424.8 365.174C424.8 365.174 414.024 366.487 416.031 371.346C418.038 376.205 405.848 376.754 409.091 385.226Z" fill="#1A1A1A"/>
<path opacity="0.6" d="M473.469 385.226H409.093C406.344 378.056 414.649 376.564 416.062 373.321C416.195 373.013 416.264 372.676 416.264 372.333C416.264 371.991 416.195 371.653 416.062 371.346C414.975 368.72 417.624 367.127 420.293 366.229C421.778 365.739 423.296 365.386 424.831 365.174C424.267 364.355 423.909 363.378 423.793 362.347C423.091 356.736 427.797 348.5 427.797 348.5C427.797 348.5 430.575 359.631 435.883 362.122C441.192 364.613 445.7 359.048 449.387 365.489C453.075 371.929 454.567 372.098 463.059 372.648C465.427 372.788 467.66 373.943 469.307 375.879C471.394 378.525 472.83 381.749 473.469 385.226Z" fill="white"/>
<path opacity="0.4" d="M469.286 375.846C466.251 377.754 461.318 379.055 455.001 380.334C439.688 383.488 431.146 378.999 436.425 378.09C441.704 377.181 448.545 372.154 445.807 372.626C443.286 373.063 421.992 375.689 416.071 373.333C416.203 373.025 416.272 372.687 416.272 372.345C416.272 372.003 416.203 371.665 416.071 371.358C414.983 368.732 417.633 367.139 420.302 366.241C427.222 372.626 435.13 365.467 435.13 365.467C435.13 365.467 429.575 366.824 425.077 363.941C424.513 363.571 424.059 363.021 423.772 362.358C423.07 356.748 427.775 348.512 427.775 348.512C427.775 348.512 430.553 359.643 435.862 362.134C441.171 364.625 445.679 359.059 449.366 365.5C453.053 371.941 454.546 372.109 463.038 372.659C465.401 372.788 467.633 373.926 469.286 375.846Z" fill="white"/>
<path d="M265.077 103.983L287.724 103.665C289.738 103.636 291.351 101.76 291.326 99.4731L291.045 73.7677C291.02 71.4811 289.367 69.6505 287.352 69.6788L264.706 69.9974C262.691 70.0257 261.078 71.9023 261.103 74.1889L261.384 99.8942C261.409 102.181 263.062 104.011 265.077 103.983Z" fill="#FF6240"/>
<path d="M272.758 101.245C272.758 101.245 276.801 111.344 285.609 114.441C285.609 114.441 280.666 111.322 280.973 100.695L272.758 101.245Z" fill="#FF6240"/>
<g opacity="0.7">
<path d="M274.625 93.0876C274.627 92.8514 274.672 92.6181 274.755 92.4017C274.839 92.1853 274.96 91.9902 275.111 91.8279C275.262 91.6657 275.441 91.5396 275.636 91.4572C275.831 91.3748 276.038 91.3378 276.246 91.3483C276.655 91.3483 277.048 91.5328 277.337 91.861C277.626 92.1893 277.788 92.6346 277.788 93.0988C277.788 93.5631 277.626 94.0083 277.337 94.3366C277.048 94.6649 276.655 94.8493 276.246 94.8493C276.037 94.8583 275.828 94.8195 275.633 94.7352C275.437 94.6508 275.258 94.5227 275.107 94.3583C274.956 94.194 274.835 93.9968 274.752 93.7785C274.669 93.5602 274.626 93.3252 274.625 93.0876ZM274.773 78.8594H277.739L277.235 89.452H275.258L274.773 78.8594Z" fill="white"/>
</g>
<path d="M319.467 159.154C323.105 161.398 334.039 174.729 334.039 174.729L324.361 183.627L312.824 174.729L319.467 159.154Z" fill="#F7A212"/>
<path opacity="0.7" d="M334.041 174.718L324.363 183.628L321.99 181.81L315.07 176.424L312.816 174.685L319.46 159.121C323.108 161.421 334.041 174.718 334.041 174.718Z" fill="white"/>
<path opacity="0.2" d="M321.99 181.809L315.07 176.423C315.166 174.48 315.461 172.555 315.95 170.689C317.557 171.995 318.919 173.65 319.956 175.56C320.993 177.469 321.685 179.594 321.99 181.809Z" fill="black"/>
<path d="M314.794 166.324L301.161 164.899L309.485 156.932L306.173 150.615C306.173 150.615 291.522 144.163 288.705 145.128L287.43 151.86L292.867 164.035L277.425 162.419L268.953 214.574C289.763 224.774 318.679 218.614 318.679 218.614L314.794 166.324Z" fill="#F7A212"/>
<path opacity="0.4" d="M314.794 166.324L301.161 164.899L309.485 156.932L306.173 150.615C306.173 150.615 291.522 144.163 288.705 145.128L287.43 151.86L292.867 164.035L277.425 162.419L268.953 214.574C289.763 224.774 318.679 218.614 318.679 218.614L314.794 166.324Z" fill="white"/>
<path d="M283.602 245.276C283.602 245.276 320.822 290.811 324.42 294.21C328.019 297.61 378.248 378.873 378.248 378.873L384.476 373.857C384.476 373.857 337.805 291.416 333.416 282.574C329.027 273.732 297.165 220.803 297.165 220.803L283.602 245.276Z" fill="#E4897B"/>
<path d="M288.88 253.018C288.88 253.018 291.509 291.023 288.88 305.835C286.25 320.646 229.832 379.142 229.832 379.142L223.762 375.528C223.762 375.528 272.331 310.447 272.706 302.3C273.082 294.154 268.604 257.057 268.604 257.057L288.88 253.018Z" fill="#E4897B"/>
<path d="M330.252 266.955C317.816 244.513 308.069 228.187 308.069 228.187L305.449 205.599L268.871 201.84C268.871 201.84 260.093 227.962 262.465 247.352C263.563 256.329 264.63 273.733 266.934 285.38L292.578 280.589C292.469 271.096 292.311 263.51 292.311 263.51C292.311 263.51 299.656 273.284 311.025 287.77L330.252 266.955Z" fill="#38CDB2"/>
<path d="M232.888 375.529H223.763C223.608 375.528 223.458 375.591 223.342 375.707C223.225 375.823 223.15 375.983 223.131 376.158L221.648 383.743C221.589 384.069 221.645 384.408 221.804 384.687C221.963 384.966 222.212 385.163 222.498 385.236H222.745C225.711 385.179 227.846 384.977 231.553 384.977C233.827 384.977 240.718 385.247 243.861 385.247C247.005 385.247 247.43 381.712 246.135 381.387C240.352 379.962 236.002 378.02 234.144 376.09C233.805 375.726 233.355 375.524 232.888 375.529Z" fill="#263238"/>
<path d="M383.045 371.5L374.553 375.27C374.416 375.334 374.301 375.448 374.227 375.594C374.154 375.741 374.126 375.911 374.148 376.078L375.206 383.764C375.23 383.927 375.282 384.083 375.359 384.223C375.436 384.363 375.537 384.484 375.655 384.58C375.773 384.676 375.907 384.745 376.049 384.782C376.191 384.819 376.338 384.824 376.481 384.797L376.718 384.718C379.447 383.45 381.374 382.373 384.825 380.836C386.95 379.893 393.455 377.301 396.381 375.999C399.307 374.698 398.566 371.23 397.261 371.511C391.418 372.566 386.723 372.521 384.409 371.511C383.973 371.308 383.484 371.304 383.045 371.5Z" fill="#263238"/>
<path d="M306.982 212.397C311.223 177.332 319.468 159.154 319.468 159.154C300.685 150.917 277.009 146.721 277.009 146.721C270.435 165.852 267.854 193.209 266.984 207.864L306.982 212.397Z" fill="#263238"/>
<path opacity="0.3" d="M290.867 243.749L292.33 263.453C292.33 263.453 299.675 273.226 311.044 287.713C298.983 265.607 295.721 250.38 295.721 250.38C299.675 244.411 300.071 234.873 300.071 234.873L290.867 243.749Z" fill="black"/>
<path d="M334.197 90.0221C328.265 84.58 329.135 70.1947 337.33 65.6726C340.552 64.0432 343.377 61.5522 345.565 58.4126C348.096 54.8107 350.261 49.952 353.958 42.4788C360.77 28.7555 382.489 20.7101 395.479 26.3991C400.456 28.4212 404.787 32.0867 407.915 36.9244C410.268 40.4141 411.949 43.657 415.171 45.6656C421.815 49.7388 428.675 47.0458 433.045 62.6093C437.414 78.1728 375.045 127.646 334.197 90.0221Z" fill="#263238"/>
<path opacity="0.2" d="M407.896 36.8902C407.343 39.774 404.763 41.3786 401.135 40.8512C392.89 39.6506 389.588 33.5239 378.397 38.1582C367.206 42.7925 374.443 37.9899 373.514 34.7919C372.584 31.5939 361.581 38.8427 360.524 43.6452C359.703 47.4043 353.396 57.9071 345.566 58.356C348.097 54.754 350.262 49.8953 353.959 42.4222C360.771 28.6989 382.49 20.6534 395.48 26.3425C400.453 28.3745 404.777 32.0477 407.896 36.8902Z" fill="white"/>
<path d="M459.946 138.363C455.072 147.946 447.925 149.909 446.343 155.531C446.162 156.174 446.059 156.842 446.037 157.517C445.985 159.32 445.585 161.089 444.866 162.698C444.147 164.307 443.126 165.718 441.875 166.831C436.932 171.24 428.776 170.96 423.359 163.049C415.312 151.301 426.779 127.624 407.008 122.115C387.236 116.605 379.802 104.251 389.767 96.6321C399.732 89.013 388.373 79.5088 390.093 68.4674C393.632 45.6215 413.888 55.4511 413.888 55.4511C418.102 52.8612 422.808 51.4748 427.6 51.4115C441.756 51.0524 459.383 61.1737 463.643 98.5396C465.996 119.444 463.624 131.092 459.946 138.363Z" fill="#F7A212"/>
<path opacity="0.2" d="M459.946 138.362C455.072 147.944 447.925 149.908 446.343 155.53C443.99 155.945 441.875 155.395 440.54 153.645C437.07 149.156 434.747 164.417 441.875 166.829C436.932 171.239 428.776 170.959 423.359 163.048C415.312 151.299 426.779 127.623 407.008 122.114C387.236 116.604 379.802 104.25 389.767 96.6308C399.732 89.0117 388.373 79.5075 390.093 68.4661C393.632 45.6201 413.888 55.4497 413.888 55.4497C418.102 52.8599 422.808 51.4735 427.6 51.4102C424.11 53.5758 421.362 56.1118 422.212 58.4457C424.248 64.0562 431.337 71.1142 432.76 80.3267C434.184 89.5391 431.089 95.677 438.039 103.891C444.989 112.104 457.583 117.58 460.381 116.66C463.179 115.74 459.926 122.832 455.656 123.056C451.385 123.281 446.076 121.53 440.827 114.506C435.578 107.481 439.423 135.276 446.62 137.587C451.968 139.394 458.483 136.028 459.946 138.362Z" fill="black"/>
<path d="M435.121 155.945L322.195 315.946L327.524 110.949L331.27 112.52L435.121 155.945Z" fill="#F7A212"/>
<g opacity="0.2">
<path d="M337.45 115.167L327.495 111.016L327.109 125.895L339.229 119.544L337.45 115.167Z" fill="black"/>
<path d="M355.361 146.913L377.268 135.423L375.489 131.046L349.094 120.027L345.238 122.047L355.361 146.913Z" fill="black"/>
<path d="M393.404 162.801L415.311 151.299L413.532 146.935L387.137 135.904L383.281 137.924L393.404 162.801Z" fill="black"/>
<path d="M426.926 167.57L435.131 155.945L425.176 151.793L421.32 153.813L426.926 167.57Z" fill="black"/>
<path d="M350.894 150.189L340.771 125.312L326.941 132.572L326.348 155.205L328.987 161.68L350.894 150.189Z" fill="black"/>
<path d="M378.81 141.173L356.906 152.666L367.032 177.528L388.936 166.035L378.81 141.173Z" fill="black"/>
<path d="M394.945 168.568L405.068 193.445L410.772 190.449L423.248 172.776L416.852 157.078L394.945 168.568Z" fill="black"/>
<path d="M352.439 155.94L330.535 167.434L340.661 192.296L362.565 180.803L352.439 155.94Z" fill="black"/>
<path d="M390.474 171.813L368.57 183.307L378.696 208.169L400.6 196.676L390.474 171.813Z" fill="black"/>
<path d="M326.052 170.723L325.943 170.779L325.152 201.378L336.175 195.588L326.052 170.723Z" fill="black"/>
<path d="M364.103 186.581L342.199 198.074L352.325 222.937L374.229 211.443L364.103 186.581Z" fill="black"/>
<path d="M380.234 213.979L385.326 226.501L402.191 202.612L402.141 202.488L380.234 213.979Z" fill="black"/>
<path d="M347.839 226.233L337.716 201.367L324.973 208.055L324.301 233.729L325.932 237.723L347.839 226.233Z" fill="black"/>
<path d="M353.852 228.748L363.985 253.613L367.504 251.762L381.65 231.721L375.759 217.246L353.852 228.748Z" fill="black"/>
<path d="M349.388 231.995L327.484 243.488L337.61 268.351L359.514 256.857L349.388 231.995Z" fill="black"/>
<path d="M323.905 249L323.184 276.862L333.129 271.644L323.905 249Z" fill="black"/>
<path d="M343.738 285.434L359.09 263.688L339.141 274.145L343.738 285.434Z" fill="black"/>
<path d="M324.233 313.071L340.06 290.651L334.672 277.422L323.007 283.537L322.266 312.252L322.888 313.778L324.233 313.071Z" fill="black"/>
</g>
<path opacity="0.2" d="M322.195 315.945C323.421 313.757 364.19 241.079 361.62 233.931C359.05 226.783 365.288 209.615 368.965 193.625C372.643 177.635 369.133 161.937 369.459 156.686C369.786 151.434 363.202 132.325 351.003 131.293C342.046 130.53 334.572 118.759 331.231 112.576L435.111 155.945L322.195 315.945Z" fill="black"/>
<path d="M435.43 153.983C434.017 159.088 431.535 163.386 429.499 168.57C427.097 174.578 426.018 181.16 426.355 187.747C426.355 187.982 426.355 188.218 426.355 188.476C427.067 202.513 425.722 213.835 423.31 219.895C421.491 224.484 419.079 226.145 416.469 223.856C410.389 218.503 413.138 190.855 411.833 170.994C410.528 151.132 389.085 149.079 387.237 165.204C385.388 181.328 375.077 193.84 373.99 180.812C372.902 167.784 377.015 158.37 370.115 152.625C363.214 146.88 367.05 132.214 358.785 125.919C350.521 119.624 341.12 127.826 331.54 121.43C321.961 115.034 323.236 106.45 323.236 106.45C323.513 96.1495 330.68 100.481 335.05 79.6771C336.186 74.8425 338.249 70.3521 341.09 66.5261C352.271 50.7606 375.987 38.4063 398.734 46.2049C427.62 56.113 429.38 89.3721 427.334 106.338C426.951 108.914 426.858 111.534 427.057 114.137C427.828 121.756 432.652 120.982 435.895 138.385C436.981 143.537 436.82 148.926 435.43 153.983Z" fill="#F7A212"/>
<path opacity="0.7" d="M435.43 153.983C434.017 159.088 431.535 163.386 429.499 168.57C427.097 174.578 426.018 181.16 426.355 187.747C426.355 187.982 426.355 188.218 426.355 188.476C427.067 202.513 425.722 213.835 423.31 219.895C421.491 224.484 419.079 226.145 416.469 223.856C410.389 218.503 413.138 190.855 411.833 170.994C410.528 151.132 389.085 149.079 387.237 165.204C385.388 181.328 375.077 193.84 373.99 180.812C372.902 167.784 377.015 158.37 370.115 152.625C363.214 146.88 367.05 132.214 358.785 125.919C350.521 119.624 341.12 127.826 331.54 121.43C321.961 115.034 323.236 106.45 323.236 106.45C323.513 96.1495 330.68 100.481 335.05 79.6771C336.186 74.8425 338.249 70.3521 341.09 66.5261C352.271 50.7606 375.987 38.4063 398.734 46.2049C427.62 56.113 429.38 89.3721 427.334 106.338C426.951 108.914 426.858 111.534 427.057 114.137C427.828 121.756 432.652 120.982 435.895 138.385C436.981 143.537 436.82 148.926 435.43 153.983Z" fill="white"/>
<path opacity="0.4" d="M426.391 188.463C427.103 202.501 425.759 213.823 423.346 219.882C411.869 219.321 417.415 191.83 422.654 190.438C424.058 189.84 425.327 188.898 426.372 187.678C426.372 187.969 426.381 188.205 426.391 188.463Z" fill="white"/>
<path opacity="0.4" d="M435.428 153.981C434.015 159.087 431.533 163.384 429.497 168.568C420.096 168.568 416.843 150.155 423.852 154.048C425.672 154.987 427.648 155.466 429.647 155.455C431.645 155.443 433.618 154.94 435.428 153.981Z" fill="white"/>
<path d="M443.968 130.552C443.95 131.199 443.89 131.844 443.79 132.482C443.362 135.497 442.175 138.307 440.374 140.575C438.572 142.843 436.232 144.472 433.634 145.266C431.036 146.061 428.292 145.987 425.73 145.053C423.169 144.12 420.899 142.367 419.194 140.004C417.489 137.642 416.422 134.771 416.12 131.737C415.818 128.702 416.294 125.633 417.492 122.899C418.689 120.164 420.557 117.881 422.871 116.322C425.184 114.764 427.845 113.997 430.533 114.113C431.808 114.163 433.07 114.42 434.28 114.876C437.181 115.93 439.699 118.033 441.449 120.863C443.198 123.694 444.083 127.097 443.968 130.552Z" fill="#263238"/>
<path opacity="0.2" d="M424.803 123.269C424.787 123.733 424.65 124.181 424.409 124.556C424.169 124.932 423.836 125.218 423.452 125.378C423.068 125.538 422.651 125.566 422.254 125.457C421.856 125.348 421.496 125.108 421.219 124.767C420.942 124.425 420.76 123.998 420.697 123.54C420.634 123.081 420.692 122.612 420.864 122.191C421.036 121.77 421.314 121.416 421.663 121.174C422.012 120.933 422.417 120.814 422.825 120.834C423.371 120.863 423.884 121.135 424.254 121.591C424.624 122.047 424.821 122.65 424.803 123.269Z" fill="white"/>
<path opacity="0.2" d="M422.429 130.99C422.775 133.291 422.143 135.333 421.016 135.557C419.889 135.782 418.702 134.076 418.356 131.765C418.01 129.453 418.643 127.422 419.77 127.198C420.897 126.973 422.083 128.679 422.429 130.99Z" fill="white"/>
<path opacity="0.2" d="M443.968 130.553C443.95 131.2 443.89 131.845 443.79 132.483C443.237 130.238 442.347 127.994 440.923 127.837C437.958 127.613 434.863 128.87 432.876 126.446C430.889 124.022 434.735 121.654 435.021 118.692C435.112 117.365 434.854 116.038 434.28 114.877C437.181 115.931 439.699 118.033 441.448 120.864C443.198 123.695 444.083 127.097 443.968 130.553Z" fill="black"/>
<path d="M474.161 119.545C457.236 105.138 441.152 117.75 437.386 121.139C436.609 120.963 435.809 120.963 435.033 121.139C434.459 121.498 433.886 125.425 436.407 125.627C437.801 125.751 438.157 124.404 438.206 123.17C440.717 120.791 456.435 107.157 473.024 121.273C473.116 121.412 473.236 121.524 473.373 121.601C473.511 121.678 473.662 121.718 473.815 121.717C473.968 121.716 474.119 121.675 474.256 121.597C474.393 121.519 474.512 121.406 474.603 121.266C474.695 121.127 474.757 120.966 474.784 120.794C474.811 120.623 474.803 120.447 474.76 120.281C474.717 120.114 474.641 119.96 474.537 119.833C474.433 119.705 474.304 119.607 474.161 119.545Z" fill="#F7A212"/>
<path opacity="0.3" d="M474.161 119.545C457.236 105.138 441.152 117.75 437.386 121.139C436.609 120.963 435.809 120.963 435.033 121.139C434.459 121.498 433.886 125.425 436.407 125.627C437.801 125.751 438.157 124.404 438.206 123.17C440.717 120.791 456.435 107.157 473.024 121.273C473.116 121.412 473.236 121.524 473.373 121.601C473.511 121.678 473.662 121.718 473.815 121.717C473.968 121.716 474.119 121.675 474.256 121.597C474.393 121.519 474.512 121.406 474.603 121.266C474.695 121.127 474.757 120.966 474.784 120.794C474.811 120.623 474.803 120.447 474.76 120.281C474.717 120.114 474.641 119.96 474.537 119.833C474.433 119.705 474.304 119.607 474.161 119.545Z" fill="black"/>
<path d="M426.421 110.32C427.854 112.486 434.616 112.565 434.804 114.898C434.992 117.232 430.929 117.693 427.587 116.604C424.246 115.516 419.787 117.468 419.422 120.7C419.056 123.931 419.313 125.491 417.721 126.838C416.13 128.184 415.161 133.346 417.178 136.252C419.194 139.158 405.819 152.657 405.028 139.248C404.237 125.839 420.529 109.176 420.529 109.176L426.421 110.32Z" fill="#F7A212"/>
<path opacity="0.7" d="M426.421 110.32C427.854 112.486 434.616 112.565 434.804 114.898C434.992 117.232 430.929 117.693 427.587 116.604C424.246 115.516 419.787 117.468 419.422 120.7C419.056 123.931 419.313 125.491 417.721 126.838C416.13 128.184 415.161 133.346 417.178 136.252C419.194 139.158 405.819 152.657 405.028 139.248C404.237 125.839 420.529 109.176 420.529 109.176L426.421 110.32Z" fill="white"/>
<path opacity="0.4" d="M427.321 106.326C427.173 107.549 427.054 108.772 426.985 110.006C426.985 110.556 426.718 111.129 426.985 111.712C427.252 112.296 427.974 112.531 428.577 112.632C429.493 112.757 430.396 112.978 431.275 113.294C431.623 113.417 431.944 113.624 432.215 113.9C432.347 114.041 432.443 114.219 432.491 114.417C432.54 114.615 432.54 114.824 432.491 115.022C432.304 115.595 431.691 115.774 431.177 115.875C430.543 116.049 429.882 116.049 429.249 115.875C428.626 115.651 428.003 115.471 427.4 115.191C426.985 115 426.599 114.764 426.184 114.596C425.285 114.278 424.348 114.116 423.406 114.113C421.142 113.979 417.771 114.697 417.682 117.929C417.534 123.651 417.188 125.525 412.848 127.41C408.508 129.295 407.55 136.23 407.638 144.848C407.727 153.465 395.706 145.117 393.472 141.796C391.238 138.474 401.183 137.15 401.074 133.784C400.966 130.417 395.004 127.792 387.58 132.078C380.156 136.365 385.03 148.438 379.197 147.99C373.364 147.541 375.322 138.62 372.01 130.283C368.698 121.946 382.005 113.395 369.914 111.577C365.386 110.893 359.247 109.176 358.506 104.845C357.765 100.514 374.323 100.356 373.335 91.806C372.346 83.2556 365.218 88.8998 357.171 89.4048C353.567 89.7283 349.967 88.7239 346.906 86.5408C343.844 84.3577 341.485 81.1121 340.178 77.2861C339.258 74.6491 339.911 70.6433 341.166 66.5476C352.347 50.7821 376.063 38.4278 398.81 46.2264C427.608 56.1009 429.367 89.3599 427.321 106.326Z" fill="white"/>
<path d="M301.12 156.798C301.12 156.798 292.855 154.554 290.789 149.762C291.709 149.229 292.508 148.461 293.122 147.518C295.969 143.366 297.284 135.556 297.768 130.754L304.629 143.232C304.293 143.871 303.947 144.544 303.641 145.207L303.571 145.364C303.041 146.525 302.706 147.788 302.583 149.089C302.534 150.027 302.69 150.963 303.038 151.816C303.711 153.291 304.762 154.5 306.053 155.283C306.557 157.471 301.12 156.798 301.12 156.798Z" fill="#E4897B"/>
<path d="M305.498 144.5C305.498 144.5 301.563 144.554 299.496 139.762C300.417 139.229 297.591 129.943 298.205 129C301.053 124.848 306.498 121.246 307.767 119.5L314.627 131.978C314.291 132.617 313.945 134.545 313.639 135.207L313.57 135.364C313.04 136.525 312.704 137.789 312.581 139.089C312.532 140.027 312.688 140.963 313.036 141.816C313.709 143.291 309.5 145 309 145C306 144.71 305.498 144.5 305.498 144.5Z" fill="#E4897B"/>
<path opacity="0.2" d="M304.641 143.21C304.305 143.85 303.959 144.523 303.652 145.185L303.583 145.342C303.053 146.504 302.718 147.767 302.595 149.067C302.545 150.005 302.702 150.942 303.049 151.794C296.505 149.55 296.426 138.654 296.426 138.654C296.426 138.654 300.657 140.685 304.562 143.143L304.641 143.21Z" fill="black"/>
<path d="M287.625 127.959C286.478 128.913 290.264 132.627 297.224 131.101C304.183 129.575 306.279 122.124 306.279 122.124C306.279 122.124 295.128 121.731 287.625 127.959Z" fill="#F7A212"/>
<path opacity="0.4" d="M287.625 127.959C286.478 128.913 290.264 132.627 297.224 131.101C304.183 129.575 306.279 122.124 306.279 122.124C306.279 122.124 295.128 121.731 287.625 127.959Z" fill="black"/>
<path d="M312.312 124.358C308.971 125.335 309.09 129.341 313.439 137.307C317.058 134.671 319.697 127.77 318.293 125.2C316.889 122.63 315.219 123.517 312.312 124.358Z" fill="#263238"/>
<path d="M308.03 131.54C307.822 132.134 307.951 132.752 308.297 132.897C308.643 133.043 309.078 132.673 309.285 132.078C309.493 131.484 309.374 130.866 309.028 130.709C308.682 130.552 308.257 130.967 308.03 131.54Z" fill="#263238"/>
<path d="M314.08 134.143C313.882 134.738 314.001 135.355 314.347 135.501C314.693 135.647 315.138 135.288 315.335 134.671C315.533 134.054 315.415 133.459 315.059 133.313C314.703 133.167 314.258 133.537 314.08 134.143Z" fill="#263238"/>
<path d="M311.994 133.582C312.013 135.695 312.292 137.795 312.824 139.821C312.363 139.96 311.881 139.982 311.411 139.887C310.942 139.792 310.496 139.582 310.105 139.271L311.994 133.582Z" fill="#DE5753"/>
<path d="M307.091 128.68C307.021 128.657 306.959 128.61 306.913 128.545C306.865 128.46 306.848 128.357 306.867 128.258C306.885 128.159 306.938 128.073 307.012 128.018C307.454 127.687 307.959 127.481 308.485 127.416C309.011 127.352 309.544 127.431 310.037 127.647C310.116 127.687 310.178 127.759 310.211 127.849C310.244 127.938 310.245 128.039 310.215 128.13C310.173 128.216 310.105 128.282 310.023 128.315C309.941 128.349 309.851 128.346 309.77 128.309C309.379 128.147 308.959 128.092 308.545 128.148C308.131 128.205 307.735 128.372 307.388 128.635C307.345 128.669 307.296 128.69 307.244 128.698C307.193 128.706 307.14 128.7 307.091 128.68Z" fill="#263238"/>
<path d="M317.57 133.008C317.512 132.98 317.461 132.935 317.423 132.878C317.385 132.821 317.361 132.754 317.352 132.683C317.328 132.209 317.205 131.749 316.994 131.339C316.782 130.93 316.488 130.583 316.136 130.327C316.068 130.274 316.019 130.195 315.999 130.105C315.978 130.014 315.988 129.918 316.026 129.835C316.064 129.752 316.127 129.688 316.204 129.654C316.281 129.621 316.366 129.62 316.443 129.653C316.903 129.971 317.288 130.41 317.566 130.934C317.843 131.458 318.004 132.05 318.034 132.661C318.038 132.709 318.034 132.758 318.021 132.805C318.009 132.852 317.988 132.895 317.96 132.933C317.933 132.97 317.899 133.001 317.861 133.024C317.822 133.046 317.781 133.06 317.738 133.065C317.679 133.061 317.621 133.042 317.57 133.008Z" fill="#263238"/>
<path d="M303.738 119.892C306.387 122.395 304.776 125.963 297.856 131.057C295.572 126.928 295.77 119.399 298.014 117.772C300.258 116.144 301.415 117.727 303.738 119.892Z" fill="#263238"/>
<path d="M293.885 129.935C293.744 131.925 294.302 133.897 295.437 135.422C296.959 137.42 298.996 136.219 299.648 133.84C300.241 131.686 300.152 128.05 298.106 126.928C297.657 126.69 297.162 126.583 296.668 126.618C296.173 126.652 295.694 126.827 295.274 127.126C294.854 127.426 294.507 127.839 294.264 128.33C294.021 128.821 293.891 129.373 293.885 129.935Z" fill="#E4897B"/>
<path d="M306.17 121.9C307.173 122.502 308.018 123.392 308.622 124.481C308.753 124.253 308.838 123.995 308.87 123.725C308.903 123.455 308.882 123.181 308.81 122.921C309.84 123.775 310.716 124.846 311.39 126.074C311.784 125.349 312.028 124.532 312.102 123.684C312.514 124.763 312.813 125.893 312.992 127.051C312.992 127.051 315.433 126.456 315.957 124.414C315.951 125.324 315.838 126.23 315.621 127.107C316.106 126.997 316.558 126.752 316.938 126.393C317.318 126.035 317.613 125.574 317.796 125.053C317.979 126.166 317.979 127.307 317.796 128.42C318.378 128.153 318.861 127.667 319.165 127.044C319.47 126.421 319.576 125.699 319.467 124.997C319.299 122.214 313.1 116.974 309.047 117.659C304.994 118.343 306.17 121.9 306.17 121.9Z" fill="#263238"/>
<path d="M319.518 126.12C319.518 126.12 320.408 118.265 317.986 114.899C315.564 111.532 305.728 108.997 300.439 111.117C295.15 113.238 295.624 124.078 295.624 124.078C295.624 124.078 306.449 119.881 319.518 126.12Z" fill="#F7A212"/>
<path d="M316.363 123.057C314.431 122.07 312.343 121.535 310.224 121.486C310.224 121.486 308.909 117.727 313.289 118.22C316.462 118.58 316.858 120.577 316.363 123.057Z" fill="#263238"/>
<path d="M301.149 122.901L295.642 122.07C292.689 123.49 289.976 125.484 287.625 127.961C287.625 127.961 292.331 124.46 301.149 122.901Z" fill="#F7A212"/>
<path opacity="0.2" d="M301.149 122.901L295.642 122.07C292.689 123.49 289.976 125.484 287.625 127.961C287.625 127.961 292.331 124.46 301.149 122.901Z" fill="black"/>
<path d="M309.482 142.054C309.062 142.453 308.57 142.743 308.041 142.904C307.511 143.065 306.958 143.092 306.418 142.985C305.859 142.871 305.323 142.643 304.836 142.312C303.304 141.302 302.691 139.866 302.859 138.946C302.887 138.753 302.96 138.571 303.069 138.42C303.178 138.268 303.321 138.152 303.482 138.082C303.856 137.931 304.264 137.931 304.638 138.082C306.235 138.723 307.66 139.816 308.781 141.257C309.216 141.706 309.482 142.054 309.482 142.054Z" fill="#2E353A"/>
<path d="M308.783 141.189L307.933 141.728C306.552 140.353 305.063 139.125 303.484 138.058C303.859 137.908 304.267 137.908 304.641 138.058C306.233 138.687 307.658 139.764 308.783 141.189Z" fill="white"/>
<path d="M306.418 142.985C305.859 142.871 305.323 142.643 304.836 142.312C303.304 141.302 302.691 139.865 302.859 138.945C304.51 139.282 307.159 140.292 306.418 142.985Z" fill="#DE5753"/>
<path d="M288.695 145.105L293.223 154.352L287.627 159.154L271.711 220.522L257.871 215.506C257.871 215.506 267.045 162.464 277.04 146.721L285.245 148.191L288.695 145.105Z" fill="#F7A212"/>
<path d="M323.433 223.327C323.433 223.327 314.318 188.767 319.478 159.154L310.719 155.508L306.172 150.615C306.985 153.194 307.282 155.946 307.042 158.672L308.347 163.587C309.227 180.418 311.767 215.102 318.025 224.921L323.433 223.327Z" fill="#F7A212"/>
<path opacity="0.6" d="M293.223 154.351L287.627 159.154L271.711 220.521L257.871 215.494C260.596 200.103 264.008 184.879 268.093 169.881C269.532 164.707 271.222 159.628 273.155 154.665C274.223 151.882 275.524 149.222 277.04 146.721L285.245 148.191L288.725 145.094L293.223 154.351Z" fill="white"/>
<path opacity="0.6" d="M323.433 223.327C323.433 223.327 314.318 188.767 319.478 159.154L310.719 155.508L306.172 150.615C306.985 153.194 307.282 155.946 307.042 158.672L308.347 163.587C309.227 180.418 311.767 215.102 318.025 224.921L323.433 223.327Z" fill="white"/>
<path d="M288.694 145.105L284.938 146.721L286.252 156.091L293.222 154.352L288.694 145.105Z" fill="#F7A212"/>
<path d="M306.172 150.615L311.471 154.733L312.301 162.408L307.042 158.672C307.255 155.947 306.959 153.201 306.172 150.615Z" fill="#F7A212"/>
<path opacity="0.7" d="M288.694 145.105L284.938 146.721L286.252 156.091L293.222 154.352L288.694 145.105Z" fill="white"/>
<path opacity="0.7" d="M306.172 150.615L311.471 154.733L312.301 162.408L307.042 158.672C307.255 155.947 306.959 153.201 306.172 150.615Z" fill="white"/>
<path opacity="0.2" d="M277.414 175.301C273.075 177.355 269.99 173.742 268.062 169.927C269.502 164.753 271.191 159.673 273.124 154.711C278.255 160.288 283.504 172.373 277.414 175.301Z" fill="black"/>
<g opacity="0.7">
<path d="M293.904 172.73L292.797 170.969L292.985 173.134C293.285 172.981 293.592 172.847 293.904 172.73Z" fill="white"/>
<path d="M298.373 170.398L297.562 172.373C297.895 172.417 298.226 172.484 298.551 172.575L298.373 170.398Z" fill="white"/>
<path d="M294.615 170.398L294.457 172.575C294.782 172.484 295.113 172.417 295.446 172.373L294.615 170.398Z" fill="white"/>
<path d="M296.989 172.317L296.494 170.207L296 172.317H296.494H296.989Z" fill="white"/>
<path d="M292.46 173.417L291.086 171.936L291.62 174.023C291.887 173.787 292.173 173.596 292.46 173.417Z" fill="white"/>
<path d="M291.154 174.382L289.562 173.17L290.413 175.122C290.646 174.858 290.893 174.611 291.154 174.382Z" fill="white"/>
<path d="M289.089 177.007L287.211 176.502L288.625 178.006C288.764 177.664 288.919 177.33 289.089 177.007Z" fill="white"/>
<path d="M290.017 175.594L288.258 174.719L289.365 176.424C289.569 176.134 289.787 175.857 290.017 175.594Z" fill="white"/>
<path d="M303.592 176.422L304.728 174.672L302.969 175.547C303.186 175.861 303.394 176.153 303.592 176.422Z" fill="white"/>
<path d="M305.181 181.417L306.97 180.564L305.062 180.295C305.123 180.666 305.162 181.041 305.181 181.417Z" fill="white"/>
<path d="M304.896 179.666L306.518 178.477L304.59 178.589C304.708 178.942 304.811 179.301 304.896 179.666Z" fill="white"/>
<path d="M307.021 182.706L305.182 182.033C305.182 182.033 305.182 182.101 305.182 182.134C305.182 182.482 305.182 182.83 305.133 183.167L307.021 182.706Z" fill="white"/>
<path d="M304.363 178.006L305.777 176.502L303.898 177.007C304.069 177.33 304.224 177.664 304.363 178.006Z" fill="white"/>
<path d="M301.901 171.936L300.527 173.45C300.824 173.63 301.101 173.821 301.378 174.023L301.901 171.936Z" fill="white"/>
<path d="M288.376 178.589L286.398 178.477L288.03 179.666C288.124 179.299 288.239 178.939 288.376 178.589Z" fill="white"/>
<path d="M300.24 170.969L299.133 172.73C299.439 172.843 299.746 172.989 300.052 173.134L300.24 170.969Z" fill="white"/>
<path d="M302.583 175.122L303.424 173.17L301.832 174.382C302.094 174.613 302.345 174.861 302.583 175.122Z" fill="white"/>
<path d="M287.813 182.145V182.033L285.965 182.695L287.853 183.167C287.823 182.841 287.813 182.493 287.813 182.145Z" fill="white"/>
<path d="M302.395 189.36L304.115 190.482L303.126 188.586C302.897 188.861 302.652 189.12 302.395 189.36Z" fill="white"/>
<path d="M301.168 190.449L302.69 191.851L301.988 189.775C301.726 190.016 301.452 190.241 301.168 190.449Z" fill="white"/>
<path d="M299.797 191.269L301.072 192.952L300.706 190.764C300.412 190.952 300.109 191.121 299.797 191.269Z" fill="white"/>
<path d="M298.312 191.784L299.301 193.703V191.459C298.965 191.594 298.639 191.706 298.312 191.784Z" fill="white"/>
<path d="M287.973 180.295L286.055 180.564L287.844 181.417C287.861 181.04 287.904 180.665 287.973 180.295Z" fill="white"/>
<path d="M297.444 194.084L297.77 191.84C297.442 191.896 297.112 191.93 296.781 191.941L297.444 194.084Z" fill="white"/>
<path d="M304.828 184.906L306.805 184.828L305.085 183.807C305.02 184.179 304.934 184.546 304.828 184.906Z" fill="white"/>
<path d="M304.254 186.522L306.182 186.836L304.649 185.479C304.534 185.834 304.402 186.182 304.254 186.522Z" fill="white"/>
<path d="M303.434 188.059L305.292 188.755L303.997 187.105C303.824 187.434 303.636 187.753 303.434 188.059Z" fill="white"/>
<path d="M288.998 187.105L287.703 188.766L289.552 188.07C289.352 187.76 289.167 187.438 288.998 187.105Z" fill="white"/>
<path d="M288.376 185.512L286.844 186.869L288.821 186.555C288.656 186.217 288.508 185.868 288.376 185.512Z" fill="white"/>
<path d="M289.891 188.543L288.902 190.439L290.613 189.317C290.361 189.073 290.12 188.815 289.891 188.543Z" fill="white"/>
<path d="M287.943 183.807L286.223 184.828L288.2 184.906C288.071 184.547 288.002 184.177 287.943 183.807Z" fill="white"/>
<path d="M290.355 191.851L291.868 190.449C291.587 190.241 291.317 190.016 291.057 189.775L290.355 191.851Z" fill="white"/>
<path d="M293.695 193.704L294.684 191.785C294.358 191.707 294.031 191.595 293.695 191.482V193.704Z" fill="white"/>
<path d="M295.555 194.086L296.227 191.988C295.896 191.976 295.566 191.943 295.238 191.887L295.555 194.086Z" fill="white"/>
<path d="M291.926 192.952L293.191 191.269C292.882 191.123 292.581 190.954 292.292 190.764L291.926 192.952Z" fill="white"/>
<path d="M304.45 182.147C304.44 180.374 303.968 178.644 303.093 177.175C302.218 175.707 300.98 174.565 299.534 173.894C298.088 173.223 296.499 173.053 294.968 173.406C293.437 173.759 292.033 174.618 290.932 175.876C289.831 177.133 289.082 178.733 288.781 180.473C288.48 182.212 288.64 184.014 289.24 185.651C289.84 187.288 290.853 188.687 292.153 189.671C293.452 190.655 294.979 191.18 296.541 191.18C297.584 191.18 298.617 190.946 299.579 190.492C300.542 190.037 301.416 189.371 302.151 188.531C302.886 187.692 303.468 186.695 303.862 185.6C304.257 184.504 304.456 183.331 304.45 182.147Z" fill="white"/>
</g>
<path d="M284.937 165.27C284.937 165.27 292.174 181.36 294.388 182.808C296.602 184.255 322.375 182.101 322.375 182.101C323.023 180.944 323.757 179.851 324.569 178.836C325.034 178.51 332.943 184.446 334.04 185.333C335.137 186.219 332.508 195.353 331.944 194.713C331.381 194.074 322.918 190.292 322.167 189.103C322.167 189.103 293.231 192.335 290.869 190.55C288.506 188.766 277.414 174.673 277.414 174.673L284.937 165.27Z" fill="#E4897B"/>
<path d="M277.007 146.722C269.405 149.785 267.121 163.968 275.534 179.554L290.047 172.115C290.047 172.115 280.754 145.207 277.007 146.722Z" fill="#F7A212"/>
<path opacity="0.7" d="M277.007 146.722C269.405 149.785 267.121 163.968 275.534 179.554L290.047 172.115C290.047 172.115 280.754 145.207 277.007 146.722Z" fill="white"/>
</svg>
